%TF.GenerationSoftware,KiCad,Pcbnew,6.0.11+dfsg-1~bpo11+1*%
%TF.CreationDate,2025-04-08T21:51:03+02:00*%
%TF.ProjectId,v1,76312e6b-6963-4616-945f-706362585858,rev?*%
%TF.SameCoordinates,Original*%
%TF.FileFunction,Legend,Bot*%
%TF.FilePolarity,Positive*%
%FSLAX46Y46*%
G04 Gerber Fmt 4.6, Leading zero omitted, Abs format (unit mm)*
G04 Created by KiCad (PCBNEW 6.0.11+dfsg-1~bpo11+1) date 2025-04-08 21:51:03*
%MOMM*%
%LPD*%
G01*
G04 APERTURE LIST*
%ADD10C,0.150000*%
%ADD11C,0.300000*%
%ADD12C,0.120000*%
G04 APERTURE END LIST*
D10*
X149524404Y-80583380D02*
X149524404Y-79583380D01*
X149286309Y-79583380D01*
X149143452Y-79631000D01*
X149048214Y-79726238D01*
X149000595Y-79821476D01*
X148952976Y-80011952D01*
X148952976Y-80154809D01*
X149000595Y-80345285D01*
X149048214Y-80440523D01*
X149143452Y-80535761D01*
X149286309Y-80583380D01*
X149524404Y-80583380D01*
X148381547Y-80583380D02*
X148476785Y-80535761D01*
X148524404Y-80488142D01*
X148572023Y-80392904D01*
X148572023Y-80107190D01*
X148524404Y-80011952D01*
X148476785Y-79964333D01*
X148381547Y-79916714D01*
X148238690Y-79916714D01*
X148143452Y-79964333D01*
X148095833Y-80011952D01*
X148048214Y-80107190D01*
X148048214Y-80392904D01*
X148095833Y-80488142D01*
X148143452Y-80535761D01*
X148238690Y-80583380D01*
X148381547Y-80583380D01*
X147762500Y-79916714D02*
X147381547Y-79916714D01*
X147619642Y-79583380D02*
X147619642Y-80440523D01*
X147572023Y-80535761D01*
X147476785Y-80583380D01*
X147381547Y-80583380D01*
X147095833Y-80535761D02*
X146952976Y-80583380D01*
X146714880Y-80583380D01*
X146619642Y-80535761D01*
X146572023Y-80488142D01*
X146524404Y-80392904D01*
X146524404Y-80297666D01*
X146572023Y-80202428D01*
X146619642Y-80154809D01*
X146714880Y-80107190D01*
X146905357Y-80059571D01*
X147000595Y-80011952D01*
X147048214Y-79964333D01*
X147095833Y-79869095D01*
X147095833Y-79773857D01*
X147048214Y-79678619D01*
X147000595Y-79631000D01*
X146905357Y-79583380D01*
X146667261Y-79583380D01*
X146524404Y-79631000D01*
X146238690Y-79916714D02*
X145857738Y-79916714D01*
X146095833Y-79583380D02*
X146095833Y-80440523D01*
X146048214Y-80535761D01*
X145952976Y-80583380D01*
X145857738Y-80583380D01*
X145095833Y-80583380D02*
X145095833Y-80059571D01*
X145143452Y-79964333D01*
X145238690Y-79916714D01*
X145429166Y-79916714D01*
X145524404Y-79964333D01*
X145095833Y-80535761D02*
X145191071Y-80583380D01*
X145429166Y-80583380D01*
X145524404Y-80535761D01*
X145572023Y-80440523D01*
X145572023Y-80345285D01*
X145524404Y-80250047D01*
X145429166Y-80202428D01*
X145191071Y-80202428D01*
X145095833Y-80154809D01*
X144619642Y-80583380D02*
X144619642Y-79916714D01*
X144619642Y-80107190D02*
X144572023Y-80011952D01*
X144524404Y-79964333D01*
X144429166Y-79916714D01*
X144333928Y-79916714D01*
X143476785Y-80583380D02*
X144048214Y-80583380D01*
X143762500Y-80583380D02*
X143762500Y-79583380D01*
X143857738Y-79726238D01*
X143952976Y-79821476D01*
X144048214Y-79869095D01*
X143048214Y-80488142D02*
X143000595Y-80535761D01*
X143048214Y-80583380D01*
X143095833Y-80535761D01*
X143048214Y-80488142D01*
X143048214Y-80583380D01*
X143048214Y-79964333D02*
X143000595Y-80011952D01*
X143048214Y-80059571D01*
X143095833Y-80011952D01*
X143048214Y-79964333D01*
X143048214Y-80059571D01*
X141857738Y-80535761D02*
X141714880Y-80583380D01*
X141476785Y-80583380D01*
X141381547Y-80535761D01*
X141333928Y-80488142D01*
X141286309Y-80392904D01*
X141286309Y-80297666D01*
X141333928Y-80202428D01*
X141381547Y-80154809D01*
X141476785Y-80107190D01*
X141667261Y-80059571D01*
X141762500Y-80011952D01*
X141810119Y-79964333D01*
X141857738Y-79869095D01*
X141857738Y-79773857D01*
X141810119Y-79678619D01*
X141762500Y-79631000D01*
X141667261Y-79583380D01*
X141429166Y-79583380D01*
X141286309Y-79631000D01*
X140857738Y-80583380D02*
X140857738Y-79583380D01*
X140476785Y-79583380D01*
X140381547Y-79631000D01*
X140333928Y-79678619D01*
X140286309Y-79773857D01*
X140286309Y-79916714D01*
X140333928Y-80011952D01*
X140381547Y-80059571D01*
X140476785Y-80107190D01*
X140857738Y-80107190D01*
X139857738Y-80583380D02*
X139857738Y-79583380D01*
X139191071Y-79583380D02*
X139095833Y-79583380D01*
X139000595Y-79631000D01*
X138952976Y-79678619D01*
X138905357Y-79773857D01*
X138857738Y-79964333D01*
X138857738Y-80202428D01*
X138905357Y-80392904D01*
X138952976Y-80488142D01*
X139000595Y-80535761D01*
X139095833Y-80583380D01*
X139191071Y-80583380D01*
X139286309Y-80535761D01*
X139333928Y-80488142D01*
X139381547Y-80392904D01*
X139429166Y-80202428D01*
X139429166Y-79964333D01*
X139381547Y-79773857D01*
X139333928Y-79678619D01*
X139286309Y-79631000D01*
X139191071Y-79583380D01*
X149572023Y-82145761D02*
X149429166Y-82193380D01*
X149191071Y-82193380D01*
X149095833Y-82145761D01*
X149048214Y-82098142D01*
X149000595Y-82002904D01*
X149000595Y-81907666D01*
X149048214Y-81812428D01*
X149095833Y-81764809D01*
X149191071Y-81717190D01*
X149381547Y-81669571D01*
X149476785Y-81621952D01*
X149524404Y-81574333D01*
X149572023Y-81479095D01*
X149572023Y-81383857D01*
X149524404Y-81288619D01*
X149476785Y-81241000D01*
X149381547Y-81193380D01*
X149143452Y-81193380D01*
X149000595Y-81241000D01*
X148000595Y-82098142D02*
X148048214Y-82145761D01*
X148191071Y-82193380D01*
X148286309Y-82193380D01*
X148429166Y-82145761D01*
X148524404Y-82050523D01*
X148572023Y-81955285D01*
X148619642Y-81764809D01*
X148619642Y-81621952D01*
X148572023Y-81431476D01*
X148524404Y-81336238D01*
X148429166Y-81241000D01*
X148286309Y-81193380D01*
X148191071Y-81193380D01*
X148048214Y-81241000D01*
X148000595Y-81288619D01*
X147572023Y-82193380D02*
X147572023Y-81193380D01*
X147000595Y-82193380D02*
X147429166Y-81621952D01*
X147000595Y-81193380D02*
X147572023Y-81764809D01*
X146572023Y-82098142D02*
X146524404Y-82145761D01*
X146572023Y-82193380D01*
X146619642Y-82145761D01*
X146572023Y-82098142D01*
X146572023Y-82193380D01*
X146572023Y-81574333D02*
X146524404Y-81621952D01*
X146572023Y-81669571D01*
X146619642Y-81621952D01*
X146572023Y-81574333D01*
X146572023Y-81669571D01*
X144810119Y-81241000D02*
X144905357Y-81193380D01*
X145048214Y-81193380D01*
X145191071Y-81241000D01*
X145286309Y-81336238D01*
X145333928Y-81431476D01*
X145381547Y-81621952D01*
X145381547Y-81764809D01*
X145333928Y-81955285D01*
X145286309Y-82050523D01*
X145191071Y-82145761D01*
X145048214Y-82193380D01*
X144952976Y-82193380D01*
X144810119Y-82145761D01*
X144762500Y-82098142D01*
X144762500Y-81764809D01*
X144952976Y-81764809D01*
X144333928Y-82193380D02*
X144333928Y-81193380D01*
X143952976Y-81193380D01*
X143857738Y-81241000D01*
X143810119Y-81288619D01*
X143762500Y-81383857D01*
X143762500Y-81526714D01*
X143810119Y-81621952D01*
X143857738Y-81669571D01*
X143952976Y-81717190D01*
X144333928Y-81717190D01*
X143381547Y-81288619D02*
X143333928Y-81241000D01*
X143238690Y-81193380D01*
X143000595Y-81193380D01*
X142905357Y-81241000D01*
X142857738Y-81288619D01*
X142810119Y-81383857D01*
X142810119Y-81479095D01*
X142857738Y-81621952D01*
X143429166Y-82193380D01*
X142810119Y-82193380D01*
X149667261Y-82803380D02*
X149095833Y-82803380D01*
X149381547Y-83803380D02*
X149381547Y-82803380D01*
X148857738Y-82803380D02*
X148191071Y-83803380D01*
X148191071Y-82803380D02*
X148857738Y-83803380D01*
X147810119Y-83708142D02*
X147762500Y-83755761D01*
X147810119Y-83803380D01*
X147857738Y-83755761D01*
X147810119Y-83708142D01*
X147810119Y-83803380D01*
X147810119Y-83184333D02*
X147762500Y-83231952D01*
X147810119Y-83279571D01*
X147857738Y-83231952D01*
X147810119Y-83184333D01*
X147810119Y-83279571D01*
X146048214Y-82851000D02*
X146143452Y-82803380D01*
X146286309Y-82803380D01*
X146429166Y-82851000D01*
X146524404Y-82946238D01*
X146572023Y-83041476D01*
X146619642Y-83231952D01*
X146619642Y-83374809D01*
X146572023Y-83565285D01*
X146524404Y-83660523D01*
X146429166Y-83755761D01*
X146286309Y-83803380D01*
X146191071Y-83803380D01*
X146048214Y-83755761D01*
X146000595Y-83708142D01*
X146000595Y-83374809D01*
X146191071Y-83374809D01*
X145572023Y-83803380D02*
X145572023Y-82803380D01*
X145191071Y-82803380D01*
X145095833Y-82851000D01*
X145048214Y-82898619D01*
X145000595Y-82993857D01*
X145000595Y-83136714D01*
X145048214Y-83231952D01*
X145095833Y-83279571D01*
X145191071Y-83327190D01*
X145572023Y-83327190D01*
X144667261Y-82803380D02*
X144048214Y-82803380D01*
X144381547Y-83184333D01*
X144238690Y-83184333D01*
X144143452Y-83231952D01*
X144095833Y-83279571D01*
X144048214Y-83374809D01*
X144048214Y-83612904D01*
X144095833Y-83708142D01*
X144143452Y-83755761D01*
X144238690Y-83803380D01*
X144524404Y-83803380D01*
X144619642Y-83755761D01*
X144667261Y-83708142D01*
X149524404Y-85413380D02*
X149524404Y-84413380D01*
X149286309Y-84413380D01*
X149143452Y-84461000D01*
X149048214Y-84556238D01*
X149000595Y-84651476D01*
X148952976Y-84841952D01*
X148952976Y-84984809D01*
X149000595Y-85175285D01*
X149048214Y-85270523D01*
X149143452Y-85365761D01*
X149286309Y-85413380D01*
X149524404Y-85413380D01*
X148381547Y-85413380D02*
X148476785Y-85365761D01*
X148524404Y-85318142D01*
X148572023Y-85222904D01*
X148572023Y-84937190D01*
X148524404Y-84841952D01*
X148476785Y-84794333D01*
X148381547Y-84746714D01*
X148238690Y-84746714D01*
X148143452Y-84794333D01*
X148095833Y-84841952D01*
X148048214Y-84937190D01*
X148048214Y-85222904D01*
X148095833Y-85318142D01*
X148143452Y-85365761D01*
X148238690Y-85413380D01*
X148381547Y-85413380D01*
X147762500Y-84746714D02*
X147381547Y-84746714D01*
X147619642Y-84413380D02*
X147619642Y-85270523D01*
X147572023Y-85365761D01*
X147476785Y-85413380D01*
X147381547Y-85413380D01*
X147095833Y-85365761D02*
X146952976Y-85413380D01*
X146714880Y-85413380D01*
X146619642Y-85365761D01*
X146572023Y-85318142D01*
X146524404Y-85222904D01*
X146524404Y-85127666D01*
X146572023Y-85032428D01*
X146619642Y-84984809D01*
X146714880Y-84937190D01*
X146905357Y-84889571D01*
X147000595Y-84841952D01*
X147048214Y-84794333D01*
X147095833Y-84699095D01*
X147095833Y-84603857D01*
X147048214Y-84508619D01*
X147000595Y-84461000D01*
X146905357Y-84413380D01*
X146667261Y-84413380D01*
X146524404Y-84461000D01*
X146238690Y-84746714D02*
X145857738Y-84746714D01*
X146095833Y-84413380D02*
X146095833Y-85270523D01*
X146048214Y-85365761D01*
X145952976Y-85413380D01*
X145857738Y-85413380D01*
X145095833Y-85413380D02*
X145095833Y-84889571D01*
X145143452Y-84794333D01*
X145238690Y-84746714D01*
X145429166Y-84746714D01*
X145524404Y-84794333D01*
X145095833Y-85365761D02*
X145191071Y-85413380D01*
X145429166Y-85413380D01*
X145524404Y-85365761D01*
X145572023Y-85270523D01*
X145572023Y-85175285D01*
X145524404Y-85080047D01*
X145429166Y-85032428D01*
X145191071Y-85032428D01*
X145095833Y-84984809D01*
X144619642Y-85413380D02*
X144619642Y-84746714D01*
X144619642Y-84937190D02*
X144572023Y-84841952D01*
X144524404Y-84794333D01*
X144429166Y-84746714D01*
X144333928Y-84746714D01*
X144048214Y-84508619D02*
X144000595Y-84461000D01*
X143905357Y-84413380D01*
X143667261Y-84413380D01*
X143572023Y-84461000D01*
X143524404Y-84508619D01*
X143476785Y-84603857D01*
X143476785Y-84699095D01*
X143524404Y-84841952D01*
X144095833Y-85413380D01*
X143476785Y-85413380D01*
X143048214Y-85318142D02*
X143000595Y-85365761D01*
X143048214Y-85413380D01*
X143095833Y-85365761D01*
X143048214Y-85318142D01*
X143048214Y-85413380D01*
X143048214Y-84794333D02*
X143000595Y-84841952D01*
X143048214Y-84889571D01*
X143095833Y-84841952D01*
X143048214Y-84794333D01*
X143048214Y-84889571D01*
X141857738Y-85365761D02*
X141714880Y-85413380D01*
X141476785Y-85413380D01*
X141381547Y-85365761D01*
X141333928Y-85318142D01*
X141286309Y-85222904D01*
X141286309Y-85127666D01*
X141333928Y-85032428D01*
X141381547Y-84984809D01*
X141476785Y-84937190D01*
X141667261Y-84889571D01*
X141762500Y-84841952D01*
X141810119Y-84794333D01*
X141857738Y-84699095D01*
X141857738Y-84603857D01*
X141810119Y-84508619D01*
X141762500Y-84461000D01*
X141667261Y-84413380D01*
X141429166Y-84413380D01*
X141286309Y-84461000D01*
X140857738Y-85413380D02*
X140857738Y-84413380D01*
X140476785Y-84413380D01*
X140381547Y-84461000D01*
X140333928Y-84508619D01*
X140286309Y-84603857D01*
X140286309Y-84746714D01*
X140333928Y-84841952D01*
X140381547Y-84889571D01*
X140476785Y-84937190D01*
X140857738Y-84937190D01*
X139857738Y-85413380D02*
X139857738Y-84413380D01*
X138857738Y-85413380D02*
X139429166Y-85413380D01*
X139143452Y-85413380D02*
X139143452Y-84413380D01*
X139238690Y-84556238D01*
X139333928Y-84651476D01*
X139429166Y-84699095D01*
X149572023Y-86975761D02*
X149429166Y-87023380D01*
X149191071Y-87023380D01*
X149095833Y-86975761D01*
X149048214Y-86928142D01*
X149000595Y-86832904D01*
X149000595Y-86737666D01*
X149048214Y-86642428D01*
X149095833Y-86594809D01*
X149191071Y-86547190D01*
X149381547Y-86499571D01*
X149476785Y-86451952D01*
X149524404Y-86404333D01*
X149572023Y-86309095D01*
X149572023Y-86213857D01*
X149524404Y-86118619D01*
X149476785Y-86071000D01*
X149381547Y-86023380D01*
X149143452Y-86023380D01*
X149000595Y-86071000D01*
X148000595Y-86928142D02*
X148048214Y-86975761D01*
X148191071Y-87023380D01*
X148286309Y-87023380D01*
X148429166Y-86975761D01*
X148524404Y-86880523D01*
X148572023Y-86785285D01*
X148619642Y-86594809D01*
X148619642Y-86451952D01*
X148572023Y-86261476D01*
X148524404Y-86166238D01*
X148429166Y-86071000D01*
X148286309Y-86023380D01*
X148191071Y-86023380D01*
X148048214Y-86071000D01*
X148000595Y-86118619D01*
X147572023Y-87023380D02*
X147572023Y-86023380D01*
X147000595Y-87023380D02*
X147429166Y-86451952D01*
X147000595Y-86023380D02*
X147572023Y-86594809D01*
X146572023Y-86928142D02*
X146524404Y-86975761D01*
X146572023Y-87023380D01*
X146619642Y-86975761D01*
X146572023Y-86928142D01*
X146572023Y-87023380D01*
X146572023Y-86404333D02*
X146524404Y-86451952D01*
X146572023Y-86499571D01*
X146619642Y-86451952D01*
X146572023Y-86404333D01*
X146572023Y-86499571D01*
X144810119Y-86071000D02*
X144905357Y-86023380D01*
X145048214Y-86023380D01*
X145191071Y-86071000D01*
X145286309Y-86166238D01*
X145333928Y-86261476D01*
X145381547Y-86451952D01*
X145381547Y-86594809D01*
X145333928Y-86785285D01*
X145286309Y-86880523D01*
X145191071Y-86975761D01*
X145048214Y-87023380D01*
X144952976Y-87023380D01*
X144810119Y-86975761D01*
X144762500Y-86928142D01*
X144762500Y-86594809D01*
X144952976Y-86594809D01*
X144333928Y-87023380D02*
X144333928Y-86023380D01*
X143952976Y-86023380D01*
X143857738Y-86071000D01*
X143810119Y-86118619D01*
X143762500Y-86213857D01*
X143762500Y-86356714D01*
X143810119Y-86451952D01*
X143857738Y-86499571D01*
X143952976Y-86547190D01*
X144333928Y-86547190D01*
X142810119Y-87023380D02*
X143381547Y-87023380D01*
X143095833Y-87023380D02*
X143095833Y-86023380D01*
X143191071Y-86166238D01*
X143286309Y-86261476D01*
X143381547Y-86309095D01*
X142191071Y-86023380D02*
X142095833Y-86023380D01*
X142000595Y-86071000D01*
X141952976Y-86118619D01*
X141905357Y-86213857D01*
X141857738Y-86404333D01*
X141857738Y-86642428D01*
X141905357Y-86832904D01*
X141952976Y-86928142D01*
X142000595Y-86975761D01*
X142095833Y-87023380D01*
X142191071Y-87023380D01*
X142286309Y-86975761D01*
X142333928Y-86928142D01*
X142381547Y-86832904D01*
X142429166Y-86642428D01*
X142429166Y-86404333D01*
X142381547Y-86213857D01*
X142333928Y-86118619D01*
X142286309Y-86071000D01*
X142191071Y-86023380D01*
X149667261Y-87633380D02*
X149095833Y-87633380D01*
X149381547Y-88633380D02*
X149381547Y-87633380D01*
X148857738Y-87633380D02*
X148191071Y-88633380D01*
X148191071Y-87633380D02*
X148857738Y-88633380D01*
X147810119Y-88538142D02*
X147762500Y-88585761D01*
X147810119Y-88633380D01*
X147857738Y-88585761D01*
X147810119Y-88538142D01*
X147810119Y-88633380D01*
X147810119Y-88014333D02*
X147762500Y-88061952D01*
X147810119Y-88109571D01*
X147857738Y-88061952D01*
X147810119Y-88014333D01*
X147810119Y-88109571D01*
X146048214Y-87681000D02*
X146143452Y-87633380D01*
X146286309Y-87633380D01*
X146429166Y-87681000D01*
X146524404Y-87776238D01*
X146572023Y-87871476D01*
X146619642Y-88061952D01*
X146619642Y-88204809D01*
X146572023Y-88395285D01*
X146524404Y-88490523D01*
X146429166Y-88585761D01*
X146286309Y-88633380D01*
X146191071Y-88633380D01*
X146048214Y-88585761D01*
X146000595Y-88538142D01*
X146000595Y-88204809D01*
X146191071Y-88204809D01*
X145572023Y-88633380D02*
X145572023Y-87633380D01*
X145191071Y-87633380D01*
X145095833Y-87681000D01*
X145048214Y-87728619D01*
X145000595Y-87823857D01*
X145000595Y-87966714D01*
X145048214Y-88061952D01*
X145095833Y-88109571D01*
X145191071Y-88157190D01*
X145572023Y-88157190D01*
X144048214Y-88633380D02*
X144619642Y-88633380D01*
X144333928Y-88633380D02*
X144333928Y-87633380D01*
X144429166Y-87776238D01*
X144524404Y-87871476D01*
X144619642Y-87919095D01*
X143095833Y-88633380D02*
X143667261Y-88633380D01*
X143381547Y-88633380D02*
X143381547Y-87633380D01*
X143476785Y-87776238D01*
X143572023Y-87871476D01*
X143667261Y-87919095D01*
X149572023Y-91805761D02*
X149429166Y-91853380D01*
X149191071Y-91853380D01*
X149095833Y-91805761D01*
X149048214Y-91758142D01*
X149000595Y-91662904D01*
X149000595Y-91567666D01*
X149048214Y-91472428D01*
X149095833Y-91424809D01*
X149191071Y-91377190D01*
X149381547Y-91329571D01*
X149476785Y-91281952D01*
X149524404Y-91234333D01*
X149572023Y-91139095D01*
X149572023Y-91043857D01*
X149524404Y-90948619D01*
X149476785Y-90901000D01*
X149381547Y-90853380D01*
X149143452Y-90853380D01*
X149000595Y-90901000D01*
X148619642Y-91805761D02*
X148476785Y-91853380D01*
X148238690Y-91853380D01*
X148143452Y-91805761D01*
X148095833Y-91758142D01*
X148048214Y-91662904D01*
X148048214Y-91567666D01*
X148095833Y-91472428D01*
X148143452Y-91424809D01*
X148238690Y-91377190D01*
X148429166Y-91329571D01*
X148524404Y-91281952D01*
X148572023Y-91234333D01*
X148619642Y-91139095D01*
X148619642Y-91043857D01*
X148572023Y-90948619D01*
X148524404Y-90901000D01*
X148429166Y-90853380D01*
X148191071Y-90853380D01*
X148048214Y-90901000D01*
X147619642Y-91853380D02*
X147619642Y-90853380D01*
X147381547Y-90853380D01*
X147238690Y-90901000D01*
X147143452Y-90996238D01*
X147095833Y-91091476D01*
X147048214Y-91281952D01*
X147048214Y-91424809D01*
X147095833Y-91615285D01*
X147143452Y-91710523D01*
X147238690Y-91805761D01*
X147381547Y-91853380D01*
X147619642Y-91853380D01*
X146095833Y-91853380D02*
X146667261Y-91853380D01*
X146381547Y-91853380D02*
X146381547Y-90853380D01*
X146476785Y-90996238D01*
X146572023Y-91091476D01*
X146667261Y-91139095D01*
X145762500Y-90853380D02*
X145143452Y-90853380D01*
X145476785Y-91234333D01*
X145333928Y-91234333D01*
X145238690Y-91281952D01*
X145191071Y-91329571D01*
X145143452Y-91424809D01*
X145143452Y-91662904D01*
X145191071Y-91758142D01*
X145238690Y-91805761D01*
X145333928Y-91853380D01*
X145619642Y-91853380D01*
X145714880Y-91805761D01*
X145762500Y-91758142D01*
X144524404Y-90853380D02*
X144429166Y-90853380D01*
X144333928Y-90901000D01*
X144286309Y-90948619D01*
X144238690Y-91043857D01*
X144191071Y-91234333D01*
X144191071Y-91472428D01*
X144238690Y-91662904D01*
X144286309Y-91758142D01*
X144333928Y-91805761D01*
X144429166Y-91853380D01*
X144524404Y-91853380D01*
X144619642Y-91805761D01*
X144667261Y-91758142D01*
X144714880Y-91662904D01*
X144762500Y-91472428D01*
X144762500Y-91234333D01*
X144714880Y-91043857D01*
X144667261Y-90948619D01*
X144619642Y-90901000D01*
X144524404Y-90853380D01*
X143333928Y-90853380D02*
X143524404Y-90853380D01*
X143619642Y-90901000D01*
X143667261Y-90948619D01*
X143762500Y-91091476D01*
X143810119Y-91281952D01*
X143810119Y-91662904D01*
X143762500Y-91758142D01*
X143714880Y-91805761D01*
X143619642Y-91853380D01*
X143429166Y-91853380D01*
X143333928Y-91805761D01*
X143286309Y-91758142D01*
X143238690Y-91662904D01*
X143238690Y-91424809D01*
X143286309Y-91329571D01*
X143333928Y-91281952D01*
X143429166Y-91234333D01*
X143619642Y-91234333D01*
X143714880Y-91281952D01*
X143762500Y-91329571D01*
X143810119Y-91424809D01*
X142810119Y-91758142D02*
X142762500Y-91805761D01*
X142810119Y-91853380D01*
X142857738Y-91805761D01*
X142810119Y-91758142D01*
X142810119Y-91853380D01*
X142810119Y-91234333D02*
X142762500Y-91281952D01*
X142810119Y-91329571D01*
X142857738Y-91281952D01*
X142810119Y-91234333D01*
X142810119Y-91329571D01*
X141572023Y-91853380D02*
X141572023Y-90853380D01*
X141143452Y-90948619D02*
X141095833Y-90901000D01*
X141000595Y-90853380D01*
X140762500Y-90853380D01*
X140667261Y-90901000D01*
X140619642Y-90948619D01*
X140572023Y-91043857D01*
X140572023Y-91139095D01*
X140619642Y-91281952D01*
X141191071Y-91853380D01*
X140572023Y-91853380D01*
X139572023Y-91758142D02*
X139619642Y-91805761D01*
X139762500Y-91853380D01*
X139857738Y-91853380D01*
X140000595Y-91805761D01*
X140095833Y-91710523D01*
X140143452Y-91615285D01*
X140191071Y-91424809D01*
X140191071Y-91281952D01*
X140143452Y-91091476D01*
X140095833Y-90996238D01*
X140000595Y-90901000D01*
X139857738Y-90853380D01*
X139762500Y-90853380D01*
X139619642Y-90901000D01*
X139572023Y-90948619D01*
X138952976Y-90853380D02*
X138857738Y-90853380D01*
X138762500Y-90901000D01*
X138714880Y-90948619D01*
X138667261Y-91043857D01*
X138619642Y-91234333D01*
X138619642Y-91472428D01*
X138667261Y-91662904D01*
X138714880Y-91758142D01*
X138762500Y-91805761D01*
X138857738Y-91853380D01*
X138952976Y-91853380D01*
X139048214Y-91805761D01*
X139095833Y-91758142D01*
X139143452Y-91662904D01*
X139191071Y-91472428D01*
X139191071Y-91234333D01*
X139143452Y-91043857D01*
X139095833Y-90948619D01*
X139048214Y-90901000D01*
X138952976Y-90853380D01*
X149572023Y-93415761D02*
X149429166Y-93463380D01*
X149191071Y-93463380D01*
X149095833Y-93415761D01*
X149048214Y-93368142D01*
X149000595Y-93272904D01*
X149000595Y-93177666D01*
X149048214Y-93082428D01*
X149095833Y-93034809D01*
X149191071Y-92987190D01*
X149381547Y-92939571D01*
X149476785Y-92891952D01*
X149524404Y-92844333D01*
X149572023Y-92749095D01*
X149572023Y-92653857D01*
X149524404Y-92558619D01*
X149476785Y-92511000D01*
X149381547Y-92463380D01*
X149143452Y-92463380D01*
X149000595Y-92511000D01*
X148000595Y-93368142D02*
X148048214Y-93415761D01*
X148191071Y-93463380D01*
X148286309Y-93463380D01*
X148429166Y-93415761D01*
X148524404Y-93320523D01*
X148572023Y-93225285D01*
X148619642Y-93034809D01*
X148619642Y-92891952D01*
X148572023Y-92701476D01*
X148524404Y-92606238D01*
X148429166Y-92511000D01*
X148286309Y-92463380D01*
X148191071Y-92463380D01*
X148048214Y-92511000D01*
X148000595Y-92558619D01*
X147572023Y-93463380D02*
X147572023Y-92463380D01*
X147000595Y-93463380D02*
X147429166Y-92891952D01*
X147000595Y-92463380D02*
X147572023Y-93034809D01*
X146572023Y-93368142D02*
X146524404Y-93415761D01*
X146572023Y-93463380D01*
X146619642Y-93415761D01*
X146572023Y-93368142D01*
X146572023Y-93463380D01*
X146572023Y-92844333D02*
X146524404Y-92891952D01*
X146572023Y-92939571D01*
X146619642Y-92891952D01*
X146572023Y-92844333D01*
X146572023Y-92939571D01*
X144810119Y-92511000D02*
X144905357Y-92463380D01*
X145048214Y-92463380D01*
X145191071Y-92511000D01*
X145286309Y-92606238D01*
X145333928Y-92701476D01*
X145381547Y-92891952D01*
X145381547Y-93034809D01*
X145333928Y-93225285D01*
X145286309Y-93320523D01*
X145191071Y-93415761D01*
X145048214Y-93463380D01*
X144952976Y-93463380D01*
X144810119Y-93415761D01*
X144762500Y-93368142D01*
X144762500Y-93034809D01*
X144952976Y-93034809D01*
X144333928Y-93463380D02*
X144333928Y-92463380D01*
X143952976Y-92463380D01*
X143857738Y-92511000D01*
X143810119Y-92558619D01*
X143762500Y-92653857D01*
X143762500Y-92796714D01*
X143810119Y-92891952D01*
X143857738Y-92939571D01*
X143952976Y-92987190D01*
X144333928Y-92987190D01*
X143381547Y-92558619D02*
X143333928Y-92511000D01*
X143238690Y-92463380D01*
X143000595Y-92463380D01*
X142905357Y-92511000D01*
X142857738Y-92558619D01*
X142810119Y-92653857D01*
X142810119Y-92749095D01*
X142857738Y-92891952D01*
X143429166Y-93463380D01*
X142810119Y-93463380D01*
X141857738Y-93463380D02*
X142429166Y-93463380D01*
X142143452Y-93463380D02*
X142143452Y-92463380D01*
X142238690Y-92606238D01*
X142333928Y-92701476D01*
X142429166Y-92749095D01*
X149572023Y-95025761D02*
X149429166Y-95073380D01*
X149191071Y-95073380D01*
X149095833Y-95025761D01*
X149048214Y-94978142D01*
X149000595Y-94882904D01*
X149000595Y-94787666D01*
X149048214Y-94692428D01*
X149095833Y-94644809D01*
X149191071Y-94597190D01*
X149381547Y-94549571D01*
X149476785Y-94501952D01*
X149524404Y-94454333D01*
X149572023Y-94359095D01*
X149572023Y-94263857D01*
X149524404Y-94168619D01*
X149476785Y-94121000D01*
X149381547Y-94073380D01*
X149143452Y-94073380D01*
X149000595Y-94121000D01*
X148572023Y-95073380D02*
X148572023Y-94073380D01*
X148333928Y-94073380D01*
X148191071Y-94121000D01*
X148095833Y-94216238D01*
X148048214Y-94311476D01*
X148000595Y-94501952D01*
X148000595Y-94644809D01*
X148048214Y-94835285D01*
X148095833Y-94930523D01*
X148191071Y-95025761D01*
X148333928Y-95073380D01*
X148572023Y-95073380D01*
X147619642Y-94787666D02*
X147143452Y-94787666D01*
X147714880Y-95073380D02*
X147381547Y-94073380D01*
X147048214Y-95073380D01*
X146714880Y-94978142D02*
X146667261Y-95025761D01*
X146714880Y-95073380D01*
X146762500Y-95025761D01*
X146714880Y-94978142D01*
X146714880Y-95073380D01*
X146714880Y-94454333D02*
X146667261Y-94501952D01*
X146714880Y-94549571D01*
X146762500Y-94501952D01*
X146714880Y-94454333D01*
X146714880Y-94549571D01*
X144952976Y-94121000D02*
X145048214Y-94073380D01*
X145191071Y-94073380D01*
X145333928Y-94121000D01*
X145429166Y-94216238D01*
X145476785Y-94311476D01*
X145524404Y-94501952D01*
X145524404Y-94644809D01*
X145476785Y-94835285D01*
X145429166Y-94930523D01*
X145333928Y-95025761D01*
X145191071Y-95073380D01*
X145095833Y-95073380D01*
X144952976Y-95025761D01*
X144905357Y-94978142D01*
X144905357Y-94644809D01*
X145095833Y-94644809D01*
X144476785Y-95073380D02*
X144476785Y-94073380D01*
X144095833Y-94073380D01*
X144000595Y-94121000D01*
X143952976Y-94168619D01*
X143905357Y-94263857D01*
X143905357Y-94406714D01*
X143952976Y-94501952D01*
X144000595Y-94549571D01*
X144095833Y-94597190D01*
X144476785Y-94597190D01*
X143524404Y-94168619D02*
X143476785Y-94121000D01*
X143381547Y-94073380D01*
X143143452Y-94073380D01*
X143048214Y-94121000D01*
X143000595Y-94168619D01*
X142952976Y-94263857D01*
X142952976Y-94359095D01*
X143000595Y-94501952D01*
X143572023Y-95073380D01*
X142952976Y-95073380D01*
X142333928Y-94073380D02*
X142238690Y-94073380D01*
X142143452Y-94121000D01*
X142095833Y-94168619D01*
X142048214Y-94263857D01*
X142000595Y-94454333D01*
X142000595Y-94692428D01*
X142048214Y-94882904D01*
X142095833Y-94978142D01*
X142143452Y-95025761D01*
X142238690Y-95073380D01*
X142333928Y-95073380D01*
X142429166Y-95025761D01*
X142476785Y-94978142D01*
X142524404Y-94882904D01*
X142572023Y-94692428D01*
X142572023Y-94454333D01*
X142524404Y-94263857D01*
X142476785Y-94168619D01*
X142429166Y-94121000D01*
X142333928Y-94073380D01*
D11*
%TO.C,G\u002A\u002A\u002A*%
X111578571Y-86614000D02*
X111723714Y-86541428D01*
X111941428Y-86541428D01*
X112159142Y-86614000D01*
X112304285Y-86759142D01*
X112376857Y-86904285D01*
X112449428Y-87194571D01*
X112449428Y-87412285D01*
X112376857Y-87702571D01*
X112304285Y-87847714D01*
X112159142Y-87992857D01*
X111941428Y-88065428D01*
X111796285Y-88065428D01*
X111578571Y-87992857D01*
X111506000Y-87920285D01*
X111506000Y-87412285D01*
X111796285Y-87412285D01*
X110635142Y-86541428D02*
X110635142Y-86904285D01*
X110998000Y-86759142D02*
X110635142Y-86904285D01*
X110272285Y-86759142D01*
X110852857Y-87194571D02*
X110635142Y-86904285D01*
X110417428Y-87194571D01*
X109474000Y-86541428D02*
X109474000Y-86904285D01*
X109836857Y-86759142D02*
X109474000Y-86904285D01*
X109111142Y-86759142D01*
X109691714Y-87194571D02*
X109474000Y-86904285D01*
X109256285Y-87194571D01*
X108312857Y-86541428D02*
X108312857Y-86904285D01*
X108675714Y-86759142D02*
X108312857Y-86904285D01*
X107950000Y-86759142D01*
X108530571Y-87194571D02*
X108312857Y-86904285D01*
X108095142Y-87194571D01*
D10*
%TO.C,J6*%
X157424380Y-63397523D02*
X156424380Y-63397523D01*
X156424380Y-63635619D01*
X156472000Y-63778476D01*
X156567238Y-63873714D01*
X156662476Y-63921333D01*
X156852952Y-63968952D01*
X156995809Y-63968952D01*
X157186285Y-63921333D01*
X157281523Y-63873714D01*
X157376761Y-63778476D01*
X157424380Y-63635619D01*
X157424380Y-63397523D01*
X157424380Y-64540380D02*
X157376761Y-64445142D01*
X157329142Y-64397523D01*
X157233904Y-64349904D01*
X156948190Y-64349904D01*
X156852952Y-64397523D01*
X156805333Y-64445142D01*
X156757714Y-64540380D01*
X156757714Y-64683238D01*
X156805333Y-64778476D01*
X156852952Y-64826095D01*
X156948190Y-64873714D01*
X157233904Y-64873714D01*
X157329142Y-64826095D01*
X157376761Y-64778476D01*
X157424380Y-64683238D01*
X157424380Y-64540380D01*
X156757714Y-65159428D02*
X156757714Y-65540380D01*
X156424380Y-65302285D02*
X157281523Y-65302285D01*
X157376761Y-65349904D01*
X157424380Y-65445142D01*
X157424380Y-65540380D01*
X157376761Y-65826095D02*
X157424380Y-65968952D01*
X157424380Y-66207047D01*
X157376761Y-66302285D01*
X157329142Y-66349904D01*
X157233904Y-66397523D01*
X157138666Y-66397523D01*
X157043428Y-66349904D01*
X156995809Y-66302285D01*
X156948190Y-66207047D01*
X156900571Y-66016571D01*
X156852952Y-65921333D01*
X156805333Y-65873714D01*
X156710095Y-65826095D01*
X156614857Y-65826095D01*
X156519619Y-65873714D01*
X156472000Y-65921333D01*
X156424380Y-66016571D01*
X156424380Y-66254666D01*
X156472000Y-66397523D01*
X156757714Y-66683238D02*
X156757714Y-67064190D01*
X156424380Y-66826095D02*
X157281523Y-66826095D01*
X157376761Y-66873714D01*
X157424380Y-66968952D01*
X157424380Y-67064190D01*
X157424380Y-67826095D02*
X156900571Y-67826095D01*
X156805333Y-67778476D01*
X156757714Y-67683238D01*
X156757714Y-67492761D01*
X156805333Y-67397523D01*
X157376761Y-67826095D02*
X157424380Y-67730857D01*
X157424380Y-67492761D01*
X157376761Y-67397523D01*
X157281523Y-67349904D01*
X157186285Y-67349904D01*
X157091047Y-67397523D01*
X157043428Y-67492761D01*
X157043428Y-67730857D01*
X156995809Y-67826095D01*
X157424380Y-68302285D02*
X156757714Y-68302285D01*
X156948190Y-68302285D02*
X156852952Y-68349904D01*
X156805333Y-68397523D01*
X156757714Y-68492761D01*
X156757714Y-68588000D01*
X157424380Y-69445142D02*
X157424380Y-68873714D01*
X157424380Y-69159428D02*
X156424380Y-69159428D01*
X156567238Y-69064190D01*
X156662476Y-68968952D01*
X156710095Y-68873714D01*
X156376761Y-70588000D02*
X157662476Y-69730857D01*
X157424380Y-70921333D02*
X156424380Y-70921333D01*
X157043428Y-71016571D02*
X157424380Y-71302285D01*
X156757714Y-71302285D02*
X157138666Y-70921333D01*
X157329142Y-71730857D02*
X157376761Y-71778476D01*
X157424380Y-71730857D01*
X157376761Y-71683238D01*
X157329142Y-71730857D01*
X157424380Y-71730857D01*
X156805333Y-71730857D02*
X156852952Y-71778476D01*
X156900571Y-71730857D01*
X156852952Y-71683238D01*
X156805333Y-71730857D01*
X156900571Y-71730857D01*
X156472000Y-72730857D02*
X156424380Y-72635619D01*
X156424380Y-72492761D01*
X156472000Y-72349904D01*
X156567238Y-72254666D01*
X156662476Y-72207047D01*
X156852952Y-72159428D01*
X156995809Y-72159428D01*
X157186285Y-72207047D01*
X157281523Y-72254666D01*
X157376761Y-72349904D01*
X157424380Y-72492761D01*
X157424380Y-72588000D01*
X157376761Y-72730857D01*
X157329142Y-72778476D01*
X156995809Y-72778476D01*
X156995809Y-72588000D01*
X157424380Y-73207047D02*
X156424380Y-73207047D01*
X157424380Y-73778476D01*
X156424380Y-73778476D01*
X157424380Y-74254666D02*
X156424380Y-74254666D01*
X156424380Y-74492761D01*
X156472000Y-74635619D01*
X156567238Y-74730857D01*
X156662476Y-74778476D01*
X156852952Y-74826095D01*
X156995809Y-74826095D01*
X157186285Y-74778476D01*
X157281523Y-74730857D01*
X157376761Y-74635619D01*
X157424380Y-74492761D01*
X157424380Y-74254666D01*
%TO.C,J7*%
X157932380Y-87273523D02*
X156932380Y-87273523D01*
X156932380Y-87511619D01*
X156980000Y-87654476D01*
X157075238Y-87749714D01*
X157170476Y-87797333D01*
X157360952Y-87844952D01*
X157503809Y-87844952D01*
X157694285Y-87797333D01*
X157789523Y-87749714D01*
X157884761Y-87654476D01*
X157932380Y-87511619D01*
X157932380Y-87273523D01*
X157932380Y-88416380D02*
X157884761Y-88321142D01*
X157837142Y-88273523D01*
X157741904Y-88225904D01*
X157456190Y-88225904D01*
X157360952Y-88273523D01*
X157313333Y-88321142D01*
X157265714Y-88416380D01*
X157265714Y-88559238D01*
X157313333Y-88654476D01*
X157360952Y-88702095D01*
X157456190Y-88749714D01*
X157741904Y-88749714D01*
X157837142Y-88702095D01*
X157884761Y-88654476D01*
X157932380Y-88559238D01*
X157932380Y-88416380D01*
X157265714Y-89035428D02*
X157265714Y-89416380D01*
X156932380Y-89178285D02*
X157789523Y-89178285D01*
X157884761Y-89225904D01*
X157932380Y-89321142D01*
X157932380Y-89416380D01*
X157884761Y-89702095D02*
X157932380Y-89844952D01*
X157932380Y-90083047D01*
X157884761Y-90178285D01*
X157837142Y-90225904D01*
X157741904Y-90273523D01*
X157646666Y-90273523D01*
X157551428Y-90225904D01*
X157503809Y-90178285D01*
X157456190Y-90083047D01*
X157408571Y-89892571D01*
X157360952Y-89797333D01*
X157313333Y-89749714D01*
X157218095Y-89702095D01*
X157122857Y-89702095D01*
X157027619Y-89749714D01*
X156980000Y-89797333D01*
X156932380Y-89892571D01*
X156932380Y-90130666D01*
X156980000Y-90273523D01*
X157265714Y-90559238D02*
X157265714Y-90940190D01*
X156932380Y-90702095D02*
X157789523Y-90702095D01*
X157884761Y-90749714D01*
X157932380Y-90844952D01*
X157932380Y-90940190D01*
X157932380Y-91702095D02*
X157408571Y-91702095D01*
X157313333Y-91654476D01*
X157265714Y-91559238D01*
X157265714Y-91368761D01*
X157313333Y-91273523D01*
X157884761Y-91702095D02*
X157932380Y-91606857D01*
X157932380Y-91368761D01*
X157884761Y-91273523D01*
X157789523Y-91225904D01*
X157694285Y-91225904D01*
X157599047Y-91273523D01*
X157551428Y-91368761D01*
X157551428Y-91606857D01*
X157503809Y-91702095D01*
X157932380Y-92178285D02*
X157265714Y-92178285D01*
X157456190Y-92178285D02*
X157360952Y-92225904D01*
X157313333Y-92273523D01*
X157265714Y-92368761D01*
X157265714Y-92464000D01*
X157027619Y-92749714D02*
X156980000Y-92797333D01*
X156932380Y-92892571D01*
X156932380Y-93130666D01*
X156980000Y-93225904D01*
X157027619Y-93273523D01*
X157122857Y-93321142D01*
X157218095Y-93321142D01*
X157360952Y-93273523D01*
X157932380Y-92702095D01*
X157932380Y-93321142D01*
X156884761Y-94464000D02*
X158170476Y-93606857D01*
X157932380Y-94797333D02*
X156932380Y-94797333D01*
X157551428Y-94892571D02*
X157932380Y-95178285D01*
X157265714Y-95178285D02*
X157646666Y-94797333D01*
X157837142Y-95606857D02*
X157884761Y-95654476D01*
X157932380Y-95606857D01*
X157884761Y-95559238D01*
X157837142Y-95606857D01*
X157932380Y-95606857D01*
X157313333Y-95606857D02*
X157360952Y-95654476D01*
X157408571Y-95606857D01*
X157360952Y-95559238D01*
X157313333Y-95606857D01*
X157408571Y-95606857D01*
X156980000Y-96606857D02*
X156932380Y-96511619D01*
X156932380Y-96368761D01*
X156980000Y-96225904D01*
X157075238Y-96130666D01*
X157170476Y-96083047D01*
X157360952Y-96035428D01*
X157503809Y-96035428D01*
X157694285Y-96083047D01*
X157789523Y-96130666D01*
X157884761Y-96225904D01*
X157932380Y-96368761D01*
X157932380Y-96464000D01*
X157884761Y-96606857D01*
X157837142Y-96654476D01*
X157503809Y-96654476D01*
X157503809Y-96464000D01*
X157932380Y-97083047D02*
X156932380Y-97083047D01*
X157932380Y-97654476D01*
X156932380Y-97654476D01*
X157932380Y-98130666D02*
X156932380Y-98130666D01*
X156932380Y-98368761D01*
X156980000Y-98511619D01*
X157075238Y-98606857D01*
X157170476Y-98654476D01*
X157360952Y-98702095D01*
X157503809Y-98702095D01*
X157694285Y-98654476D01*
X157789523Y-98606857D01*
X157884761Y-98511619D01*
X157932380Y-98368761D01*
X157932380Y-98130666D01*
%TO.C,J2*%
X101544619Y-78652380D02*
X102544619Y-78652380D01*
X101830333Y-78319047D01*
X102544619Y-77985714D01*
X101544619Y-77985714D01*
X101544619Y-77509523D02*
X102544619Y-77509523D01*
X101544619Y-77033333D02*
X102544619Y-77033333D01*
X102544619Y-76795238D01*
X102497000Y-76652380D01*
X102401761Y-76557142D01*
X102306523Y-76509523D01*
X102116047Y-76461904D01*
X101973190Y-76461904D01*
X101782714Y-76509523D01*
X101687476Y-76557142D01*
X101592238Y-76652380D01*
X101544619Y-76795238D01*
X101544619Y-77033333D01*
X101544619Y-76033333D02*
X102544619Y-76033333D01*
X101544619Y-74795238D02*
X102544619Y-74795238D01*
X101544619Y-74319047D02*
X102544619Y-74319047D01*
X101544619Y-73747619D01*
X102544619Y-73747619D01*
%TO.C,J3*%
X101544619Y-107251047D02*
X102544619Y-107251047D01*
X101830333Y-106917714D01*
X102544619Y-106584380D01*
X101544619Y-106584380D01*
X101544619Y-106108190D02*
X102544619Y-106108190D01*
X101544619Y-105632000D02*
X102544619Y-105632000D01*
X102544619Y-105393904D01*
X102497000Y-105251047D01*
X102401761Y-105155809D01*
X102306523Y-105108190D01*
X102116047Y-105060571D01*
X101973190Y-105060571D01*
X101782714Y-105108190D01*
X101687476Y-105155809D01*
X101592238Y-105251047D01*
X101544619Y-105393904D01*
X101544619Y-105632000D01*
X101544619Y-104632000D02*
X102544619Y-104632000D01*
X102544619Y-103536761D02*
X102544619Y-102965333D01*
X101544619Y-103251047D02*
X102544619Y-103251047D01*
X101544619Y-102632000D02*
X102544619Y-102632000D01*
X102068428Y-102632000D02*
X102068428Y-102060571D01*
X101544619Y-102060571D02*
X102544619Y-102060571D01*
X101544619Y-101012952D02*
X102020809Y-101346285D01*
X101544619Y-101584380D02*
X102544619Y-101584380D01*
X102544619Y-101203428D01*
X102497000Y-101108190D01*
X102449380Y-101060571D01*
X102354142Y-101012952D01*
X102211285Y-101012952D01*
X102116047Y-101060571D01*
X102068428Y-101108190D01*
X102020809Y-101203428D01*
X102020809Y-101584380D01*
X102544619Y-100584380D02*
X101735095Y-100584380D01*
X101639857Y-100536761D01*
X101592238Y-100489142D01*
X101544619Y-100393904D01*
X101544619Y-100203428D01*
X101592238Y-100108190D01*
X101639857Y-100060571D01*
X101735095Y-100012952D01*
X102544619Y-100012952D01*
%TO.C,J4*%
X94672380Y-112419428D02*
X93672380Y-112419428D01*
X94386666Y-112752761D01*
X93672380Y-113086095D01*
X94672380Y-113086095D01*
X94672380Y-113562285D02*
X93672380Y-113562285D01*
X94672380Y-114038476D02*
X93672380Y-114038476D01*
X93672380Y-114276571D01*
X93720000Y-114419428D01*
X93815238Y-114514666D01*
X93910476Y-114562285D01*
X94100952Y-114609904D01*
X94243809Y-114609904D01*
X94434285Y-114562285D01*
X94529523Y-114514666D01*
X94624761Y-114419428D01*
X94672380Y-114276571D01*
X94672380Y-114038476D01*
X94672380Y-115038476D02*
X93672380Y-115038476D01*
X94005714Y-116133714D02*
X94005714Y-116514666D01*
X93672380Y-116276571D02*
X94529523Y-116276571D01*
X94624761Y-116324190D01*
X94672380Y-116419428D01*
X94672380Y-116514666D01*
X94672380Y-116848000D02*
X93672380Y-116848000D01*
X94672380Y-117276571D02*
X94148571Y-117276571D01*
X94053333Y-117228952D01*
X94005714Y-117133714D01*
X94005714Y-116990857D01*
X94053333Y-116895619D01*
X94100952Y-116848000D01*
X94672380Y-117752761D02*
X94005714Y-117752761D01*
X94196190Y-117752761D02*
X94100952Y-117800380D01*
X94053333Y-117848000D01*
X94005714Y-117943238D01*
X94005714Y-118038476D01*
X94005714Y-118800380D02*
X94672380Y-118800380D01*
X94005714Y-118371809D02*
X94529523Y-118371809D01*
X94624761Y-118419428D01*
X94672380Y-118514666D01*
X94672380Y-118657523D01*
X94624761Y-118752761D01*
X94577142Y-118800380D01*
X93672380Y-119895619D02*
X93672380Y-120467047D01*
X94672380Y-120181333D02*
X93672380Y-120181333D01*
X94672380Y-121371809D02*
X94196190Y-121038476D01*
X94672380Y-120800380D02*
X93672380Y-120800380D01*
X93672380Y-121181333D01*
X93720000Y-121276571D01*
X93767619Y-121324190D01*
X93862857Y-121371809D01*
X94005714Y-121371809D01*
X94100952Y-121324190D01*
X94148571Y-121276571D01*
X94196190Y-121181333D01*
X94196190Y-120800380D01*
X94624761Y-121752761D02*
X94672380Y-121895619D01*
X94672380Y-122133714D01*
X94624761Y-122228952D01*
X94577142Y-122276571D01*
X94481904Y-122324190D01*
X94386666Y-122324190D01*
X94291428Y-122276571D01*
X94243809Y-122228952D01*
X94196190Y-122133714D01*
X94148571Y-121943238D01*
X94100952Y-121848000D01*
X94053333Y-121800380D01*
X93958095Y-121752761D01*
X93862857Y-121752761D01*
X93767619Y-121800380D01*
X93720000Y-121848000D01*
X93672380Y-121943238D01*
X93672380Y-122181333D01*
X93720000Y-122324190D01*
%TO.C,J8*%
X165019809Y-117938571D02*
X164876952Y-117986190D01*
X164829333Y-118033809D01*
X164781714Y-118129047D01*
X164781714Y-118271904D01*
X164829333Y-118367142D01*
X164876952Y-118414761D01*
X164972190Y-118462380D01*
X165353142Y-118462380D01*
X165353142Y-117462380D01*
X165019809Y-117462380D01*
X164924571Y-117510000D01*
X164876952Y-117557619D01*
X164829333Y-117652857D01*
X164829333Y-117748095D01*
X164876952Y-117843333D01*
X164924571Y-117890952D01*
X165019809Y-117938571D01*
X165353142Y-117938571D01*
X163924571Y-118462380D02*
X163924571Y-117938571D01*
X163972190Y-117843333D01*
X164067428Y-117795714D01*
X164257904Y-117795714D01*
X164353142Y-117843333D01*
X163924571Y-118414761D02*
X164019809Y-118462380D01*
X164257904Y-118462380D01*
X164353142Y-118414761D01*
X164400761Y-118319523D01*
X164400761Y-118224285D01*
X164353142Y-118129047D01*
X164257904Y-118081428D01*
X164019809Y-118081428D01*
X163924571Y-118033809D01*
X163448380Y-118462380D02*
X163448380Y-117795714D01*
X163448380Y-117986190D02*
X163400761Y-117890952D01*
X163353142Y-117843333D01*
X163257904Y-117795714D01*
X163162666Y-117795714D01*
X162829333Y-118462380D02*
X162829333Y-117795714D01*
X162829333Y-117986190D02*
X162781714Y-117890952D01*
X162734095Y-117843333D01*
X162638857Y-117795714D01*
X162543619Y-117795714D01*
X161829333Y-118414761D02*
X161924571Y-118462380D01*
X162115047Y-118462380D01*
X162210285Y-118414761D01*
X162257904Y-118319523D01*
X162257904Y-117938571D01*
X162210285Y-117843333D01*
X162115047Y-117795714D01*
X161924571Y-117795714D01*
X161829333Y-117843333D01*
X161781714Y-117938571D01*
X161781714Y-118033809D01*
X162257904Y-118129047D01*
X161210285Y-118462380D02*
X161305523Y-118414761D01*
X161353142Y-118319523D01*
X161353142Y-117462380D01*
X161067428Y-118557619D02*
X160305523Y-118557619D01*
X159781714Y-117462380D02*
X159781714Y-118176666D01*
X159829333Y-118319523D01*
X159924571Y-118414761D01*
X160067428Y-118462380D01*
X160162666Y-118462380D01*
X158876952Y-118462380D02*
X158876952Y-117938571D01*
X158924571Y-117843333D01*
X159019809Y-117795714D01*
X159210285Y-117795714D01*
X159305523Y-117843333D01*
X158876952Y-118414761D02*
X158972190Y-118462380D01*
X159210285Y-118462380D01*
X159305523Y-118414761D01*
X159353142Y-118319523D01*
X159353142Y-118224285D01*
X159305523Y-118129047D01*
X159210285Y-118081428D01*
X158972190Y-118081428D01*
X158876952Y-118033809D01*
X157972190Y-118414761D02*
X158067428Y-118462380D01*
X158257904Y-118462380D01*
X158353142Y-118414761D01*
X158400761Y-118367142D01*
X158448380Y-118271904D01*
X158448380Y-117986190D01*
X158400761Y-117890952D01*
X158353142Y-117843333D01*
X158257904Y-117795714D01*
X158067428Y-117795714D01*
X157972190Y-117843333D01*
X157543619Y-118462380D02*
X157543619Y-117462380D01*
X157448380Y-118081428D02*
X157162666Y-118462380D01*
X157162666Y-117795714D02*
X157543619Y-118176666D01*
X156972190Y-118557619D02*
X156210285Y-118557619D01*
X156019809Y-118414761D02*
X155876952Y-118462380D01*
X155638857Y-118462380D01*
X155543619Y-118414761D01*
X155496000Y-118367142D01*
X155448380Y-118271904D01*
X155448380Y-118176666D01*
X155496000Y-118081428D01*
X155543619Y-118033809D01*
X155638857Y-117986190D01*
X155829333Y-117938571D01*
X155924571Y-117890952D01*
X155972190Y-117843333D01*
X156019809Y-117748095D01*
X156019809Y-117652857D01*
X155972190Y-117557619D01*
X155924571Y-117510000D01*
X155829333Y-117462380D01*
X155591238Y-117462380D01*
X155448380Y-117510000D01*
X155115047Y-117795714D02*
X154924571Y-118462380D01*
X154734095Y-117986190D01*
X154543619Y-118462380D01*
X154353142Y-117795714D01*
X153972190Y-118462380D02*
X153972190Y-117795714D01*
X153972190Y-117462380D02*
X154019809Y-117510000D01*
X153972190Y-117557619D01*
X153924571Y-117510000D01*
X153972190Y-117462380D01*
X153972190Y-117557619D01*
X153638857Y-117795714D02*
X153257904Y-117795714D01*
X153496000Y-117462380D02*
X153496000Y-118319523D01*
X153448380Y-118414761D01*
X153353142Y-118462380D01*
X153257904Y-118462380D01*
X152496000Y-118414761D02*
X152591238Y-118462380D01*
X152781714Y-118462380D01*
X152876952Y-118414761D01*
X152924571Y-118367142D01*
X152972190Y-118271904D01*
X152972190Y-117986190D01*
X152924571Y-117890952D01*
X152876952Y-117843333D01*
X152781714Y-117795714D01*
X152591238Y-117795714D01*
X152496000Y-117843333D01*
X152067428Y-118462380D02*
X152067428Y-117462380D01*
X151638857Y-118462380D02*
X151638857Y-117938571D01*
X151686476Y-117843333D01*
X151781714Y-117795714D01*
X151924571Y-117795714D01*
X152019809Y-117843333D01*
X152067428Y-117890952D01*
%TO.C,J1*%
X94785380Y-85739452D02*
X93785380Y-85739452D01*
X94499666Y-86072785D01*
X93785380Y-86406119D01*
X94785380Y-86406119D01*
X94785380Y-86882309D02*
X93785380Y-86882309D01*
X94785380Y-87358500D02*
X93785380Y-87358500D01*
X93785380Y-87596595D01*
X93833000Y-87739452D01*
X93928238Y-87834690D01*
X94023476Y-87882309D01*
X94213952Y-87929928D01*
X94356809Y-87929928D01*
X94547285Y-87882309D01*
X94642523Y-87834690D01*
X94737761Y-87739452D01*
X94785380Y-87596595D01*
X94785380Y-87358500D01*
X94785380Y-88358500D02*
X93785380Y-88358500D01*
X94785380Y-89596595D02*
X94118714Y-89596595D01*
X93785380Y-89596595D02*
X93833000Y-89548976D01*
X93880619Y-89596595D01*
X93833000Y-89644214D01*
X93785380Y-89596595D01*
X93880619Y-89596595D01*
X94118714Y-90072785D02*
X94785380Y-90072785D01*
X94213952Y-90072785D02*
X94166333Y-90120404D01*
X94118714Y-90215642D01*
X94118714Y-90358500D01*
X94166333Y-90453738D01*
X94261571Y-90501357D01*
X94785380Y-90501357D01*
X93785380Y-91596595D02*
X93785380Y-92168023D01*
X94785380Y-91882309D02*
X93785380Y-91882309D01*
X94785380Y-93072785D02*
X94309190Y-92739452D01*
X94785380Y-92501357D02*
X93785380Y-92501357D01*
X93785380Y-92882309D01*
X93833000Y-92977547D01*
X93880619Y-93025166D01*
X93975857Y-93072785D01*
X94118714Y-93072785D01*
X94213952Y-93025166D01*
X94261571Y-92977547D01*
X94309190Y-92882309D01*
X94309190Y-92501357D01*
X94737761Y-93453738D02*
X94785380Y-93596595D01*
X94785380Y-93834690D01*
X94737761Y-93929928D01*
X94690142Y-93977547D01*
X94594904Y-94025166D01*
X94499666Y-94025166D01*
X94404428Y-93977547D01*
X94356809Y-93929928D01*
X94309190Y-93834690D01*
X94261571Y-93644214D01*
X94213952Y-93548976D01*
X94166333Y-93501357D01*
X94071095Y-93453738D01*
X93975857Y-93453738D01*
X93880619Y-93501357D01*
X93833000Y-93548976D01*
X93785380Y-93644214D01*
X93785380Y-93882309D01*
X93833000Y-94025166D01*
%TO.C,J10*%
X118808380Y-124399571D02*
X118665523Y-124447190D01*
X118617904Y-124494809D01*
X118570285Y-124590047D01*
X118570285Y-124732904D01*
X118617904Y-124828142D01*
X118665523Y-124875761D01*
X118760761Y-124923380D01*
X119141714Y-124923380D01*
X119141714Y-123923380D01*
X118808380Y-123923380D01*
X118713142Y-123971000D01*
X118665523Y-124018619D01*
X118617904Y-124113857D01*
X118617904Y-124209095D01*
X118665523Y-124304333D01*
X118713142Y-124351952D01*
X118808380Y-124399571D01*
X119141714Y-124399571D01*
X117713142Y-124923380D02*
X117713142Y-124399571D01*
X117760761Y-124304333D01*
X117856000Y-124256714D01*
X118046476Y-124256714D01*
X118141714Y-124304333D01*
X117713142Y-124875761D02*
X117808380Y-124923380D01*
X118046476Y-124923380D01*
X118141714Y-124875761D01*
X118189333Y-124780523D01*
X118189333Y-124685285D01*
X118141714Y-124590047D01*
X118046476Y-124542428D01*
X117808380Y-124542428D01*
X117713142Y-124494809D01*
X117379809Y-124256714D02*
X116998857Y-124256714D01*
X117236952Y-123923380D02*
X117236952Y-124780523D01*
X117189333Y-124875761D01*
X117094095Y-124923380D01*
X116998857Y-124923380D01*
X116808380Y-124256714D02*
X116427428Y-124256714D01*
X116665523Y-123923380D02*
X116665523Y-124780523D01*
X116617904Y-124875761D01*
X116522666Y-124923380D01*
X116427428Y-124923380D01*
%TO.C,G\u002A\u002A\u002A*%
G36*
X102350911Y-77242284D02*
G01*
X102389646Y-77269050D01*
X102434694Y-77319681D01*
X102453234Y-77344414D01*
X102549085Y-77465423D01*
X102674542Y-77615717D01*
X102825072Y-77790318D01*
X102996140Y-77984247D01*
X103183215Y-78192527D01*
X103381763Y-78410177D01*
X103587249Y-78632221D01*
X103795142Y-78853679D01*
X104000908Y-79069572D01*
X104200014Y-79274923D01*
X104387925Y-79464753D01*
X104536618Y-79612029D01*
X105099676Y-80149638D01*
X105653748Y-80646740D01*
X106197904Y-81102726D01*
X106731218Y-81516989D01*
X107252761Y-81888920D01*
X107761605Y-82217910D01*
X108256822Y-82503353D01*
X108737485Y-82744638D01*
X109202664Y-82941159D01*
X109651433Y-83092307D01*
X110082863Y-83197473D01*
X110101852Y-83201097D01*
X110380616Y-83243092D01*
X110701279Y-83273218D01*
X111057699Y-83291752D01*
X111443732Y-83298971D01*
X111853237Y-83295151D01*
X112280070Y-83280569D01*
X112718090Y-83255500D01*
X113161154Y-83220221D01*
X113603120Y-83175008D01*
X114037844Y-83120138D01*
X114459185Y-83055886D01*
X114861000Y-82982530D01*
X115080631Y-82937015D01*
X115655260Y-82800607D01*
X116192152Y-82646927D01*
X116689789Y-82476630D01*
X117146652Y-82290371D01*
X117561223Y-82088804D01*
X117931984Y-81872583D01*
X118257416Y-81642362D01*
X118536000Y-81398797D01*
X118552153Y-81382960D01*
X118616272Y-81318023D01*
X118643497Y-81277097D01*
X118630928Y-81251133D01*
X118575664Y-81231083D01*
X118474804Y-81207898D01*
X118441024Y-81197499D01*
X118424731Y-81179663D01*
X118448491Y-81162883D01*
X118506325Y-81150348D01*
X118592250Y-81145250D01*
X118596659Y-81145242D01*
X118668102Y-81148675D01*
X118702256Y-81162075D01*
X118711000Y-81189910D01*
X118711132Y-81193603D01*
X118725936Y-81221561D01*
X118771841Y-81243889D01*
X118858219Y-81265389D01*
X118934462Y-81281679D01*
X119284289Y-81367797D01*
X119661946Y-81477039D01*
X120056462Y-81605344D01*
X120456865Y-81748650D01*
X120852185Y-81902897D01*
X121231450Y-82064022D01*
X121583688Y-82227964D01*
X121897928Y-82390661D01*
X122275293Y-82615081D01*
X122655235Y-82875791D01*
X123032937Y-83171158D01*
X123411492Y-83503905D01*
X123793992Y-83876753D01*
X124183532Y-84292425D01*
X124583204Y-84753641D01*
X124643041Y-84825811D01*
X124758904Y-84968656D01*
X124880678Y-85122199D01*
X125004658Y-85281455D01*
X125127136Y-85441439D01*
X125244408Y-85597166D01*
X125352765Y-85743653D01*
X125448503Y-85875914D01*
X125527915Y-85988965D01*
X125587294Y-86077821D01*
X125622935Y-86137497D01*
X125631130Y-86163010D01*
X125625901Y-86162659D01*
X125589141Y-86143205D01*
X125526268Y-86102282D01*
X125447070Y-86046106D01*
X125309597Y-85946768D01*
X125099500Y-85800333D01*
X124888356Y-85658979D01*
X124682948Y-85526941D01*
X124490059Y-85408454D01*
X124316472Y-85307752D01*
X124168970Y-85229070D01*
X124054336Y-85176642D01*
X123928621Y-85132058D01*
X123731745Y-85074779D01*
X123508488Y-85020840D01*
X123272142Y-84973388D01*
X123036000Y-84935570D01*
X122958121Y-84926841D01*
X122843736Y-84917293D01*
X122705005Y-84907886D01*
X122549353Y-84898914D01*
X122384206Y-84890671D01*
X122216988Y-84883452D01*
X122055124Y-84877550D01*
X121906040Y-84873261D01*
X121777160Y-84870878D01*
X121675910Y-84870695D01*
X121609715Y-84873007D01*
X121586000Y-84878109D01*
X121586133Y-84878949D01*
X121596067Y-84910432D01*
X121619972Y-84980737D01*
X121655293Y-85082493D01*
X121699472Y-85208327D01*
X121749952Y-85350865D01*
X121987343Y-86042186D01*
X122274332Y-86950355D01*
X122534297Y-87860061D01*
X122765791Y-88765209D01*
X122967370Y-89659700D01*
X123137587Y-90537437D01*
X123274997Y-91392325D01*
X123378155Y-92218266D01*
X123391105Y-92366016D01*
X123404242Y-92586566D01*
X123414161Y-92839971D01*
X123420862Y-93117029D01*
X123424346Y-93408542D01*
X123424616Y-93705308D01*
X123421672Y-93998129D01*
X123415515Y-94277803D01*
X123406147Y-94535132D01*
X123393568Y-94760914D01*
X123377781Y-94945951D01*
X123342987Y-95249661D01*
X123234109Y-96020411D01*
X123096761Y-96770294D01*
X122927663Y-97516002D01*
X122723532Y-98274227D01*
X122714927Y-98303921D01*
X122651837Y-98518154D01*
X122586849Y-98732257D01*
X122518501Y-98950488D01*
X122445328Y-99177104D01*
X122365868Y-99416361D01*
X122278658Y-99672517D01*
X122182234Y-99949827D01*
X122075133Y-100252550D01*
X121955892Y-100584942D01*
X121823048Y-100951260D01*
X121675137Y-101355760D01*
X121510697Y-101802700D01*
X121388213Y-102134978D01*
X121264334Y-102471611D01*
X121154534Y-102770794D01*
X121057019Y-103037544D01*
X120969993Y-103276880D01*
X120891662Y-103493821D01*
X120820228Y-103693383D01*
X120753899Y-103880586D01*
X120690877Y-104060448D01*
X120629368Y-104237987D01*
X120567577Y-104418222D01*
X120503709Y-104606170D01*
X120435967Y-104806850D01*
X120425552Y-104837709D01*
X120237525Y-105370068D01*
X120039575Y-105882688D01*
X119827478Y-106384771D01*
X119597009Y-106885518D01*
X119343941Y-107394131D01*
X119064051Y-107919813D01*
X118753111Y-108471764D01*
X118555963Y-108807123D01*
X118227720Y-109342842D01*
X117870939Y-109900941D01*
X117490544Y-110474396D01*
X117091459Y-111056181D01*
X116678605Y-111639271D01*
X116256908Y-112216642D01*
X115831289Y-112781267D01*
X115406673Y-113326123D01*
X114987983Y-113844183D01*
X114913626Y-113933263D01*
X114850435Y-114006845D01*
X114805458Y-114056852D01*
X114785366Y-114075661D01*
X114783290Y-114071241D01*
X114776205Y-114028452D01*
X114766489Y-113945965D01*
X114754880Y-113830897D01*
X114742117Y-113690364D01*
X114728936Y-113531483D01*
X114714940Y-113361391D01*
X114660667Y-112782877D01*
X114594112Y-112172907D01*
X114516953Y-111544051D01*
X114430869Y-110908882D01*
X114337540Y-110279971D01*
X114238644Y-109669889D01*
X114135861Y-109091209D01*
X114095931Y-108878957D01*
X114023728Y-108506257D01*
X113951895Y-108151534D01*
X113878525Y-107806567D01*
X113801715Y-107463136D01*
X113719559Y-107113022D01*
X113630153Y-106748003D01*
X113531592Y-106359860D01*
X113421972Y-105940372D01*
X113299387Y-105481320D01*
X113240402Y-105253276D01*
X113145703Y-104847622D01*
X113053343Y-104401543D01*
X112963218Y-103914240D01*
X112875226Y-103384909D01*
X112789264Y-102812752D01*
X112705230Y-102196966D01*
X112623022Y-101536750D01*
X112542536Y-100831304D01*
X112463671Y-100079826D01*
X112386323Y-99281515D01*
X112310390Y-98435571D01*
X112235771Y-97541192D01*
X112162361Y-96597576D01*
X112119324Y-96015298D01*
X112069842Y-95318195D01*
X112022449Y-94618192D01*
X111976912Y-93911005D01*
X111932997Y-93192347D01*
X111890470Y-92457932D01*
X111849097Y-91703473D01*
X111808644Y-90924685D01*
X111768877Y-90117280D01*
X111729561Y-89276974D01*
X111690464Y-88399479D01*
X111651351Y-87480510D01*
X111611988Y-86515780D01*
X111607289Y-86401573D01*
X111600404Y-86245370D01*
X111593953Y-86111431D01*
X111588296Y-86006693D01*
X111583789Y-85938094D01*
X111580793Y-85912572D01*
X111574900Y-85916057D01*
X111536184Y-85945118D01*
X111464858Y-86000892D01*
X111364977Y-86080141D01*
X111240596Y-86179628D01*
X111095770Y-86296116D01*
X110934553Y-86426367D01*
X110761000Y-86567143D01*
X110696565Y-86619395D01*
X110518587Y-86762475D01*
X110356141Y-86891240D01*
X110213059Y-87002760D01*
X110093173Y-87094100D01*
X110000314Y-87162330D01*
X109938312Y-87204515D01*
X109911000Y-87217725D01*
X109897399Y-87211040D01*
X109844299Y-87180372D01*
X109756355Y-87127497D01*
X109638083Y-87055196D01*
X109494001Y-86966249D01*
X109328627Y-86863438D01*
X109146479Y-86749545D01*
X108952074Y-86627351D01*
X108822270Y-86545704D01*
X108637533Y-86430050D01*
X108469007Y-86325187D01*
X108321030Y-86233779D01*
X108197941Y-86158491D01*
X108104079Y-86101985D01*
X108043783Y-86066925D01*
X108021392Y-86055976D01*
X108015490Y-86075593D01*
X107996361Y-86141919D01*
X107964383Y-86253766D01*
X107919951Y-86409742D01*
X107863460Y-86608452D01*
X107795303Y-86848502D01*
X107715876Y-87128497D01*
X107625572Y-87447044D01*
X107524786Y-87802749D01*
X107413912Y-88194218D01*
X107293345Y-88620056D01*
X107163479Y-89078870D01*
X107024708Y-89569264D01*
X106877428Y-90089847D01*
X106722032Y-90639222D01*
X106558914Y-91215996D01*
X106388470Y-91818776D01*
X106211093Y-92446166D01*
X106027178Y-93096774D01*
X105837120Y-93769204D01*
X105641312Y-94462062D01*
X105440150Y-95173956D01*
X105234027Y-95903490D01*
X105023338Y-96649270D01*
X104808477Y-97409903D01*
X104589839Y-98183994D01*
X104367818Y-98970149D01*
X104168740Y-99674998D01*
X103949686Y-100450325D01*
X103734328Y-101212308D01*
X103523063Y-101959554D01*
X103316285Y-102690669D01*
X103114391Y-103404261D01*
X102917776Y-104098938D01*
X102726836Y-104773305D01*
X102541965Y-105425971D01*
X102363560Y-106055543D01*
X102192016Y-106660627D01*
X102027728Y-107239830D01*
X101871093Y-107791761D01*
X101722506Y-108315025D01*
X101582361Y-108808230D01*
X101451056Y-109269984D01*
X101328984Y-109698892D01*
X101216543Y-110093563D01*
X101114127Y-110452604D01*
X101022132Y-110774621D01*
X100940953Y-111058222D01*
X100870987Y-111302014D01*
X100812628Y-111504604D01*
X100766272Y-111664598D01*
X100732315Y-111780606D01*
X100711151Y-111851232D01*
X100703178Y-111875085D01*
X100678769Y-111860726D01*
X100624445Y-111811648D01*
X100545529Y-111731795D01*
X100445784Y-111625416D01*
X100328974Y-111496759D01*
X100198864Y-111350075D01*
X100059216Y-111189611D01*
X99913796Y-111019616D01*
X99766367Y-110844339D01*
X99620692Y-110668029D01*
X99480537Y-110494936D01*
X99323146Y-110295833D01*
X98888778Y-109720281D01*
X98466162Y-109122422D01*
X98058538Y-108507932D01*
X97669145Y-107882486D01*
X97301224Y-107251760D01*
X96958014Y-106621430D01*
X96642756Y-105997171D01*
X96358689Y-105384659D01*
X96109054Y-104789569D01*
X95897089Y-104217576D01*
X95767988Y-103825608D01*
X95594679Y-103235523D01*
X95441651Y-102628767D01*
X95307924Y-102000132D01*
X95192520Y-101344407D01*
X95094458Y-100656384D01*
X95012759Y-99930851D01*
X94946442Y-99162601D01*
X94944207Y-99131536D01*
X94932532Y-98931459D01*
X94922126Y-98689244D01*
X94913051Y-98411583D01*
X94905370Y-98105166D01*
X94899144Y-97776684D01*
X94894436Y-97432830D01*
X94891309Y-97080293D01*
X94889823Y-96725765D01*
X94890042Y-96375937D01*
X94892028Y-96037501D01*
X94895842Y-95717147D01*
X94901548Y-95421566D01*
X94909207Y-95157450D01*
X94913320Y-95041905D01*
X94927278Y-94668119D01*
X94942055Y-94297899D01*
X94957419Y-93935889D01*
X94973136Y-93586737D01*
X94988971Y-93255088D01*
X95004691Y-92945588D01*
X95020063Y-92662884D01*
X95034853Y-92411622D01*
X95048826Y-92196447D01*
X95061750Y-92022006D01*
X95073391Y-91892946D01*
X95094230Y-91703264D01*
X95177789Y-91081542D01*
X95286124Y-90452180D01*
X95420835Y-89807309D01*
X95583524Y-89139055D01*
X95775792Y-88439547D01*
X95789378Y-88393290D01*
X95831772Y-88254041D01*
X95886769Y-88078547D01*
X95952809Y-87871465D01*
X96028334Y-87637455D01*
X96111787Y-87381174D01*
X96201609Y-87107280D01*
X96296241Y-86820432D01*
X96394126Y-86525287D01*
X96493704Y-86226504D01*
X96593418Y-85928740D01*
X96691709Y-85636654D01*
X96787019Y-85354904D01*
X96877789Y-85088148D01*
X96962462Y-84841044D01*
X97039479Y-84618250D01*
X97107281Y-84424425D01*
X97164310Y-84264225D01*
X97209009Y-84142311D01*
X97239818Y-84063339D01*
X97366755Y-83774697D01*
X97565500Y-83366141D01*
X97791296Y-82942697D01*
X98038102Y-82514743D01*
X98299877Y-82092654D01*
X98570581Y-81686807D01*
X98844171Y-81307578D01*
X98903785Y-81226580D01*
X98968801Y-81130506D01*
X99002217Y-81068312D01*
X99003065Y-81041620D01*
X98994589Y-81037980D01*
X98939582Y-81020929D01*
X98845895Y-80995919D01*
X98721191Y-80964725D01*
X98573134Y-80929121D01*
X98409387Y-80890880D01*
X98237612Y-80851777D01*
X98065473Y-80813586D01*
X97900633Y-80778082D01*
X97750754Y-80747037D01*
X97623500Y-80722227D01*
X97340571Y-80672897D01*
X96928207Y-80615008D01*
X96550977Y-80580672D01*
X96203697Y-80569331D01*
X96102673Y-80570373D01*
X95903195Y-80580414D01*
X95715998Y-80603119D01*
X95532062Y-80640943D01*
X95342366Y-80696341D01*
X95137888Y-80771769D01*
X94909606Y-80869679D01*
X94648500Y-80992529D01*
X94592312Y-81019934D01*
X94311954Y-81161446D01*
X94041903Y-81306712D01*
X93765659Y-81464842D01*
X93466724Y-81644943D01*
X93463777Y-81646753D01*
X93364100Y-81706410D01*
X93280772Y-81753384D01*
X93222435Y-81782997D01*
X93197734Y-81790569D01*
X93197487Y-81790263D01*
X93209164Y-81765588D01*
X93251564Y-81711455D01*
X93319739Y-81633057D01*
X93408737Y-81535589D01*
X93513609Y-81424242D01*
X93629405Y-81304209D01*
X93751175Y-81180683D01*
X93873968Y-81058857D01*
X93992834Y-80943924D01*
X94102825Y-80841077D01*
X94172944Y-80777202D01*
X94542441Y-80450989D01*
X94888807Y-80163826D01*
X95215444Y-79913196D01*
X95525754Y-79696583D01*
X95823139Y-79511470D01*
X96111000Y-79355340D01*
X96183460Y-79319485D01*
X96334243Y-79248060D01*
X96490446Y-79178765D01*
X96656364Y-79110113D01*
X96836288Y-79040612D01*
X97034511Y-78968772D01*
X97255325Y-78893105D01*
X97503023Y-78812120D01*
X97781897Y-78724328D01*
X98096240Y-78628238D01*
X98450343Y-78522361D01*
X98848500Y-78405206D01*
X98907010Y-78388084D01*
X99344808Y-78258998D01*
X99740044Y-78140513D01*
X100097909Y-78030920D01*
X100423596Y-77928506D01*
X100722294Y-77831562D01*
X100999195Y-77738377D01*
X101259491Y-77647238D01*
X101508373Y-77556437D01*
X101751032Y-77464261D01*
X101992660Y-77369000D01*
X102025357Y-77355956D01*
X102141205Y-77310863D01*
X102239299Y-77274371D01*
X102310135Y-77249938D01*
X102344208Y-77241025D01*
X102350911Y-77242284D01*
G37*
G36*
X125251510Y-76934224D02*
G01*
X125457730Y-77005147D01*
X125644006Y-77064431D01*
X125813752Y-77113365D01*
X125970383Y-77153239D01*
X126027926Y-77165753D01*
X126157041Y-77190007D01*
X126317744Y-77217067D01*
X126498709Y-77245298D01*
X126688609Y-77273065D01*
X126876115Y-77298732D01*
X127049901Y-77320664D01*
X127198638Y-77337225D01*
X127311000Y-77346781D01*
X127321751Y-77347496D01*
X127393583Y-77357823D01*
X127422399Y-77375992D01*
X127407123Y-77402954D01*
X127346681Y-77439662D01*
X127239998Y-77487066D01*
X127086000Y-77546120D01*
X126659549Y-77701870D01*
X126091822Y-77907724D01*
X125562117Y-78097966D01*
X125071370Y-78272273D01*
X124620519Y-78430322D01*
X124210500Y-78571792D01*
X123842251Y-78696360D01*
X123516707Y-78803703D01*
X123234806Y-78893499D01*
X122997485Y-78965426D01*
X122805680Y-79019161D01*
X122558393Y-79084128D01*
X122164120Y-79186460D01*
X121785621Y-79283167D01*
X121425846Y-79373558D01*
X121087745Y-79456943D01*
X120774268Y-79532631D01*
X120488365Y-79599933D01*
X120232986Y-79658156D01*
X120011082Y-79706611D01*
X119825601Y-79744608D01*
X119679494Y-79771455D01*
X119575711Y-79786462D01*
X119517203Y-79788938D01*
X119479775Y-79789164D01*
X119446895Y-79806629D01*
X119411659Y-79850799D01*
X119364237Y-79930790D01*
X119222390Y-80153361D01*
X119023116Y-80405534D01*
X118790709Y-80648040D01*
X118626053Y-80796289D01*
X118369436Y-80994154D01*
X118097032Y-81163545D01*
X117800592Y-81308846D01*
X117471863Y-81434438D01*
X117102595Y-81544705D01*
X116922335Y-81590098D01*
X116597526Y-81659705D01*
X116254812Y-81717435D01*
X115883650Y-81764963D01*
X115473500Y-81803968D01*
X115355174Y-81811435D01*
X115090127Y-81816289D01*
X114804476Y-81808336D01*
X114515683Y-81788594D01*
X114241204Y-81758083D01*
X113998500Y-81717823D01*
X113919827Y-81701257D01*
X113628376Y-81626499D01*
X113368878Y-81534660D01*
X113135084Y-81421231D01*
X112920743Y-81281706D01*
X112719604Y-81111576D01*
X112525415Y-80906334D01*
X112331927Y-80661472D01*
X112132888Y-80372483D01*
X112100659Y-80322037D01*
X111991395Y-80138823D01*
X111873963Y-79926460D01*
X111755251Y-79698439D01*
X111642146Y-79468247D01*
X111541537Y-79249375D01*
X111460312Y-79055310D01*
X111418430Y-78951056D01*
X111377530Y-78855045D01*
X111345048Y-78784927D01*
X111325616Y-78751164D01*
X111295085Y-78732228D01*
X111217980Y-78702000D01*
X111103844Y-78665942D01*
X110959438Y-78625701D01*
X110791524Y-78582922D01*
X110606865Y-78539250D01*
X110412220Y-78496333D01*
X110214354Y-78455815D01*
X110020027Y-78419344D01*
X109836000Y-78388564D01*
X109826123Y-78387038D01*
X109704048Y-78369393D01*
X109589786Y-78355876D01*
X109473706Y-78345961D01*
X109346171Y-78339121D01*
X109197548Y-78334828D01*
X109018202Y-78332554D01*
X108798500Y-78331773D01*
X108511918Y-78333137D01*
X108263697Y-78338465D01*
X108046398Y-78348746D01*
X107850496Y-78364971D01*
X107666463Y-78388127D01*
X107484774Y-78419203D01*
X107295902Y-78459189D01*
X107090321Y-78509072D01*
X107064404Y-78513733D01*
X107053250Y-78505742D01*
X107059581Y-78476954D01*
X107085183Y-78419462D01*
X107131844Y-78325358D01*
X107196908Y-78193696D01*
X107311675Y-77946239D01*
X107407257Y-77713746D01*
X107487438Y-77484838D01*
X109546036Y-77484838D01*
X109548764Y-77577091D01*
X109583772Y-77679685D01*
X109642306Y-77773779D01*
X109715550Y-77840855D01*
X109800631Y-77879019D01*
X109920591Y-77893946D01*
X110036223Y-77870457D01*
X110138665Y-77813926D01*
X110219050Y-77729726D01*
X110268514Y-77623231D01*
X110278193Y-77499813D01*
X110275483Y-77478151D01*
X110237085Y-77356456D01*
X110168395Y-77264969D01*
X110077826Y-77203863D01*
X109973789Y-77173308D01*
X109864697Y-77173478D01*
X109758963Y-77204543D01*
X109665000Y-77266677D01*
X109591220Y-77360052D01*
X109546036Y-77484838D01*
X107487438Y-77484838D01*
X107488002Y-77483228D01*
X107558257Y-77241694D01*
X107622370Y-76976155D01*
X107684689Y-76673621D01*
X107713099Y-76524361D01*
X107721543Y-76477262D01*
X108411825Y-76477262D01*
X108430596Y-76595888D01*
X108490811Y-76703401D01*
X108592022Y-76790717D01*
X108602143Y-76796654D01*
X108719966Y-76836323D01*
X108844012Y-76831153D01*
X108934071Y-76795216D01*
X113841377Y-76795216D01*
X113841636Y-76970840D01*
X113860021Y-77123690D01*
X113878081Y-77198018D01*
X113964135Y-77419365D01*
X114014191Y-77499813D01*
X114091019Y-77623287D01*
X114252439Y-77803521D01*
X114442101Y-77953807D01*
X114653713Y-78067882D01*
X114880981Y-78139485D01*
X114936569Y-78149789D01*
X115187671Y-78166457D01*
X115433234Y-78134991D01*
X115668190Y-78056955D01*
X115887469Y-77933915D01*
X116086000Y-77767435D01*
X116199098Y-77641419D01*
X116324666Y-77452094D01*
X116407455Y-77248238D01*
X116450090Y-77022749D01*
X116455196Y-76768526D01*
X116454760Y-76759832D01*
X116417907Y-76505240D01*
X116337406Y-76271919D01*
X116216282Y-76063328D01*
X116057556Y-75882924D01*
X115864253Y-75734166D01*
X115639393Y-75620510D01*
X115386000Y-75545415D01*
X115201910Y-75522762D01*
X114966916Y-75535462D01*
X114738475Y-75591752D01*
X114522658Y-75688107D01*
X114325542Y-75821002D01*
X114153198Y-75986913D01*
X114011702Y-76182313D01*
X113907127Y-76403679D01*
X113889792Y-76458831D01*
X113881844Y-76498379D01*
X113857882Y-76617614D01*
X113841377Y-76795216D01*
X108934071Y-76795216D01*
X108964311Y-76783149D01*
X109070896Y-76694319D01*
X109078242Y-76685294D01*
X109115828Y-76603467D01*
X109132519Y-76498379D01*
X109126962Y-76389940D01*
X109097806Y-76298060D01*
X109082944Y-76273246D01*
X109000355Y-76187236D01*
X108894330Y-76132178D01*
X108777507Y-76110847D01*
X108662524Y-76126016D01*
X108562021Y-76180459D01*
X108500396Y-76243012D01*
X108434942Y-76356609D01*
X108411825Y-76477262D01*
X107721543Y-76477262D01*
X107762713Y-76247628D01*
X107800914Y-76006681D01*
X107828731Y-75793060D01*
X107847193Y-75598300D01*
X107857332Y-75413939D01*
X107860175Y-75231516D01*
X107859350Y-74901222D01*
X107641425Y-74796625D01*
X107589591Y-74771274D01*
X107205754Y-74553680D01*
X106837499Y-74292891D01*
X106489924Y-73994100D01*
X106168130Y-73662500D01*
X105877217Y-73303283D01*
X105622284Y-72921644D01*
X105408432Y-72522774D01*
X105391125Y-72485540D01*
X105282372Y-72225840D01*
X105175976Y-71929917D01*
X105075469Y-71609672D01*
X104984379Y-71277005D01*
X104906237Y-70943818D01*
X104890891Y-70863730D01*
X108204284Y-70863730D01*
X108207865Y-71033418D01*
X108225879Y-71197574D01*
X108257722Y-71337017D01*
X108337479Y-71528459D01*
X108467470Y-71732013D01*
X108631432Y-71910713D01*
X108822466Y-72058361D01*
X109033676Y-72168762D01*
X109258163Y-72235718D01*
X109287018Y-72240853D01*
X109543602Y-72259516D01*
X109793311Y-72230173D01*
X110030900Y-72154435D01*
X110251126Y-72033914D01*
X110448744Y-71870217D01*
X110554920Y-71751351D01*
X110687496Y-71549661D01*
X110777043Y-71336857D01*
X110825575Y-71117703D01*
X110835108Y-70896961D01*
X110807658Y-70679393D01*
X110745240Y-70469763D01*
X110649869Y-70272832D01*
X110523561Y-70093364D01*
X110368331Y-69936122D01*
X110186194Y-69805868D01*
X109979167Y-69707364D01*
X109749264Y-69645374D01*
X109498500Y-69624661D01*
X109263782Y-69646835D01*
X109027271Y-69714478D01*
X108810677Y-69824037D01*
X108618567Y-69971947D01*
X108455512Y-70154647D01*
X108326080Y-70368572D01*
X108234840Y-70610160D01*
X108215740Y-70707691D01*
X108204284Y-70863730D01*
X104890891Y-70863730D01*
X104844575Y-70622010D01*
X104834101Y-70550974D01*
X104816375Y-70377533D01*
X104804041Y-70177823D01*
X104797106Y-69962704D01*
X104795577Y-69743036D01*
X104799460Y-69529679D01*
X104808761Y-69333494D01*
X104823487Y-69165341D01*
X104843643Y-69036080D01*
X104868717Y-68926432D01*
X104975604Y-68560182D01*
X105116550Y-68208283D01*
X105295065Y-67863726D01*
X105514658Y-67519505D01*
X105778838Y-67168611D01*
X105876080Y-67050378D01*
X106215809Y-66673136D01*
X106562774Y-66343517D01*
X106919321Y-66059778D01*
X107287796Y-65820176D01*
X107670547Y-65622967D01*
X108069921Y-65466408D01*
X108164621Y-65436227D01*
X108339496Y-65386993D01*
X108517274Y-65343958D01*
X108685466Y-65309803D01*
X108831584Y-65287213D01*
X108943137Y-65278868D01*
X108967187Y-65278322D01*
X109034398Y-65271711D01*
X109073500Y-65260100D01*
X109075865Y-65256451D01*
X109083746Y-65212615D01*
X109090375Y-65123882D01*
X109095576Y-64994282D01*
X109099174Y-64827848D01*
X109100993Y-64628611D01*
X109101500Y-64551326D01*
X109113796Y-64085874D01*
X109142475Y-63658069D01*
X109188499Y-63259260D01*
X109252831Y-62880797D01*
X109336434Y-62514030D01*
X109357781Y-62432474D01*
X109399080Y-62284902D01*
X109442271Y-62147412D01*
X109490285Y-62013352D01*
X109546055Y-61876069D01*
X109612511Y-61728909D01*
X109692584Y-61565219D01*
X109789207Y-61378345D01*
X109905310Y-61161634D01*
X110043825Y-60908433D01*
X110086498Y-60831059D01*
X110196016Y-60633366D01*
X110315296Y-60419121D01*
X110441898Y-60192626D01*
X110573384Y-59958185D01*
X110707312Y-59720101D01*
X110841245Y-59482676D01*
X110972741Y-59250213D01*
X111099362Y-59027016D01*
X111218668Y-58817387D01*
X111328219Y-58625630D01*
X111425576Y-58456048D01*
X111508298Y-58312943D01*
X111573948Y-58200619D01*
X111620085Y-58123378D01*
X111644269Y-58085524D01*
X111650260Y-58077701D01*
X111659943Y-58068287D01*
X111668322Y-58068597D01*
X111675785Y-58082657D01*
X111682720Y-58114493D01*
X111689514Y-58168130D01*
X111696555Y-58247595D01*
X111704230Y-58356914D01*
X111712929Y-58500112D01*
X111723037Y-58681215D01*
X111734944Y-58904250D01*
X111749037Y-59173241D01*
X111767689Y-59512032D01*
X111805032Y-60104048D01*
X111847206Y-60676267D01*
X111893830Y-61225332D01*
X111944522Y-61747881D01*
X111998900Y-62240557D01*
X112056584Y-62699999D01*
X112117193Y-63122850D01*
X112180344Y-63505748D01*
X112245656Y-63845335D01*
X112312748Y-64138252D01*
X112337221Y-64233047D01*
X112364153Y-64330194D01*
X112392859Y-64423337D01*
X112426353Y-64520800D01*
X112467649Y-64630904D01*
X112519762Y-64761971D01*
X112585708Y-64922325D01*
X112668501Y-65120287D01*
X112769233Y-65373023D01*
X112885615Y-65693589D01*
X113002536Y-66043350D01*
X113116670Y-66411538D01*
X113224692Y-66787381D01*
X113323278Y-67160110D01*
X113409101Y-67518956D01*
X113419597Y-67565472D01*
X113447786Y-67688829D01*
X113472003Y-67792596D01*
X113489951Y-67867018D01*
X113499336Y-67902340D01*
X113512099Y-67897904D01*
X113553535Y-67860648D01*
X113619772Y-67792108D01*
X113706995Y-67696386D01*
X113811392Y-67577585D01*
X113929150Y-67439810D01*
X114347520Y-66944239D01*
X114378147Y-67081450D01*
X114395452Y-67161355D01*
X114437535Y-67372078D01*
X114481695Y-67612738D01*
X114526149Y-67872067D01*
X114569111Y-68138795D01*
X114608799Y-68401649D01*
X114643429Y-68649362D01*
X114671217Y-68870663D01*
X114690380Y-69054280D01*
X114699788Y-69175939D01*
X114706403Y-69323980D01*
X114706796Y-69476293D01*
X114700939Y-69648002D01*
X114688800Y-69854235D01*
X114685121Y-69907793D01*
X114660431Y-70220224D01*
X114629112Y-70556313D01*
X114593245Y-70896961D01*
X114592786Y-70901323D01*
X114553074Y-71240517D01*
X114511598Y-71559157D01*
X114469980Y-71842507D01*
X114453207Y-71951507D01*
X114435094Y-72076919D01*
X114421893Y-72177830D01*
X114414672Y-72245945D01*
X114414502Y-72272970D01*
X114429743Y-72275304D01*
X114489296Y-72279754D01*
X114587940Y-72285474D01*
X114719432Y-72292209D01*
X114877530Y-72299703D01*
X115055991Y-72307701D01*
X115248573Y-72315947D01*
X115449034Y-72324187D01*
X115651131Y-72332164D01*
X115848622Y-72339625D01*
X116035264Y-72346313D01*
X116204816Y-72351973D01*
X116351034Y-72356351D01*
X116467676Y-72359190D01*
X116548500Y-72360235D01*
X116551895Y-72360237D01*
X116681514Y-72358205D01*
X116828756Y-72352900D01*
X116962403Y-72345438D01*
X117151526Y-72343953D01*
X117403409Y-72367539D01*
X117696498Y-72417742D01*
X118030261Y-72494451D01*
X118404166Y-72597558D01*
X118817680Y-72726952D01*
X118955159Y-72772979D01*
X119148296Y-72840940D01*
X119337461Y-72912102D01*
X119530683Y-72989830D01*
X119735992Y-73077489D01*
X119961419Y-73178441D01*
X120214992Y-73296050D01*
X120504742Y-73433680D01*
X120597990Y-73478367D01*
X120815439Y-73582756D01*
X120993181Y-73668508D01*
X121135176Y-73737682D01*
X121245387Y-73792337D01*
X121327774Y-73834530D01*
X121386299Y-73866321D01*
X121424923Y-73889768D01*
X121447607Y-73906930D01*
X121458312Y-73919865D01*
X121461000Y-73930632D01*
X121456166Y-73938878D01*
X121428934Y-73948488D01*
X121372997Y-73955404D01*
X121283033Y-73959992D01*
X121153725Y-73962616D01*
X120979750Y-73963641D01*
X120879009Y-73964145D01*
X120630540Y-73968488D01*
X120410413Y-73976933D01*
X120222231Y-73989142D01*
X120069597Y-74004775D01*
X119956112Y-74023493D01*
X119885379Y-74044958D01*
X119861000Y-74068832D01*
X119862109Y-74073627D01*
X119887872Y-74111893D01*
X119942888Y-74175413D01*
X120020663Y-74257741D01*
X120114697Y-74352433D01*
X120218495Y-74453045D01*
X120325560Y-74553133D01*
X120429394Y-74646253D01*
X120523500Y-74725960D01*
X120854074Y-74977054D01*
X121212828Y-75209314D01*
X121594091Y-75415120D01*
X122011000Y-75602209D01*
X122018716Y-75605382D01*
X122111912Y-75644119D01*
X122243214Y-75699204D01*
X122405541Y-75767643D01*
X122591813Y-75846440D01*
X122794951Y-75932602D01*
X123007873Y-76023135D01*
X123223500Y-76115042D01*
X123404166Y-76191977D01*
X123801750Y-76359841D01*
X124158905Y-76508321D01*
X124479044Y-76638709D01*
X124765581Y-76752295D01*
X124808006Y-76768526D01*
X125021932Y-76850370D01*
X125251510Y-76934224D01*
G37*
D12*
%TO.C,J6*%
X166380000Y-66540000D02*
X162020000Y-66540000D01*
X164120000Y-65240000D02*
X166380000Y-65240000D01*
X160160000Y-65180000D02*
X160160000Y-64900000D01*
X158560000Y-73180000D02*
X160160000Y-73180000D01*
X160160000Y-73180000D02*
X160160000Y-72900000D01*
X158560000Y-64900000D02*
X158560000Y-63980000D01*
X162520000Y-72340000D02*
X162520000Y-73340000D01*
X164120000Y-65740000D02*
X162520000Y-65740000D01*
X164120000Y-65740000D02*
X166380000Y-65740000D01*
X162520000Y-65740000D02*
X162520000Y-64740000D01*
X164120000Y-73340000D02*
X164120000Y-72340000D01*
X162520000Y-73340000D02*
X164120000Y-73340000D01*
X162020000Y-71540000D02*
X166380000Y-71540000D01*
X164120000Y-72340000D02*
X162520000Y-72340000D01*
X162520000Y-64740000D02*
X164120000Y-64740000D01*
X160160000Y-65180000D02*
X158945000Y-65180000D01*
X160160000Y-63980000D02*
X160160000Y-64900000D01*
X166380000Y-63980000D02*
X166380000Y-74100000D01*
X160160000Y-74100000D02*
X160160000Y-73180000D01*
X166380000Y-74100000D02*
X158560000Y-74100000D01*
X158560000Y-74100000D02*
X158560000Y-73180000D01*
X162020000Y-66540000D02*
X162020000Y-71540000D01*
X158560000Y-63980000D02*
X166380000Y-63980000D01*
X164120000Y-64740000D02*
X164120000Y-65740000D01*
X160160000Y-64900000D02*
X158560000Y-64900000D01*
%TO.C,J7*%
X160160000Y-88390000D02*
X160160000Y-88110000D01*
X164120000Y-88950000D02*
X162520000Y-88950000D01*
X160160000Y-96390000D02*
X160160000Y-96110000D01*
X160160000Y-97310000D02*
X160160000Y-96390000D01*
X158560000Y-88110000D02*
X158560000Y-87190000D01*
X158560000Y-97310000D02*
X158560000Y-96390000D01*
X164120000Y-88450000D02*
X166380000Y-88450000D01*
X160160000Y-88110000D02*
X158560000Y-88110000D01*
X162520000Y-95550000D02*
X162520000Y-96550000D01*
X164120000Y-96550000D02*
X164120000Y-95550000D01*
X160160000Y-88390000D02*
X158945000Y-88390000D01*
X162520000Y-88950000D02*
X162520000Y-87950000D01*
X166380000Y-89750000D02*
X162020000Y-89750000D01*
X164120000Y-88950000D02*
X166380000Y-88950000D01*
X162520000Y-87950000D02*
X164120000Y-87950000D01*
X162020000Y-94750000D02*
X166380000Y-94750000D01*
X160160000Y-87190000D02*
X160160000Y-88110000D01*
X166380000Y-97310000D02*
X158560000Y-97310000D01*
X166380000Y-87190000D02*
X166380000Y-97310000D01*
X164120000Y-87950000D02*
X164120000Y-88950000D01*
X158560000Y-87190000D02*
X166380000Y-87190000D01*
X164120000Y-95550000D02*
X162520000Y-95550000D01*
X162520000Y-96550000D02*
X164120000Y-96550000D01*
X158560000Y-96390000D02*
X160160000Y-96390000D01*
X162020000Y-89750000D02*
X162020000Y-94750000D01*
%TO.C,J2*%
X90297000Y-76200000D02*
X90297000Y-66040000D01*
X90297000Y-66040000D02*
X91567000Y-66040000D01*
X91567000Y-66040000D02*
X91567000Y-67310000D01*
X91567000Y-85090000D02*
X91567000Y-86360000D01*
X91567000Y-86360000D02*
X90297000Y-86360000D01*
X91567000Y-67310000D02*
X106807000Y-67310000D01*
X106807000Y-67310000D02*
X106807000Y-85090000D01*
X106807000Y-85090000D02*
X91567000Y-85090000D01*
X90297000Y-86360000D02*
X90297000Y-76200000D01*
%TO.C,J3*%
X106807000Y-94742000D02*
X106807000Y-112522000D01*
X106807000Y-112522000D02*
X91567000Y-112522000D01*
X91567000Y-94742000D02*
X106807000Y-94742000D01*
X91567000Y-113792000D02*
X90297000Y-113792000D01*
X91567000Y-93472000D02*
X91567000Y-94742000D01*
X90297000Y-113792000D02*
X90297000Y-103632000D01*
X91567000Y-112522000D02*
X91567000Y-113792000D01*
X90297000Y-103632000D02*
X90297000Y-93472000D01*
X90297000Y-93472000D02*
X91567000Y-93472000D01*
%TO.C,J4*%
X93220000Y-114300000D02*
X93220000Y-114808000D01*
X104396000Y-114300000D02*
X93220000Y-114300000D01*
X90172000Y-114808000D02*
X90172000Y-119888000D01*
X93220000Y-119888000D02*
X93220000Y-120269000D01*
X104396000Y-120269000D02*
X104396000Y-114300000D01*
X90172000Y-119888000D02*
X93220000Y-119888000D01*
X93220000Y-114808000D02*
X90172000Y-114808000D01*
X93220000Y-120269000D02*
X104396000Y-120269000D01*
%TO.C,J8*%
X165496000Y-117110000D02*
X165496000Y-114310000D01*
X165736000Y-117350000D02*
X165736000Y-115610000D01*
X165496000Y-107910000D02*
X163496000Y-107910000D01*
X159896000Y-107910000D02*
X150896000Y-107910000D01*
X165496000Y-110710000D02*
X165496000Y-107910000D01*
X150896000Y-117110000D02*
X165496000Y-117110000D01*
X150896000Y-107910000D02*
X150896000Y-117110000D01*
X163996000Y-117350000D02*
X165736000Y-117350000D01*
%TO.C,J1*%
X93333000Y-92398500D02*
X93333000Y-92779500D01*
X93333000Y-87318500D02*
X90285000Y-87318500D01*
X104509000Y-92779500D02*
X104509000Y-86810500D01*
X93333000Y-92779500D02*
X104509000Y-92779500D01*
X93333000Y-86810500D02*
X93333000Y-87318500D01*
X90285000Y-87318500D02*
X90285000Y-92398500D01*
X90285000Y-92398500D02*
X93333000Y-92398500D01*
X104509000Y-86810500D02*
X93333000Y-86810500D01*
%TO.C,J10*%
X121656000Y-117421000D02*
X121656000Y-118171000D01*
X118356000Y-118171000D02*
X117356000Y-118171000D01*
X121956000Y-117121000D02*
X121956000Y-118371000D01*
X121666000Y-123381000D02*
X114046000Y-123381000D01*
X117356000Y-117421000D02*
X118356000Y-117421000D01*
X121656000Y-119671000D02*
X120906000Y-119671000D01*
X121666000Y-117411000D02*
X121666000Y-123381000D01*
X119856000Y-118171000D02*
X119856000Y-117421000D01*
X114056000Y-119671000D02*
X114806000Y-119671000D01*
X114046000Y-123381000D02*
X114046000Y-117411000D01*
X118356000Y-117421000D02*
X118356000Y-118171000D01*
X120706000Y-117121000D02*
X121956000Y-117121000D01*
X114046000Y-117411000D02*
X121666000Y-117411000D01*
X114056000Y-118171000D02*
X114056000Y-117421000D01*
X114806000Y-119671000D02*
X114806000Y-122621000D01*
X121656000Y-118171000D02*
X119856000Y-118171000D01*
X119856000Y-117421000D02*
X121656000Y-117421000D01*
X120906000Y-119671000D02*
X120906000Y-122621000D01*
X114806000Y-122621000D02*
X117856000Y-122621000D01*
X115856000Y-118171000D02*
X114056000Y-118171000D01*
X117356000Y-118171000D02*
X117356000Y-117421000D01*
X114056000Y-117421000D02*
X115856000Y-117421000D01*
X120906000Y-122621000D02*
X117856000Y-122621000D01*
X115856000Y-117421000D02*
X115856000Y-118171000D01*
%TD*%
M02*
