%TF.GenerationSoftware,KiCad,Pcbnew,6.0.11+dfsg-1~bpo11+1*%
%TF.CreationDate,2025-04-08T21:51:03+02:00*%
%TF.ProjectId,v1,76312e6b-6963-4616-945f-706362585858,rev?*%
%TF.SameCoordinates,Original*%
%TF.FileFunction,Legend,Top*%
%TF.FilePolarity,Positive*%
%FSLAX46Y46*%
G04 Gerber Fmt 4.6, Leading zero omitted, Abs format (unit mm)*
G04 Created by KiCad (PCBNEW 6.0.11+dfsg-1~bpo11+1) date 2025-04-08 21:51:03*
%MOMM*%
%LPD*%
G01*
G04 APERTURE LIST*
%ADD10C,0.150000*%
%ADD11C,0.300000*%
%ADD12C,0.120000*%
G04 APERTURE END LIST*
D10*
X159560000Y-62428380D02*
X159560000Y-61428380D01*
X159798095Y-61428380D01*
X159940952Y-61476000D01*
X160036190Y-61571238D01*
X160083809Y-61666476D01*
X160131428Y-61856952D01*
X160131428Y-61999809D01*
X160083809Y-62190285D01*
X160036190Y-62285523D01*
X159940952Y-62380761D01*
X159798095Y-62428380D01*
X159560000Y-62428380D01*
X160702857Y-62428380D02*
X160607619Y-62380761D01*
X160560000Y-62333142D01*
X160512380Y-62237904D01*
X160512380Y-61952190D01*
X160560000Y-61856952D01*
X160607619Y-61809333D01*
X160702857Y-61761714D01*
X160845714Y-61761714D01*
X160940952Y-61809333D01*
X160988571Y-61856952D01*
X161036190Y-61952190D01*
X161036190Y-62237904D01*
X160988571Y-62333142D01*
X160940952Y-62380761D01*
X160845714Y-62428380D01*
X160702857Y-62428380D01*
X161321904Y-61761714D02*
X161702857Y-61761714D01*
X161464761Y-61428380D02*
X161464761Y-62285523D01*
X161512380Y-62380761D01*
X161607619Y-62428380D01*
X161702857Y-62428380D01*
X161988571Y-62380761D02*
X162131428Y-62428380D01*
X162369523Y-62428380D01*
X162464761Y-62380761D01*
X162512380Y-62333142D01*
X162560000Y-62237904D01*
X162560000Y-62142666D01*
X162512380Y-62047428D01*
X162464761Y-61999809D01*
X162369523Y-61952190D01*
X162179047Y-61904571D01*
X162083809Y-61856952D01*
X162036190Y-61809333D01*
X161988571Y-61714095D01*
X161988571Y-61618857D01*
X162036190Y-61523619D01*
X162083809Y-61476000D01*
X162179047Y-61428380D01*
X162417142Y-61428380D01*
X162560000Y-61476000D01*
X162845714Y-61761714D02*
X163226666Y-61761714D01*
X162988571Y-61428380D02*
X162988571Y-62285523D01*
X163036190Y-62380761D01*
X163131428Y-62428380D01*
X163226666Y-62428380D01*
X163988571Y-62428380D02*
X163988571Y-61904571D01*
X163940952Y-61809333D01*
X163845714Y-61761714D01*
X163655238Y-61761714D01*
X163560000Y-61809333D01*
X163988571Y-62380761D02*
X163893333Y-62428380D01*
X163655238Y-62428380D01*
X163560000Y-62380761D01*
X163512380Y-62285523D01*
X163512380Y-62190285D01*
X163560000Y-62095047D01*
X163655238Y-62047428D01*
X163893333Y-62047428D01*
X163988571Y-61999809D01*
X164464761Y-62428380D02*
X164464761Y-61761714D01*
X164464761Y-61952190D02*
X164512380Y-61856952D01*
X164560000Y-61809333D01*
X164655238Y-61761714D01*
X164750476Y-61761714D01*
X165607619Y-62428380D02*
X165036190Y-62428380D01*
X165321904Y-62428380D02*
X165321904Y-61428380D01*
X165226666Y-61571238D01*
X165131428Y-61666476D01*
X165036190Y-61714095D01*
X159052000Y-85796380D02*
X159052000Y-84796380D01*
X159290095Y-84796380D01*
X159432952Y-84844000D01*
X159528190Y-84939238D01*
X159575809Y-85034476D01*
X159623428Y-85224952D01*
X159623428Y-85367809D01*
X159575809Y-85558285D01*
X159528190Y-85653523D01*
X159432952Y-85748761D01*
X159290095Y-85796380D01*
X159052000Y-85796380D01*
X160194857Y-85796380D02*
X160099619Y-85748761D01*
X160052000Y-85701142D01*
X160004380Y-85605904D01*
X160004380Y-85320190D01*
X160052000Y-85224952D01*
X160099619Y-85177333D01*
X160194857Y-85129714D01*
X160337714Y-85129714D01*
X160432952Y-85177333D01*
X160480571Y-85224952D01*
X160528190Y-85320190D01*
X160528190Y-85605904D01*
X160480571Y-85701142D01*
X160432952Y-85748761D01*
X160337714Y-85796380D01*
X160194857Y-85796380D01*
X160813904Y-85129714D02*
X161194857Y-85129714D01*
X160956761Y-84796380D02*
X160956761Y-85653523D01*
X161004380Y-85748761D01*
X161099619Y-85796380D01*
X161194857Y-85796380D01*
X161480571Y-85748761D02*
X161623428Y-85796380D01*
X161861523Y-85796380D01*
X161956761Y-85748761D01*
X162004380Y-85701142D01*
X162052000Y-85605904D01*
X162052000Y-85510666D01*
X162004380Y-85415428D01*
X161956761Y-85367809D01*
X161861523Y-85320190D01*
X161671047Y-85272571D01*
X161575809Y-85224952D01*
X161528190Y-85177333D01*
X161480571Y-85082095D01*
X161480571Y-84986857D01*
X161528190Y-84891619D01*
X161575809Y-84844000D01*
X161671047Y-84796380D01*
X161909142Y-84796380D01*
X162052000Y-84844000D01*
X162337714Y-85129714D02*
X162718666Y-85129714D01*
X162480571Y-84796380D02*
X162480571Y-85653523D01*
X162528190Y-85748761D01*
X162623428Y-85796380D01*
X162718666Y-85796380D01*
X163480571Y-85796380D02*
X163480571Y-85272571D01*
X163432952Y-85177333D01*
X163337714Y-85129714D01*
X163147238Y-85129714D01*
X163052000Y-85177333D01*
X163480571Y-85748761D02*
X163385333Y-85796380D01*
X163147238Y-85796380D01*
X163052000Y-85748761D01*
X163004380Y-85653523D01*
X163004380Y-85558285D01*
X163052000Y-85463047D01*
X163147238Y-85415428D01*
X163385333Y-85415428D01*
X163480571Y-85367809D01*
X163956761Y-85796380D02*
X163956761Y-85129714D01*
X163956761Y-85320190D02*
X164004380Y-85224952D01*
X164052000Y-85177333D01*
X164147238Y-85129714D01*
X164242476Y-85129714D01*
X164528190Y-84891619D02*
X164575809Y-84844000D01*
X164671047Y-84796380D01*
X164909142Y-84796380D01*
X165004380Y-84844000D01*
X165052000Y-84891619D01*
X165099619Y-84986857D01*
X165099619Y-85082095D01*
X165052000Y-85224952D01*
X164480571Y-85796380D01*
X165099619Y-85796380D01*
X137128952Y-88844380D02*
X137128952Y-87844380D01*
X137128952Y-88320571D02*
X137700380Y-88320571D01*
X137700380Y-88844380D02*
X137700380Y-87844380D01*
X138319428Y-88844380D02*
X138224190Y-88796761D01*
X138176571Y-88749142D01*
X138128952Y-88653904D01*
X138128952Y-88368190D01*
X138176571Y-88272952D01*
X138224190Y-88225333D01*
X138319428Y-88177714D01*
X138462285Y-88177714D01*
X138557523Y-88225333D01*
X138605142Y-88272952D01*
X138652761Y-88368190D01*
X138652761Y-88653904D01*
X138605142Y-88749142D01*
X138557523Y-88796761D01*
X138462285Y-88844380D01*
X138319428Y-88844380D01*
X138986095Y-88177714D02*
X139176571Y-88844380D01*
X139367047Y-88368190D01*
X139557523Y-88844380D01*
X139748000Y-88177714D01*
X141319428Y-88844380D02*
X141319428Y-87844380D01*
X141319428Y-88796761D02*
X141224190Y-88844380D01*
X141033714Y-88844380D01*
X140938476Y-88796761D01*
X140890857Y-88749142D01*
X140843238Y-88653904D01*
X140843238Y-88368190D01*
X140890857Y-88272952D01*
X140938476Y-88225333D01*
X141033714Y-88177714D01*
X141224190Y-88177714D01*
X141319428Y-88225333D01*
X142224190Y-88844380D02*
X142224190Y-88320571D01*
X142176571Y-88225333D01*
X142081333Y-88177714D01*
X141890857Y-88177714D01*
X141795619Y-88225333D01*
X142224190Y-88796761D02*
X142128952Y-88844380D01*
X141890857Y-88844380D01*
X141795619Y-88796761D01*
X141748000Y-88701523D01*
X141748000Y-88606285D01*
X141795619Y-88511047D01*
X141890857Y-88463428D01*
X142128952Y-88463428D01*
X142224190Y-88415809D01*
X142700380Y-88844380D02*
X142700380Y-88177714D01*
X142700380Y-88368190D02*
X142748000Y-88272952D01*
X142795619Y-88225333D01*
X142890857Y-88177714D01*
X142986095Y-88177714D01*
X143700380Y-88796761D02*
X143605142Y-88844380D01*
X143414666Y-88844380D01*
X143319428Y-88796761D01*
X143271809Y-88701523D01*
X143271809Y-88320571D01*
X143319428Y-88225333D01*
X143414666Y-88177714D01*
X143605142Y-88177714D01*
X143700380Y-88225333D01*
X143748000Y-88320571D01*
X143748000Y-88415809D01*
X143271809Y-88511047D01*
X144843238Y-88177714D02*
X145081333Y-88844380D01*
X145319428Y-88177714D02*
X145081333Y-88844380D01*
X144986095Y-89082476D01*
X144938476Y-89130095D01*
X144843238Y-89177714D01*
X145843238Y-88844380D02*
X145748000Y-88796761D01*
X145700380Y-88749142D01*
X145652761Y-88653904D01*
X145652761Y-88368190D01*
X145700380Y-88272952D01*
X145748000Y-88225333D01*
X145843238Y-88177714D01*
X145986095Y-88177714D01*
X146081333Y-88225333D01*
X146128952Y-88272952D01*
X146176571Y-88368190D01*
X146176571Y-88653904D01*
X146128952Y-88749142D01*
X146081333Y-88796761D01*
X145986095Y-88844380D01*
X145843238Y-88844380D01*
X147033714Y-88177714D02*
X147033714Y-88844380D01*
X146605142Y-88177714D02*
X146605142Y-88701523D01*
X146652761Y-88796761D01*
X146748000Y-88844380D01*
X146890857Y-88844380D01*
X146986095Y-88796761D01*
X147033714Y-88749142D01*
X147652761Y-88749142D02*
X147700380Y-88796761D01*
X147652761Y-88844380D01*
X147605142Y-88796761D01*
X147652761Y-88749142D01*
X147652761Y-88844380D01*
X147462285Y-87892000D02*
X147557523Y-87844380D01*
X147795619Y-87844380D01*
X147890857Y-87892000D01*
X147938476Y-87987238D01*
X147938476Y-88082476D01*
X147890857Y-88177714D01*
X147843238Y-88225333D01*
X147748000Y-88272952D01*
X147700380Y-88320571D01*
X147652761Y-88415809D01*
X147652761Y-88463428D01*
X148367047Y-88749142D02*
X148414666Y-88796761D01*
X148367047Y-88844380D01*
X148319428Y-88796761D01*
X148367047Y-88749142D01*
X148367047Y-88844380D01*
X148367047Y-88463428D02*
X148319428Y-87892000D01*
X148367047Y-87844380D01*
X148414666Y-87892000D01*
X148367047Y-88463428D01*
X148367047Y-87844380D01*
X151766380Y-59372000D02*
X151766380Y-58800571D01*
X152766380Y-59086285D02*
X151766380Y-59086285D01*
X152242571Y-58467238D02*
X152242571Y-58133904D01*
X152766380Y-57991047D02*
X152766380Y-58467238D01*
X151766380Y-58467238D01*
X151766380Y-57991047D01*
X152718761Y-57610095D02*
X152766380Y-57467238D01*
X152766380Y-57229142D01*
X152718761Y-57133904D01*
X152671142Y-57086285D01*
X152575904Y-57038666D01*
X152480666Y-57038666D01*
X152385428Y-57086285D01*
X152337809Y-57133904D01*
X152290190Y-57229142D01*
X152242571Y-57419619D01*
X152194952Y-57514857D01*
X152147333Y-57562476D01*
X152052095Y-57610095D01*
X151956857Y-57610095D01*
X151861619Y-57562476D01*
X151814000Y-57514857D01*
X151766380Y-57419619D01*
X151766380Y-57181523D01*
X151814000Y-57038666D01*
X152480666Y-55895809D02*
X152480666Y-55419619D01*
X152766380Y-55991047D02*
X151766380Y-55657714D01*
X152766380Y-55324380D01*
X152099714Y-54562476D02*
X152766380Y-54562476D01*
X152099714Y-54991047D02*
X152623523Y-54991047D01*
X152718761Y-54943428D01*
X152766380Y-54848190D01*
X152766380Y-54705333D01*
X152718761Y-54610095D01*
X152671142Y-54562476D01*
X152766380Y-54086285D02*
X152099714Y-54086285D01*
X152290190Y-54086285D02*
X152194952Y-54038666D01*
X152147333Y-53991047D01*
X152099714Y-53895809D01*
X152099714Y-53800571D01*
X152766380Y-53324380D02*
X152718761Y-53419619D01*
X152671142Y-53467238D01*
X152575904Y-53514857D01*
X152290190Y-53514857D01*
X152194952Y-53467238D01*
X152147333Y-53419619D01*
X152099714Y-53324380D01*
X152099714Y-53181523D01*
X152147333Y-53086285D01*
X152194952Y-53038666D01*
X152290190Y-52991047D01*
X152575904Y-52991047D01*
X152671142Y-53038666D01*
X152718761Y-53086285D01*
X152766380Y-53181523D01*
X152766380Y-53324380D01*
X152766380Y-52562476D02*
X152099714Y-52562476D01*
X152290190Y-52562476D02*
X152194952Y-52514857D01*
X152147333Y-52467238D01*
X152099714Y-52372000D01*
X152099714Y-52276761D01*
X152766380Y-51514857D02*
X152242571Y-51514857D01*
X152147333Y-51562476D01*
X152099714Y-51657714D01*
X152099714Y-51848190D01*
X152147333Y-51943428D01*
X152718761Y-51514857D02*
X152766380Y-51610095D01*
X152766380Y-51848190D01*
X152718761Y-51943428D01*
X152623523Y-51991047D01*
X152528285Y-51991047D01*
X152433047Y-51943428D01*
X152385428Y-51848190D01*
X152385428Y-51610095D01*
X152337809Y-51514857D01*
X153709714Y-56086285D02*
X154376380Y-55848190D01*
X153709714Y-55610095D01*
X154376380Y-54705333D02*
X154376380Y-55276761D01*
X154376380Y-54991047D02*
X153376380Y-54991047D01*
X153519238Y-55086285D01*
X153614476Y-55181523D01*
X153662095Y-55276761D01*
X155986380Y-68657714D02*
X154986380Y-68657714D01*
X154986380Y-68419619D01*
X155034000Y-68276761D01*
X155129238Y-68181523D01*
X155224476Y-68133904D01*
X155414952Y-68086285D01*
X155557809Y-68086285D01*
X155748285Y-68133904D01*
X155843523Y-68181523D01*
X155938761Y-68276761D01*
X155986380Y-68419619D01*
X155986380Y-68657714D01*
X155938761Y-67276761D02*
X155986380Y-67372000D01*
X155986380Y-67562476D01*
X155938761Y-67657714D01*
X155843523Y-67705333D01*
X155462571Y-67705333D01*
X155367333Y-67657714D01*
X155319714Y-67562476D01*
X155319714Y-67372000D01*
X155367333Y-67276761D01*
X155462571Y-67229142D01*
X155557809Y-67229142D01*
X155653047Y-67705333D01*
X155938761Y-66848190D02*
X155986380Y-66752952D01*
X155986380Y-66562476D01*
X155938761Y-66467238D01*
X155843523Y-66419619D01*
X155795904Y-66419619D01*
X155700666Y-66467238D01*
X155653047Y-66562476D01*
X155653047Y-66705333D01*
X155605428Y-66800571D01*
X155510190Y-66848190D01*
X155462571Y-66848190D01*
X155367333Y-66800571D01*
X155319714Y-66705333D01*
X155319714Y-66562476D01*
X155367333Y-66467238D01*
X155986380Y-65991047D02*
X155319714Y-65991047D01*
X154986380Y-65991047D02*
X155034000Y-66038666D01*
X155081619Y-65991047D01*
X155034000Y-65943428D01*
X154986380Y-65991047D01*
X155081619Y-65991047D01*
X155319714Y-65086285D02*
X156129238Y-65086285D01*
X156224476Y-65133904D01*
X156272095Y-65181523D01*
X156319714Y-65276761D01*
X156319714Y-65419619D01*
X156272095Y-65514857D01*
X155938761Y-65086285D02*
X155986380Y-65181523D01*
X155986380Y-65372000D01*
X155938761Y-65467238D01*
X155891142Y-65514857D01*
X155795904Y-65562476D01*
X155510190Y-65562476D01*
X155414952Y-65514857D01*
X155367333Y-65467238D01*
X155319714Y-65372000D01*
X155319714Y-65181523D01*
X155367333Y-65086285D01*
X155319714Y-64610095D02*
X155986380Y-64610095D01*
X155414952Y-64610095D02*
X155367333Y-64562476D01*
X155319714Y-64467238D01*
X155319714Y-64324380D01*
X155367333Y-64229142D01*
X155462571Y-64181523D01*
X155986380Y-64181523D01*
X155938761Y-63324380D02*
X155986380Y-63419619D01*
X155986380Y-63610095D01*
X155938761Y-63705333D01*
X155843523Y-63752952D01*
X155462571Y-63752952D01*
X155367333Y-63705333D01*
X155319714Y-63610095D01*
X155319714Y-63419619D01*
X155367333Y-63324380D01*
X155462571Y-63276761D01*
X155557809Y-63276761D01*
X155653047Y-63752952D01*
X155986380Y-62419619D02*
X154986380Y-62419619D01*
X155938761Y-62419619D02*
X155986380Y-62514857D01*
X155986380Y-62705333D01*
X155938761Y-62800571D01*
X155891142Y-62848190D01*
X155795904Y-62895809D01*
X155510190Y-62895809D01*
X155414952Y-62848190D01*
X155367333Y-62800571D01*
X155319714Y-62705333D01*
X155319714Y-62514857D01*
X155367333Y-62419619D01*
X155986380Y-60752952D02*
X155462571Y-60752952D01*
X155367333Y-60800571D01*
X155319714Y-60895809D01*
X155319714Y-61086285D01*
X155367333Y-61181523D01*
X155938761Y-60752952D02*
X155986380Y-60848190D01*
X155986380Y-61086285D01*
X155938761Y-61181523D01*
X155843523Y-61229142D01*
X155748285Y-61229142D01*
X155653047Y-61181523D01*
X155605428Y-61086285D01*
X155605428Y-60848190D01*
X155557809Y-60752952D01*
X155319714Y-60276761D02*
X155986380Y-60276761D01*
X155414952Y-60276761D02*
X155367333Y-60229142D01*
X155319714Y-60133904D01*
X155319714Y-59991047D01*
X155367333Y-59895809D01*
X155462571Y-59848190D01*
X155986380Y-59848190D01*
X155986380Y-58943428D02*
X154986380Y-58943428D01*
X155938761Y-58943428D02*
X155986380Y-59038666D01*
X155986380Y-59229142D01*
X155938761Y-59324380D01*
X155891142Y-59372000D01*
X155795904Y-59419619D01*
X155510190Y-59419619D01*
X155414952Y-59372000D01*
X155367333Y-59324380D01*
X155319714Y-59229142D01*
X155319714Y-59038666D01*
X155367333Y-58943428D01*
X155986380Y-57276761D02*
X155462571Y-57276761D01*
X155367333Y-57324380D01*
X155319714Y-57419619D01*
X155319714Y-57610095D01*
X155367333Y-57705333D01*
X155938761Y-57276761D02*
X155986380Y-57372000D01*
X155986380Y-57610095D01*
X155938761Y-57705333D01*
X155843523Y-57752952D01*
X155748285Y-57752952D01*
X155653047Y-57705333D01*
X155605428Y-57610095D01*
X155605428Y-57372000D01*
X155557809Y-57276761D01*
X155938761Y-56848190D02*
X155986380Y-56752952D01*
X155986380Y-56562476D01*
X155938761Y-56467238D01*
X155843523Y-56419619D01*
X155795904Y-56419619D01*
X155700666Y-56467238D01*
X155653047Y-56562476D01*
X155653047Y-56705333D01*
X155605428Y-56800571D01*
X155510190Y-56848190D01*
X155462571Y-56848190D01*
X155367333Y-56800571D01*
X155319714Y-56705333D01*
X155319714Y-56562476D01*
X155367333Y-56467238D01*
X155938761Y-56038666D02*
X155986380Y-55943428D01*
X155986380Y-55752952D01*
X155938761Y-55657714D01*
X155843523Y-55610095D01*
X155795904Y-55610095D01*
X155700666Y-55657714D01*
X155653047Y-55752952D01*
X155653047Y-55895809D01*
X155605428Y-55991047D01*
X155510190Y-56038666D01*
X155462571Y-56038666D01*
X155367333Y-55991047D01*
X155319714Y-55895809D01*
X155319714Y-55752952D01*
X155367333Y-55657714D01*
X155938761Y-54800571D02*
X155986380Y-54895809D01*
X155986380Y-55086285D01*
X155938761Y-55181523D01*
X155843523Y-55229142D01*
X155462571Y-55229142D01*
X155367333Y-55181523D01*
X155319714Y-55086285D01*
X155319714Y-54895809D01*
X155367333Y-54800571D01*
X155462571Y-54752952D01*
X155557809Y-54752952D01*
X155653047Y-55229142D01*
X155986380Y-54324380D02*
X155319714Y-54324380D01*
X155414952Y-54324380D02*
X155367333Y-54276761D01*
X155319714Y-54181523D01*
X155319714Y-54038666D01*
X155367333Y-53943428D01*
X155462571Y-53895809D01*
X155986380Y-53895809D01*
X155462571Y-53895809D02*
X155367333Y-53848190D01*
X155319714Y-53752952D01*
X155319714Y-53610095D01*
X155367333Y-53514857D01*
X155462571Y-53467238D01*
X155986380Y-53467238D01*
X155986380Y-52991047D02*
X154986380Y-52991047D01*
X155367333Y-52991047D02*
X155319714Y-52895809D01*
X155319714Y-52705333D01*
X155367333Y-52610095D01*
X155414952Y-52562476D01*
X155510190Y-52514857D01*
X155795904Y-52514857D01*
X155891142Y-52562476D01*
X155938761Y-52610095D01*
X155986380Y-52705333D01*
X155986380Y-52895809D01*
X155938761Y-52991047D01*
X155986380Y-51943428D02*
X155938761Y-52038666D01*
X155843523Y-52086285D01*
X154986380Y-52086285D01*
X155938761Y-51181523D02*
X155986380Y-51276761D01*
X155986380Y-51467238D01*
X155938761Y-51562476D01*
X155843523Y-51610095D01*
X155462571Y-51610095D01*
X155367333Y-51562476D01*
X155319714Y-51467238D01*
X155319714Y-51276761D01*
X155367333Y-51181523D01*
X155462571Y-51133904D01*
X155557809Y-51133904D01*
X155653047Y-51610095D01*
X155986380Y-50276761D02*
X154986380Y-50276761D01*
X155938761Y-50276761D02*
X155986380Y-50372000D01*
X155986380Y-50562476D01*
X155938761Y-50657714D01*
X155891142Y-50705333D01*
X155795904Y-50752952D01*
X155510190Y-50752952D01*
X155414952Y-50705333D01*
X155367333Y-50657714D01*
X155319714Y-50562476D01*
X155319714Y-50372000D01*
X155367333Y-50276761D01*
X155986380Y-49038666D02*
X155319714Y-49038666D01*
X154986380Y-49038666D02*
X155034000Y-49086285D01*
X155081619Y-49038666D01*
X155034000Y-48991047D01*
X154986380Y-49038666D01*
X155081619Y-49038666D01*
X155319714Y-48562476D02*
X155986380Y-48562476D01*
X155414952Y-48562476D02*
X155367333Y-48514857D01*
X155319714Y-48419619D01*
X155319714Y-48276761D01*
X155367333Y-48181523D01*
X155462571Y-48133904D01*
X155986380Y-48133904D01*
X155986380Y-46895809D02*
X154986380Y-46895809D01*
X155986380Y-46324380D01*
X154986380Y-46324380D01*
X155986380Y-45705333D02*
X155938761Y-45800571D01*
X155891142Y-45848190D01*
X155795904Y-45895809D01*
X155510190Y-45895809D01*
X155414952Y-45848190D01*
X155367333Y-45800571D01*
X155319714Y-45705333D01*
X155319714Y-45562476D01*
X155367333Y-45467238D01*
X155414952Y-45419619D01*
X155510190Y-45372000D01*
X155795904Y-45372000D01*
X155891142Y-45419619D01*
X155938761Y-45467238D01*
X155986380Y-45562476D01*
X155986380Y-45705333D01*
X155986380Y-44943428D02*
X155319714Y-44943428D01*
X155510190Y-44943428D02*
X155414952Y-44895809D01*
X155367333Y-44848190D01*
X155319714Y-44752952D01*
X155319714Y-44657714D01*
X155319714Y-44419619D02*
X155986380Y-44229142D01*
X155510190Y-44038666D01*
X155986380Y-43848190D01*
X155319714Y-43657714D01*
X155986380Y-42848190D02*
X155462571Y-42848190D01*
X155367333Y-42895809D01*
X155319714Y-42991047D01*
X155319714Y-43181523D01*
X155367333Y-43276761D01*
X155938761Y-42848190D02*
X155986380Y-42943428D01*
X155986380Y-43181523D01*
X155938761Y-43276761D01*
X155843523Y-43324380D01*
X155748285Y-43324380D01*
X155653047Y-43276761D01*
X155605428Y-43181523D01*
X155605428Y-42943428D01*
X155557809Y-42848190D01*
X155319714Y-42467238D02*
X155986380Y-42229142D01*
X155319714Y-41991047D02*
X155986380Y-42229142D01*
X156224476Y-42324380D01*
X156272095Y-42372000D01*
X156319714Y-42467238D01*
D11*
X94916952Y-103434761D02*
X94916952Y-101434761D01*
X95583619Y-102863333D01*
X96250285Y-101434761D01*
X96250285Y-103434761D01*
X97202666Y-103434761D02*
X97202666Y-101434761D01*
X98155047Y-103434761D02*
X98155047Y-101434761D01*
X98631238Y-101434761D01*
X98916952Y-101530000D01*
X99107428Y-101720476D01*
X99202666Y-101910952D01*
X99297904Y-102291904D01*
X99297904Y-102577619D01*
X99202666Y-102958571D01*
X99107428Y-103149047D01*
X98916952Y-103339523D01*
X98631238Y-103434761D01*
X98155047Y-103434761D01*
X100155047Y-103434761D02*
X100155047Y-101434761D01*
X93869333Y-104654761D02*
X95012190Y-104654761D01*
X94440761Y-106654761D02*
X94440761Y-104654761D01*
X95678857Y-106654761D02*
X95678857Y-104654761D01*
X95678857Y-105607142D02*
X96821714Y-105607142D01*
X96821714Y-106654761D02*
X96821714Y-104654761D01*
X98916952Y-106654761D02*
X98250285Y-105702380D01*
X97774095Y-106654761D02*
X97774095Y-104654761D01*
X98536000Y-104654761D01*
X98726476Y-104750000D01*
X98821714Y-104845238D01*
X98916952Y-105035714D01*
X98916952Y-105321428D01*
X98821714Y-105511904D01*
X98726476Y-105607142D01*
X98536000Y-105702380D01*
X97774095Y-105702380D01*
X99774095Y-104654761D02*
X99774095Y-106273809D01*
X99869333Y-106464285D01*
X99964571Y-106559523D01*
X100155047Y-106654761D01*
X100536000Y-106654761D01*
X100726476Y-106559523D01*
X100821714Y-106464285D01*
X100916952Y-106273809D01*
X100916952Y-104654761D01*
X94916952Y-76002761D02*
X94916952Y-74002761D01*
X95583619Y-75431333D01*
X96250285Y-74002761D01*
X96250285Y-76002761D01*
X97202666Y-76002761D02*
X97202666Y-74002761D01*
X98155047Y-76002761D02*
X98155047Y-74002761D01*
X98631238Y-74002761D01*
X98916952Y-74098000D01*
X99107428Y-74288476D01*
X99202666Y-74478952D01*
X99297904Y-74859904D01*
X99297904Y-75145619D01*
X99202666Y-75526571D01*
X99107428Y-75717047D01*
X98916952Y-75907523D01*
X98631238Y-76002761D01*
X98155047Y-76002761D01*
X100155047Y-76002761D02*
X100155047Y-74002761D01*
X96488380Y-79222761D02*
X96488380Y-77222761D01*
X97440761Y-79222761D02*
X97440761Y-77222761D01*
X98583619Y-79222761D01*
X98583619Y-77222761D01*
D10*
X137922095Y-78240000D02*
X137826857Y-78192380D01*
X137684000Y-78192380D01*
X137541142Y-78240000D01*
X137445904Y-78335238D01*
X137398285Y-78430476D01*
X137350666Y-78620952D01*
X137350666Y-78763809D01*
X137398285Y-78954285D01*
X137445904Y-79049523D01*
X137541142Y-79144761D01*
X137684000Y-79192380D01*
X137779238Y-79192380D01*
X137922095Y-79144761D01*
X137969714Y-79097142D01*
X137969714Y-78763809D01*
X137779238Y-78763809D01*
X138398285Y-79192380D02*
X138398285Y-78192380D01*
X138969714Y-79192380D01*
X138969714Y-78192380D01*
X139445904Y-79192380D02*
X139445904Y-78192380D01*
X139684000Y-78192380D01*
X139826857Y-78240000D01*
X139922095Y-78335238D01*
X139969714Y-78430476D01*
X140017333Y-78620952D01*
X140017333Y-78763809D01*
X139969714Y-78954285D01*
X139922095Y-79049523D01*
X139826857Y-79144761D01*
X139684000Y-79192380D01*
X139445904Y-79192380D01*
%TO.C,H8*%
X131318095Y-72960380D02*
X131318095Y-71960380D01*
X131318095Y-72436571D02*
X131889523Y-72436571D01*
X131889523Y-72960380D02*
X131889523Y-71960380D01*
X132508571Y-72388952D02*
X132413333Y-72341333D01*
X132365714Y-72293714D01*
X132318095Y-72198476D01*
X132318095Y-72150857D01*
X132365714Y-72055619D01*
X132413333Y-72008000D01*
X132508571Y-71960380D01*
X132699047Y-71960380D01*
X132794285Y-72008000D01*
X132841904Y-72055619D01*
X132889523Y-72150857D01*
X132889523Y-72198476D01*
X132841904Y-72293714D01*
X132794285Y-72341333D01*
X132699047Y-72388952D01*
X132508571Y-72388952D01*
X132413333Y-72436571D01*
X132365714Y-72484190D01*
X132318095Y-72579428D01*
X132318095Y-72769904D01*
X132365714Y-72865142D01*
X132413333Y-72912761D01*
X132508571Y-72960380D01*
X132699047Y-72960380D01*
X132794285Y-72912761D01*
X132841904Y-72865142D01*
X132889523Y-72769904D01*
X132889523Y-72579428D01*
X132841904Y-72484190D01*
X132794285Y-72436571D01*
X132699047Y-72388952D01*
X127294285Y-81360380D02*
X127294285Y-80360380D01*
X127627619Y-81074666D01*
X127960952Y-80360380D01*
X127960952Y-81360380D01*
X128580000Y-81360380D02*
X128484761Y-81312761D01*
X128437142Y-81265142D01*
X128389523Y-81169904D01*
X128389523Y-80884190D01*
X128437142Y-80788952D01*
X128484761Y-80741333D01*
X128580000Y-80693714D01*
X128722857Y-80693714D01*
X128818095Y-80741333D01*
X128865714Y-80788952D01*
X128913333Y-80884190D01*
X128913333Y-81169904D01*
X128865714Y-81265142D01*
X128818095Y-81312761D01*
X128722857Y-81360380D01*
X128580000Y-81360380D01*
X129770476Y-80693714D02*
X129770476Y-81360380D01*
X129341904Y-80693714D02*
X129341904Y-81217523D01*
X129389523Y-81312761D01*
X129484761Y-81360380D01*
X129627619Y-81360380D01*
X129722857Y-81312761D01*
X129770476Y-81265142D01*
X130246666Y-80693714D02*
X130246666Y-81360380D01*
X130246666Y-80788952D02*
X130294285Y-80741333D01*
X130389523Y-80693714D01*
X130532380Y-80693714D01*
X130627619Y-80741333D01*
X130675238Y-80836571D01*
X130675238Y-81360380D01*
X131008571Y-80693714D02*
X131389523Y-80693714D01*
X131151428Y-80360380D02*
X131151428Y-81217523D01*
X131199047Y-81312761D01*
X131294285Y-81360380D01*
X131389523Y-81360380D01*
X131722857Y-81360380D02*
X131722857Y-80693714D01*
X131722857Y-80360380D02*
X131675238Y-80408000D01*
X131722857Y-80455619D01*
X131770476Y-80408000D01*
X131722857Y-80360380D01*
X131722857Y-80455619D01*
X132199047Y-80693714D02*
X132199047Y-81360380D01*
X132199047Y-80788952D02*
X132246666Y-80741333D01*
X132341904Y-80693714D01*
X132484761Y-80693714D01*
X132580000Y-80741333D01*
X132627619Y-80836571D01*
X132627619Y-81360380D01*
X133532380Y-80693714D02*
X133532380Y-81503238D01*
X133484761Y-81598476D01*
X133437142Y-81646095D01*
X133341904Y-81693714D01*
X133199047Y-81693714D01*
X133103809Y-81646095D01*
X133532380Y-81312761D02*
X133437142Y-81360380D01*
X133246666Y-81360380D01*
X133151428Y-81312761D01*
X133103809Y-81265142D01*
X133056190Y-81169904D01*
X133056190Y-80884190D01*
X133103809Y-80788952D01*
X133151428Y-80741333D01*
X133246666Y-80693714D01*
X133437142Y-80693714D01*
X133532380Y-80741333D01*
X134008571Y-81360380D02*
X134008571Y-80360380D01*
X134008571Y-80836571D02*
X134580000Y-80836571D01*
X134580000Y-81360380D02*
X134580000Y-80360380D01*
X135199047Y-81360380D02*
X135103809Y-81312761D01*
X135056190Y-81265142D01*
X135008571Y-81169904D01*
X135008571Y-80884190D01*
X135056190Y-80788952D01*
X135103809Y-80741333D01*
X135199047Y-80693714D01*
X135341904Y-80693714D01*
X135437142Y-80741333D01*
X135484761Y-80788952D01*
X135532380Y-80884190D01*
X135532380Y-81169904D01*
X135484761Y-81265142D01*
X135437142Y-81312761D01*
X135341904Y-81360380D01*
X135199047Y-81360380D01*
X136103809Y-81360380D02*
X136008571Y-81312761D01*
X135960952Y-81217523D01*
X135960952Y-80360380D01*
X136865714Y-81312761D02*
X136770476Y-81360380D01*
X136580000Y-81360380D01*
X136484761Y-81312761D01*
X136437142Y-81217523D01*
X136437142Y-80836571D01*
X136484761Y-80741333D01*
X136580000Y-80693714D01*
X136770476Y-80693714D01*
X136865714Y-80741333D01*
X136913333Y-80836571D01*
X136913333Y-80931809D01*
X136437142Y-81027047D01*
%TO.C,H7*%
X162306095Y-121728380D02*
X162306095Y-120728380D01*
X162306095Y-121204571D02*
X162877523Y-121204571D01*
X162877523Y-121728380D02*
X162877523Y-120728380D01*
X163258476Y-120728380D02*
X163925142Y-120728380D01*
X163496571Y-121728380D01*
X149646285Y-128468380D02*
X149646285Y-127468380D01*
X149979619Y-128182666D01*
X150312952Y-127468380D01*
X150312952Y-128468380D01*
X150932000Y-128468380D02*
X150836761Y-128420761D01*
X150789142Y-128373142D01*
X150741523Y-128277904D01*
X150741523Y-127992190D01*
X150789142Y-127896952D01*
X150836761Y-127849333D01*
X150932000Y-127801714D01*
X151074857Y-127801714D01*
X151170095Y-127849333D01*
X151217714Y-127896952D01*
X151265333Y-127992190D01*
X151265333Y-128277904D01*
X151217714Y-128373142D01*
X151170095Y-128420761D01*
X151074857Y-128468380D01*
X150932000Y-128468380D01*
X152122476Y-127801714D02*
X152122476Y-128468380D01*
X151693904Y-127801714D02*
X151693904Y-128325523D01*
X151741523Y-128420761D01*
X151836761Y-128468380D01*
X151979619Y-128468380D01*
X152074857Y-128420761D01*
X152122476Y-128373142D01*
X152598666Y-127801714D02*
X152598666Y-128468380D01*
X152598666Y-127896952D02*
X152646285Y-127849333D01*
X152741523Y-127801714D01*
X152884380Y-127801714D01*
X152979619Y-127849333D01*
X153027238Y-127944571D01*
X153027238Y-128468380D01*
X153360571Y-127801714D02*
X153741523Y-127801714D01*
X153503428Y-127468380D02*
X153503428Y-128325523D01*
X153551047Y-128420761D01*
X153646285Y-128468380D01*
X153741523Y-128468380D01*
X154074857Y-128468380D02*
X154074857Y-127801714D01*
X154074857Y-127468380D02*
X154027238Y-127516000D01*
X154074857Y-127563619D01*
X154122476Y-127516000D01*
X154074857Y-127468380D01*
X154074857Y-127563619D01*
X154551047Y-127801714D02*
X154551047Y-128468380D01*
X154551047Y-127896952D02*
X154598666Y-127849333D01*
X154693904Y-127801714D01*
X154836761Y-127801714D01*
X154932000Y-127849333D01*
X154979619Y-127944571D01*
X154979619Y-128468380D01*
X155884380Y-127801714D02*
X155884380Y-128611238D01*
X155836761Y-128706476D01*
X155789142Y-128754095D01*
X155693904Y-128801714D01*
X155551047Y-128801714D01*
X155455809Y-128754095D01*
X155884380Y-128420761D02*
X155789142Y-128468380D01*
X155598666Y-128468380D01*
X155503428Y-128420761D01*
X155455809Y-128373142D01*
X155408190Y-128277904D01*
X155408190Y-127992190D01*
X155455809Y-127896952D01*
X155503428Y-127849333D01*
X155598666Y-127801714D01*
X155789142Y-127801714D01*
X155884380Y-127849333D01*
X156360571Y-128468380D02*
X156360571Y-127468380D01*
X156360571Y-127944571D02*
X156932000Y-127944571D01*
X156932000Y-128468380D02*
X156932000Y-127468380D01*
X157551047Y-128468380D02*
X157455809Y-128420761D01*
X157408190Y-128373142D01*
X157360571Y-128277904D01*
X157360571Y-127992190D01*
X157408190Y-127896952D01*
X157455809Y-127849333D01*
X157551047Y-127801714D01*
X157693904Y-127801714D01*
X157789142Y-127849333D01*
X157836761Y-127896952D01*
X157884380Y-127992190D01*
X157884380Y-128277904D01*
X157836761Y-128373142D01*
X157789142Y-128420761D01*
X157693904Y-128468380D01*
X157551047Y-128468380D01*
X158455809Y-128468380D02*
X158360571Y-128420761D01*
X158312952Y-128325523D01*
X158312952Y-127468380D01*
X159217714Y-128420761D02*
X159122476Y-128468380D01*
X158932000Y-128468380D01*
X158836761Y-128420761D01*
X158789142Y-128325523D01*
X158789142Y-127944571D01*
X158836761Y-127849333D01*
X158932000Y-127801714D01*
X159122476Y-127801714D01*
X159217714Y-127849333D01*
X159265333Y-127944571D01*
X159265333Y-128039809D01*
X158789142Y-128135047D01*
%TO.C,H6*%
X131318095Y-95312380D02*
X131318095Y-94312380D01*
X131318095Y-94788571D02*
X131889523Y-94788571D01*
X131889523Y-95312380D02*
X131889523Y-94312380D01*
X132794285Y-94312380D02*
X132603809Y-94312380D01*
X132508571Y-94360000D01*
X132460952Y-94407619D01*
X132365714Y-94550476D01*
X132318095Y-94740952D01*
X132318095Y-95121904D01*
X132365714Y-95217142D01*
X132413333Y-95264761D01*
X132508571Y-95312380D01*
X132699047Y-95312380D01*
X132794285Y-95264761D01*
X132841904Y-95217142D01*
X132889523Y-95121904D01*
X132889523Y-94883809D01*
X132841904Y-94788571D01*
X132794285Y-94740952D01*
X132699047Y-94693333D01*
X132508571Y-94693333D01*
X132413333Y-94740952D01*
X132365714Y-94788571D01*
X132318095Y-94883809D01*
X127294285Y-103712380D02*
X127294285Y-102712380D01*
X127627619Y-103426666D01*
X127960952Y-102712380D01*
X127960952Y-103712380D01*
X128580000Y-103712380D02*
X128484761Y-103664761D01*
X128437142Y-103617142D01*
X128389523Y-103521904D01*
X128389523Y-103236190D01*
X128437142Y-103140952D01*
X128484761Y-103093333D01*
X128580000Y-103045714D01*
X128722857Y-103045714D01*
X128818095Y-103093333D01*
X128865714Y-103140952D01*
X128913333Y-103236190D01*
X128913333Y-103521904D01*
X128865714Y-103617142D01*
X128818095Y-103664761D01*
X128722857Y-103712380D01*
X128580000Y-103712380D01*
X129770476Y-103045714D02*
X129770476Y-103712380D01*
X129341904Y-103045714D02*
X129341904Y-103569523D01*
X129389523Y-103664761D01*
X129484761Y-103712380D01*
X129627619Y-103712380D01*
X129722857Y-103664761D01*
X129770476Y-103617142D01*
X130246666Y-103045714D02*
X130246666Y-103712380D01*
X130246666Y-103140952D02*
X130294285Y-103093333D01*
X130389523Y-103045714D01*
X130532380Y-103045714D01*
X130627619Y-103093333D01*
X130675238Y-103188571D01*
X130675238Y-103712380D01*
X131008571Y-103045714D02*
X131389523Y-103045714D01*
X131151428Y-102712380D02*
X131151428Y-103569523D01*
X131199047Y-103664761D01*
X131294285Y-103712380D01*
X131389523Y-103712380D01*
X131722857Y-103712380D02*
X131722857Y-103045714D01*
X131722857Y-102712380D02*
X131675238Y-102760000D01*
X131722857Y-102807619D01*
X131770476Y-102760000D01*
X131722857Y-102712380D01*
X131722857Y-102807619D01*
X132199047Y-103045714D02*
X132199047Y-103712380D01*
X132199047Y-103140952D02*
X132246666Y-103093333D01*
X132341904Y-103045714D01*
X132484761Y-103045714D01*
X132580000Y-103093333D01*
X132627619Y-103188571D01*
X132627619Y-103712380D01*
X133532380Y-103045714D02*
X133532380Y-103855238D01*
X133484761Y-103950476D01*
X133437142Y-103998095D01*
X133341904Y-104045714D01*
X133199047Y-104045714D01*
X133103809Y-103998095D01*
X133532380Y-103664761D02*
X133437142Y-103712380D01*
X133246666Y-103712380D01*
X133151428Y-103664761D01*
X133103809Y-103617142D01*
X133056190Y-103521904D01*
X133056190Y-103236190D01*
X133103809Y-103140952D01*
X133151428Y-103093333D01*
X133246666Y-103045714D01*
X133437142Y-103045714D01*
X133532380Y-103093333D01*
X134008571Y-103712380D02*
X134008571Y-102712380D01*
X134008571Y-103188571D02*
X134580000Y-103188571D01*
X134580000Y-103712380D02*
X134580000Y-102712380D01*
X135199047Y-103712380D02*
X135103809Y-103664761D01*
X135056190Y-103617142D01*
X135008571Y-103521904D01*
X135008571Y-103236190D01*
X135056190Y-103140952D01*
X135103809Y-103093333D01*
X135199047Y-103045714D01*
X135341904Y-103045714D01*
X135437142Y-103093333D01*
X135484761Y-103140952D01*
X135532380Y-103236190D01*
X135532380Y-103521904D01*
X135484761Y-103617142D01*
X135437142Y-103664761D01*
X135341904Y-103712380D01*
X135199047Y-103712380D01*
X136103809Y-103712380D02*
X136008571Y-103664761D01*
X135960952Y-103569523D01*
X135960952Y-102712380D01*
X136865714Y-103664761D02*
X136770476Y-103712380D01*
X136580000Y-103712380D01*
X136484761Y-103664761D01*
X136437142Y-103569523D01*
X136437142Y-103188571D01*
X136484761Y-103093333D01*
X136580000Y-103045714D01*
X136770476Y-103045714D01*
X136865714Y-103093333D01*
X136913333Y-103188571D01*
X136913333Y-103283809D01*
X136437142Y-103379047D01*
%TO.C,H5*%
X93218095Y-38416380D02*
X93218095Y-37416380D01*
X93218095Y-37892571D02*
X93789523Y-37892571D01*
X93789523Y-38416380D02*
X93789523Y-37416380D01*
X94741904Y-37416380D02*
X94265714Y-37416380D01*
X94218095Y-37892571D01*
X94265714Y-37844952D01*
X94360952Y-37797333D01*
X94599047Y-37797333D01*
X94694285Y-37844952D01*
X94741904Y-37892571D01*
X94789523Y-37987809D01*
X94789523Y-38225904D01*
X94741904Y-38321142D01*
X94694285Y-38368761D01*
X94599047Y-38416380D01*
X94360952Y-38416380D01*
X94265714Y-38368761D01*
X94218095Y-38321142D01*
X89194285Y-46816380D02*
X89194285Y-45816380D01*
X89527619Y-46530666D01*
X89860952Y-45816380D01*
X89860952Y-46816380D01*
X90480000Y-46816380D02*
X90384761Y-46768761D01*
X90337142Y-46721142D01*
X90289523Y-46625904D01*
X90289523Y-46340190D01*
X90337142Y-46244952D01*
X90384761Y-46197333D01*
X90480000Y-46149714D01*
X90622857Y-46149714D01*
X90718095Y-46197333D01*
X90765714Y-46244952D01*
X90813333Y-46340190D01*
X90813333Y-46625904D01*
X90765714Y-46721142D01*
X90718095Y-46768761D01*
X90622857Y-46816380D01*
X90480000Y-46816380D01*
X91670476Y-46149714D02*
X91670476Y-46816380D01*
X91241904Y-46149714D02*
X91241904Y-46673523D01*
X91289523Y-46768761D01*
X91384761Y-46816380D01*
X91527619Y-46816380D01*
X91622857Y-46768761D01*
X91670476Y-46721142D01*
X92146666Y-46149714D02*
X92146666Y-46816380D01*
X92146666Y-46244952D02*
X92194285Y-46197333D01*
X92289523Y-46149714D01*
X92432380Y-46149714D01*
X92527619Y-46197333D01*
X92575238Y-46292571D01*
X92575238Y-46816380D01*
X92908571Y-46149714D02*
X93289523Y-46149714D01*
X93051428Y-45816380D02*
X93051428Y-46673523D01*
X93099047Y-46768761D01*
X93194285Y-46816380D01*
X93289523Y-46816380D01*
X93622857Y-46816380D02*
X93622857Y-46149714D01*
X93622857Y-45816380D02*
X93575238Y-45864000D01*
X93622857Y-45911619D01*
X93670476Y-45864000D01*
X93622857Y-45816380D01*
X93622857Y-45911619D01*
X94099047Y-46149714D02*
X94099047Y-46816380D01*
X94099047Y-46244952D02*
X94146666Y-46197333D01*
X94241904Y-46149714D01*
X94384761Y-46149714D01*
X94480000Y-46197333D01*
X94527619Y-46292571D01*
X94527619Y-46816380D01*
X95432380Y-46149714D02*
X95432380Y-46959238D01*
X95384761Y-47054476D01*
X95337142Y-47102095D01*
X95241904Y-47149714D01*
X95099047Y-47149714D01*
X95003809Y-47102095D01*
X95432380Y-46768761D02*
X95337142Y-46816380D01*
X95146666Y-46816380D01*
X95051428Y-46768761D01*
X95003809Y-46721142D01*
X94956190Y-46625904D01*
X94956190Y-46340190D01*
X95003809Y-46244952D01*
X95051428Y-46197333D01*
X95146666Y-46149714D01*
X95337142Y-46149714D01*
X95432380Y-46197333D01*
X95908571Y-46816380D02*
X95908571Y-45816380D01*
X95908571Y-46292571D02*
X96480000Y-46292571D01*
X96480000Y-46816380D02*
X96480000Y-45816380D01*
X97099047Y-46816380D02*
X97003809Y-46768761D01*
X96956190Y-46721142D01*
X96908571Y-46625904D01*
X96908571Y-46340190D01*
X96956190Y-46244952D01*
X97003809Y-46197333D01*
X97099047Y-46149714D01*
X97241904Y-46149714D01*
X97337142Y-46197333D01*
X97384761Y-46244952D01*
X97432380Y-46340190D01*
X97432380Y-46625904D01*
X97384761Y-46721142D01*
X97337142Y-46768761D01*
X97241904Y-46816380D01*
X97099047Y-46816380D01*
X98003809Y-46816380D02*
X97908571Y-46768761D01*
X97860952Y-46673523D01*
X97860952Y-45816380D01*
X98765714Y-46768761D02*
X98670476Y-46816380D01*
X98480000Y-46816380D01*
X98384761Y-46768761D01*
X98337142Y-46673523D01*
X98337142Y-46292571D01*
X98384761Y-46197333D01*
X98480000Y-46149714D01*
X98670476Y-46149714D01*
X98765714Y-46197333D01*
X98813333Y-46292571D01*
X98813333Y-46387809D01*
X98337142Y-46483047D01*
%TO.C,H4*%
X93218095Y-121728380D02*
X93218095Y-120728380D01*
X93218095Y-121204571D02*
X93789523Y-121204571D01*
X93789523Y-121728380D02*
X93789523Y-120728380D01*
X94694285Y-121061714D02*
X94694285Y-121728380D01*
X94456190Y-120680761D02*
X94218095Y-121395047D01*
X94837142Y-121395047D01*
X89194285Y-130128380D02*
X89194285Y-129128380D01*
X89527619Y-129842666D01*
X89860952Y-129128380D01*
X89860952Y-130128380D01*
X90480000Y-130128380D02*
X90384761Y-130080761D01*
X90337142Y-130033142D01*
X90289523Y-129937904D01*
X90289523Y-129652190D01*
X90337142Y-129556952D01*
X90384761Y-129509333D01*
X90480000Y-129461714D01*
X90622857Y-129461714D01*
X90718095Y-129509333D01*
X90765714Y-129556952D01*
X90813333Y-129652190D01*
X90813333Y-129937904D01*
X90765714Y-130033142D01*
X90718095Y-130080761D01*
X90622857Y-130128380D01*
X90480000Y-130128380D01*
X91670476Y-129461714D02*
X91670476Y-130128380D01*
X91241904Y-129461714D02*
X91241904Y-129985523D01*
X91289523Y-130080761D01*
X91384761Y-130128380D01*
X91527619Y-130128380D01*
X91622857Y-130080761D01*
X91670476Y-130033142D01*
X92146666Y-129461714D02*
X92146666Y-130128380D01*
X92146666Y-129556952D02*
X92194285Y-129509333D01*
X92289523Y-129461714D01*
X92432380Y-129461714D01*
X92527619Y-129509333D01*
X92575238Y-129604571D01*
X92575238Y-130128380D01*
X92908571Y-129461714D02*
X93289523Y-129461714D01*
X93051428Y-129128380D02*
X93051428Y-129985523D01*
X93099047Y-130080761D01*
X93194285Y-130128380D01*
X93289523Y-130128380D01*
X93622857Y-130128380D02*
X93622857Y-129461714D01*
X93622857Y-129128380D02*
X93575238Y-129176000D01*
X93622857Y-129223619D01*
X93670476Y-129176000D01*
X93622857Y-129128380D01*
X93622857Y-129223619D01*
X94099047Y-129461714D02*
X94099047Y-130128380D01*
X94099047Y-129556952D02*
X94146666Y-129509333D01*
X94241904Y-129461714D01*
X94384761Y-129461714D01*
X94480000Y-129509333D01*
X94527619Y-129604571D01*
X94527619Y-130128380D01*
X95432380Y-129461714D02*
X95432380Y-130271238D01*
X95384761Y-130366476D01*
X95337142Y-130414095D01*
X95241904Y-130461714D01*
X95099047Y-130461714D01*
X95003809Y-130414095D01*
X95432380Y-130080761D02*
X95337142Y-130128380D01*
X95146666Y-130128380D01*
X95051428Y-130080761D01*
X95003809Y-130033142D01*
X94956190Y-129937904D01*
X94956190Y-129652190D01*
X95003809Y-129556952D01*
X95051428Y-129509333D01*
X95146666Y-129461714D01*
X95337142Y-129461714D01*
X95432380Y-129509333D01*
X95908571Y-130128380D02*
X95908571Y-129128380D01*
X95908571Y-129604571D02*
X96480000Y-129604571D01*
X96480000Y-130128380D02*
X96480000Y-129128380D01*
X97099047Y-130128380D02*
X97003809Y-130080761D01*
X96956190Y-130033142D01*
X96908571Y-129937904D01*
X96908571Y-129652190D01*
X96956190Y-129556952D01*
X97003809Y-129509333D01*
X97099047Y-129461714D01*
X97241904Y-129461714D01*
X97337142Y-129509333D01*
X97384761Y-129556952D01*
X97432380Y-129652190D01*
X97432380Y-129937904D01*
X97384761Y-130033142D01*
X97337142Y-130080761D01*
X97241904Y-130128380D01*
X97099047Y-130128380D01*
X98003809Y-130128380D02*
X97908571Y-130080761D01*
X97860952Y-129985523D01*
X97860952Y-129128380D01*
X98765714Y-130080761D02*
X98670476Y-130128380D01*
X98480000Y-130128380D01*
X98384761Y-130080761D01*
X98337142Y-129985523D01*
X98337142Y-129604571D01*
X98384761Y-129509333D01*
X98480000Y-129461714D01*
X98670476Y-129461714D01*
X98765714Y-129509333D01*
X98813333Y-129604571D01*
X98813333Y-129699809D01*
X98337142Y-129795047D01*
%TO.C,H3*%
X152146095Y-95820380D02*
X152146095Y-94820380D01*
X152146095Y-95296571D02*
X152717523Y-95296571D01*
X152717523Y-95820380D02*
X152717523Y-94820380D01*
X153098476Y-94820380D02*
X153717523Y-94820380D01*
X153384190Y-95201333D01*
X153527047Y-95201333D01*
X153622285Y-95248952D01*
X153669904Y-95296571D01*
X153717523Y-95391809D01*
X153717523Y-95629904D01*
X153669904Y-95725142D01*
X153622285Y-95772761D01*
X153527047Y-95820380D01*
X153241333Y-95820380D01*
X153146095Y-95772761D01*
X153098476Y-95725142D01*
X148122285Y-104220380D02*
X148122285Y-103220380D01*
X148455619Y-103934666D01*
X148788952Y-103220380D01*
X148788952Y-104220380D01*
X149408000Y-104220380D02*
X149312761Y-104172761D01*
X149265142Y-104125142D01*
X149217523Y-104029904D01*
X149217523Y-103744190D01*
X149265142Y-103648952D01*
X149312761Y-103601333D01*
X149408000Y-103553714D01*
X149550857Y-103553714D01*
X149646095Y-103601333D01*
X149693714Y-103648952D01*
X149741333Y-103744190D01*
X149741333Y-104029904D01*
X149693714Y-104125142D01*
X149646095Y-104172761D01*
X149550857Y-104220380D01*
X149408000Y-104220380D01*
X150598476Y-103553714D02*
X150598476Y-104220380D01*
X150169904Y-103553714D02*
X150169904Y-104077523D01*
X150217523Y-104172761D01*
X150312761Y-104220380D01*
X150455619Y-104220380D01*
X150550857Y-104172761D01*
X150598476Y-104125142D01*
X151074666Y-103553714D02*
X151074666Y-104220380D01*
X151074666Y-103648952D02*
X151122285Y-103601333D01*
X151217523Y-103553714D01*
X151360380Y-103553714D01*
X151455619Y-103601333D01*
X151503238Y-103696571D01*
X151503238Y-104220380D01*
X151836571Y-103553714D02*
X152217523Y-103553714D01*
X151979428Y-103220380D02*
X151979428Y-104077523D01*
X152027047Y-104172761D01*
X152122285Y-104220380D01*
X152217523Y-104220380D01*
X152550857Y-104220380D02*
X152550857Y-103553714D01*
X152550857Y-103220380D02*
X152503238Y-103268000D01*
X152550857Y-103315619D01*
X152598476Y-103268000D01*
X152550857Y-103220380D01*
X152550857Y-103315619D01*
X153027047Y-103553714D02*
X153027047Y-104220380D01*
X153027047Y-103648952D02*
X153074666Y-103601333D01*
X153169904Y-103553714D01*
X153312761Y-103553714D01*
X153408000Y-103601333D01*
X153455619Y-103696571D01*
X153455619Y-104220380D01*
X154360380Y-103553714D02*
X154360380Y-104363238D01*
X154312761Y-104458476D01*
X154265142Y-104506095D01*
X154169904Y-104553714D01*
X154027047Y-104553714D01*
X153931809Y-104506095D01*
X154360380Y-104172761D02*
X154265142Y-104220380D01*
X154074666Y-104220380D01*
X153979428Y-104172761D01*
X153931809Y-104125142D01*
X153884190Y-104029904D01*
X153884190Y-103744190D01*
X153931809Y-103648952D01*
X153979428Y-103601333D01*
X154074666Y-103553714D01*
X154265142Y-103553714D01*
X154360380Y-103601333D01*
X154836571Y-104220380D02*
X154836571Y-103220380D01*
X154836571Y-103696571D02*
X155408000Y-103696571D01*
X155408000Y-104220380D02*
X155408000Y-103220380D01*
X156027047Y-104220380D02*
X155931809Y-104172761D01*
X155884190Y-104125142D01*
X155836571Y-104029904D01*
X155836571Y-103744190D01*
X155884190Y-103648952D01*
X155931809Y-103601333D01*
X156027047Y-103553714D01*
X156169904Y-103553714D01*
X156265142Y-103601333D01*
X156312761Y-103648952D01*
X156360380Y-103744190D01*
X156360380Y-104029904D01*
X156312761Y-104125142D01*
X156265142Y-104172761D01*
X156169904Y-104220380D01*
X156027047Y-104220380D01*
X156931809Y-104220380D02*
X156836571Y-104172761D01*
X156788952Y-104077523D01*
X156788952Y-103220380D01*
X157693714Y-104172761D02*
X157598476Y-104220380D01*
X157408000Y-104220380D01*
X157312761Y-104172761D01*
X157265142Y-104077523D01*
X157265142Y-103696571D01*
X157312761Y-103601333D01*
X157408000Y-103553714D01*
X157598476Y-103553714D01*
X157693714Y-103601333D01*
X157741333Y-103696571D01*
X157741333Y-103791809D01*
X157265142Y-103887047D01*
%TO.C,H2*%
X157226095Y-44648380D02*
X157226095Y-43648380D01*
X157226095Y-44124571D02*
X157797523Y-44124571D01*
X157797523Y-44648380D02*
X157797523Y-43648380D01*
X158226095Y-43743619D02*
X158273714Y-43696000D01*
X158368952Y-43648380D01*
X158607047Y-43648380D01*
X158702285Y-43696000D01*
X158749904Y-43743619D01*
X158797523Y-43838857D01*
X158797523Y-43934095D01*
X158749904Y-44076952D01*
X158178476Y-44648380D01*
X158797523Y-44648380D01*
X158282285Y-46816380D02*
X158282285Y-45816380D01*
X158615619Y-46530666D01*
X158948952Y-45816380D01*
X158948952Y-46816380D01*
X159568000Y-46816380D02*
X159472761Y-46768761D01*
X159425142Y-46721142D01*
X159377523Y-46625904D01*
X159377523Y-46340190D01*
X159425142Y-46244952D01*
X159472761Y-46197333D01*
X159568000Y-46149714D01*
X159710857Y-46149714D01*
X159806095Y-46197333D01*
X159853714Y-46244952D01*
X159901333Y-46340190D01*
X159901333Y-46625904D01*
X159853714Y-46721142D01*
X159806095Y-46768761D01*
X159710857Y-46816380D01*
X159568000Y-46816380D01*
X160758476Y-46149714D02*
X160758476Y-46816380D01*
X160329904Y-46149714D02*
X160329904Y-46673523D01*
X160377523Y-46768761D01*
X160472761Y-46816380D01*
X160615619Y-46816380D01*
X160710857Y-46768761D01*
X160758476Y-46721142D01*
X161234666Y-46149714D02*
X161234666Y-46816380D01*
X161234666Y-46244952D02*
X161282285Y-46197333D01*
X161377523Y-46149714D01*
X161520380Y-46149714D01*
X161615619Y-46197333D01*
X161663238Y-46292571D01*
X161663238Y-46816380D01*
X161996571Y-46149714D02*
X162377523Y-46149714D01*
X162139428Y-45816380D02*
X162139428Y-46673523D01*
X162187047Y-46768761D01*
X162282285Y-46816380D01*
X162377523Y-46816380D01*
X162710857Y-46816380D02*
X162710857Y-46149714D01*
X162710857Y-45816380D02*
X162663238Y-45864000D01*
X162710857Y-45911619D01*
X162758476Y-45864000D01*
X162710857Y-45816380D01*
X162710857Y-45911619D01*
X163187047Y-46149714D02*
X163187047Y-46816380D01*
X163187047Y-46244952D02*
X163234666Y-46197333D01*
X163329904Y-46149714D01*
X163472761Y-46149714D01*
X163568000Y-46197333D01*
X163615619Y-46292571D01*
X163615619Y-46816380D01*
X164520380Y-46149714D02*
X164520380Y-46959238D01*
X164472761Y-47054476D01*
X164425142Y-47102095D01*
X164329904Y-47149714D01*
X164187047Y-47149714D01*
X164091809Y-47102095D01*
X164520380Y-46768761D02*
X164425142Y-46816380D01*
X164234666Y-46816380D01*
X164139428Y-46768761D01*
X164091809Y-46721142D01*
X164044190Y-46625904D01*
X164044190Y-46340190D01*
X164091809Y-46244952D01*
X164139428Y-46197333D01*
X164234666Y-46149714D01*
X164425142Y-46149714D01*
X164520380Y-46197333D01*
X164996571Y-46816380D02*
X164996571Y-45816380D01*
X164996571Y-46292571D02*
X165568000Y-46292571D01*
X165568000Y-46816380D02*
X165568000Y-45816380D01*
X166187047Y-46816380D02*
X166091809Y-46768761D01*
X166044190Y-46721142D01*
X165996571Y-46625904D01*
X165996571Y-46340190D01*
X166044190Y-46244952D01*
X166091809Y-46197333D01*
X166187047Y-46149714D01*
X166329904Y-46149714D01*
X166425142Y-46197333D01*
X166472761Y-46244952D01*
X166520380Y-46340190D01*
X166520380Y-46625904D01*
X166472761Y-46721142D01*
X166425142Y-46768761D01*
X166329904Y-46816380D01*
X166187047Y-46816380D01*
X167091809Y-46816380D02*
X166996571Y-46768761D01*
X166948952Y-46673523D01*
X166948952Y-45816380D01*
X167853714Y-46768761D02*
X167758476Y-46816380D01*
X167568000Y-46816380D01*
X167472761Y-46768761D01*
X167425142Y-46673523D01*
X167425142Y-46292571D01*
X167472761Y-46197333D01*
X167568000Y-46149714D01*
X167758476Y-46149714D01*
X167853714Y-46197333D01*
X167901333Y-46292571D01*
X167901333Y-46387809D01*
X167425142Y-46483047D01*
%TO.C,H1*%
X152146095Y-72960380D02*
X152146095Y-71960380D01*
X152146095Y-72436571D02*
X152717523Y-72436571D01*
X152717523Y-72960380D02*
X152717523Y-71960380D01*
X153717523Y-72960380D02*
X153146095Y-72960380D01*
X153431809Y-72960380D02*
X153431809Y-71960380D01*
X153336571Y-72103238D01*
X153241333Y-72198476D01*
X153146095Y-72246095D01*
X148122285Y-81360380D02*
X148122285Y-80360380D01*
X148455619Y-81074666D01*
X148788952Y-80360380D01*
X148788952Y-81360380D01*
X149408000Y-81360380D02*
X149312761Y-81312761D01*
X149265142Y-81265142D01*
X149217523Y-81169904D01*
X149217523Y-80884190D01*
X149265142Y-80788952D01*
X149312761Y-80741333D01*
X149408000Y-80693714D01*
X149550857Y-80693714D01*
X149646095Y-80741333D01*
X149693714Y-80788952D01*
X149741333Y-80884190D01*
X149741333Y-81169904D01*
X149693714Y-81265142D01*
X149646095Y-81312761D01*
X149550857Y-81360380D01*
X149408000Y-81360380D01*
X150598476Y-80693714D02*
X150598476Y-81360380D01*
X150169904Y-80693714D02*
X150169904Y-81217523D01*
X150217523Y-81312761D01*
X150312761Y-81360380D01*
X150455619Y-81360380D01*
X150550857Y-81312761D01*
X150598476Y-81265142D01*
X151074666Y-80693714D02*
X151074666Y-81360380D01*
X151074666Y-80788952D02*
X151122285Y-80741333D01*
X151217523Y-80693714D01*
X151360380Y-80693714D01*
X151455619Y-80741333D01*
X151503238Y-80836571D01*
X151503238Y-81360380D01*
X151836571Y-80693714D02*
X152217523Y-80693714D01*
X151979428Y-80360380D02*
X151979428Y-81217523D01*
X152027047Y-81312761D01*
X152122285Y-81360380D01*
X152217523Y-81360380D01*
X152550857Y-81360380D02*
X152550857Y-80693714D01*
X152550857Y-80360380D02*
X152503238Y-80408000D01*
X152550857Y-80455619D01*
X152598476Y-80408000D01*
X152550857Y-80360380D01*
X152550857Y-80455619D01*
X153027047Y-80693714D02*
X153027047Y-81360380D01*
X153027047Y-80788952D02*
X153074666Y-80741333D01*
X153169904Y-80693714D01*
X153312761Y-80693714D01*
X153408000Y-80741333D01*
X153455619Y-80836571D01*
X153455619Y-81360380D01*
X154360380Y-80693714D02*
X154360380Y-81503238D01*
X154312761Y-81598476D01*
X154265142Y-81646095D01*
X154169904Y-81693714D01*
X154027047Y-81693714D01*
X153931809Y-81646095D01*
X154360380Y-81312761D02*
X154265142Y-81360380D01*
X154074666Y-81360380D01*
X153979428Y-81312761D01*
X153931809Y-81265142D01*
X153884190Y-81169904D01*
X153884190Y-80884190D01*
X153931809Y-80788952D01*
X153979428Y-80741333D01*
X154074666Y-80693714D01*
X154265142Y-80693714D01*
X154360380Y-80741333D01*
X154836571Y-81360380D02*
X154836571Y-80360380D01*
X154836571Y-80836571D02*
X155408000Y-80836571D01*
X155408000Y-81360380D02*
X155408000Y-80360380D01*
X156027047Y-81360380D02*
X155931809Y-81312761D01*
X155884190Y-81265142D01*
X155836571Y-81169904D01*
X155836571Y-80884190D01*
X155884190Y-80788952D01*
X155931809Y-80741333D01*
X156027047Y-80693714D01*
X156169904Y-80693714D01*
X156265142Y-80741333D01*
X156312761Y-80788952D01*
X156360380Y-80884190D01*
X156360380Y-81169904D01*
X156312761Y-81265142D01*
X156265142Y-81312761D01*
X156169904Y-81360380D01*
X156027047Y-81360380D01*
X156931809Y-81360380D02*
X156836571Y-81312761D01*
X156788952Y-81217523D01*
X156788952Y-80360380D01*
X157693714Y-81312761D02*
X157598476Y-81360380D01*
X157408000Y-81360380D01*
X157312761Y-81312761D01*
X157265142Y-81217523D01*
X157265142Y-80836571D01*
X157312761Y-80741333D01*
X157408000Y-80693714D01*
X157598476Y-80693714D01*
X157693714Y-80741333D01*
X157741333Y-80836571D01*
X157741333Y-80931809D01*
X157265142Y-81027047D01*
%TO.C,R2*%
X115149333Y-87744380D02*
X114816000Y-87268190D01*
X114577904Y-87744380D02*
X114577904Y-86744380D01*
X114958857Y-86744380D01*
X115054095Y-86792000D01*
X115101714Y-86839619D01*
X115149333Y-86934857D01*
X115149333Y-87077714D01*
X115101714Y-87172952D01*
X115054095Y-87220571D01*
X114958857Y-87268190D01*
X114577904Y-87268190D01*
X115530285Y-86839619D02*
X115577904Y-86792000D01*
X115673142Y-86744380D01*
X115911238Y-86744380D01*
X116006476Y-86792000D01*
X116054095Y-86839619D01*
X116101714Y-86934857D01*
X116101714Y-87030095D01*
X116054095Y-87172952D01*
X115482666Y-87744380D01*
X116101714Y-87744380D01*
X110013904Y-88955619D02*
X110061523Y-88908000D01*
X110156761Y-88860380D01*
X110394857Y-88860380D01*
X110490095Y-88908000D01*
X110537714Y-88955619D01*
X110585333Y-89050857D01*
X110585333Y-89146095D01*
X110537714Y-89288952D01*
X109966285Y-89860380D01*
X110585333Y-89860380D01*
X110966285Y-88955619D02*
X111013904Y-88908000D01*
X111109142Y-88860380D01*
X111347238Y-88860380D01*
X111442476Y-88908000D01*
X111490095Y-88955619D01*
X111537714Y-89050857D01*
X111537714Y-89146095D01*
X111490095Y-89288952D01*
X110918666Y-89860380D01*
X111537714Y-89860380D01*
X112156761Y-88860380D02*
X112252000Y-88860380D01*
X112347238Y-88908000D01*
X112394857Y-88955619D01*
X112442476Y-89050857D01*
X112490095Y-89241333D01*
X112490095Y-89479428D01*
X112442476Y-89669904D01*
X112394857Y-89765142D01*
X112347238Y-89812761D01*
X112252000Y-89860380D01*
X112156761Y-89860380D01*
X112061523Y-89812761D01*
X112013904Y-89765142D01*
X111966285Y-89669904D01*
X111918666Y-89479428D01*
X111918666Y-89241333D01*
X111966285Y-89050857D01*
X112013904Y-88955619D01*
X112061523Y-88908000D01*
X112156761Y-88860380D01*
%TO.C,R1*%
X115149333Y-107132380D02*
X114816000Y-106656190D01*
X114577904Y-107132380D02*
X114577904Y-106132380D01*
X114958857Y-106132380D01*
X115054095Y-106180000D01*
X115101714Y-106227619D01*
X115149333Y-106322857D01*
X115149333Y-106465714D01*
X115101714Y-106560952D01*
X115054095Y-106608571D01*
X114958857Y-106656190D01*
X114577904Y-106656190D01*
X116101714Y-107132380D02*
X115530285Y-107132380D01*
X115816000Y-107132380D02*
X115816000Y-106132380D01*
X115720761Y-106275238D01*
X115625523Y-106370476D01*
X115530285Y-106418095D01*
X111029904Y-107243619D02*
X111077523Y-107196000D01*
X111172761Y-107148380D01*
X111410857Y-107148380D01*
X111506095Y-107196000D01*
X111553714Y-107243619D01*
X111601333Y-107338857D01*
X111601333Y-107434095D01*
X111553714Y-107576952D01*
X110982285Y-108148380D01*
X111601333Y-108148380D01*
X111982285Y-107243619D02*
X112029904Y-107196000D01*
X112125142Y-107148380D01*
X112363238Y-107148380D01*
X112458476Y-107196000D01*
X112506095Y-107243619D01*
X112553714Y-107338857D01*
X112553714Y-107434095D01*
X112506095Y-107576952D01*
X111934666Y-108148380D01*
X112553714Y-108148380D01*
X113172761Y-107148380D02*
X113268000Y-107148380D01*
X113363238Y-107196000D01*
X113410857Y-107243619D01*
X113458476Y-107338857D01*
X113506095Y-107529333D01*
X113506095Y-107767428D01*
X113458476Y-107957904D01*
X113410857Y-108053142D01*
X113363238Y-108100761D01*
X113268000Y-108148380D01*
X113172761Y-108148380D01*
X113077523Y-108100761D01*
X113029904Y-108053142D01*
X112982285Y-107957904D01*
X112934666Y-107767428D01*
X112934666Y-107529333D01*
X112982285Y-107338857D01*
X113029904Y-107243619D01*
X113077523Y-107196000D01*
X113172761Y-107148380D01*
%TO.C,C2*%
X123173142Y-99226666D02*
X123220761Y-99274285D01*
X123268380Y-99417142D01*
X123268380Y-99512380D01*
X123220761Y-99655238D01*
X123125523Y-99750476D01*
X123030285Y-99798095D01*
X122839809Y-99845714D01*
X122696952Y-99845714D01*
X122506476Y-99798095D01*
X122411238Y-99750476D01*
X122316000Y-99655238D01*
X122268380Y-99512380D01*
X122268380Y-99417142D01*
X122316000Y-99274285D01*
X122363619Y-99226666D01*
X122363619Y-98845714D02*
X122316000Y-98798095D01*
X122268380Y-98702857D01*
X122268380Y-98464761D01*
X122316000Y-98369523D01*
X122363619Y-98321904D01*
X122458857Y-98274285D01*
X122554095Y-98274285D01*
X122696952Y-98321904D01*
X123268380Y-98893333D01*
X123268380Y-98274285D01*
X123388380Y-97131047D02*
X123388380Y-97702476D01*
X123388380Y-97416761D02*
X122388380Y-97416761D01*
X122531238Y-97512000D01*
X122626476Y-97607238D01*
X122674095Y-97702476D01*
X122388380Y-96512000D02*
X122388380Y-96416761D01*
X122436000Y-96321523D01*
X122483619Y-96273904D01*
X122578857Y-96226285D01*
X122769333Y-96178666D01*
X123007428Y-96178666D01*
X123197904Y-96226285D01*
X123293142Y-96273904D01*
X123340761Y-96321523D01*
X123388380Y-96416761D01*
X123388380Y-96512000D01*
X123340761Y-96607238D01*
X123293142Y-96654857D01*
X123197904Y-96702476D01*
X123007428Y-96750095D01*
X122769333Y-96750095D01*
X122578857Y-96702476D01*
X122483619Y-96654857D01*
X122436000Y-96607238D01*
X122388380Y-96512000D01*
X122388380Y-95559619D02*
X122388380Y-95464380D01*
X122436000Y-95369142D01*
X122483619Y-95321523D01*
X122578857Y-95273904D01*
X122769333Y-95226285D01*
X123007428Y-95226285D01*
X123197904Y-95273904D01*
X123293142Y-95321523D01*
X123340761Y-95369142D01*
X123388380Y-95464380D01*
X123388380Y-95559619D01*
X123340761Y-95654857D01*
X123293142Y-95702476D01*
X123197904Y-95750095D01*
X123007428Y-95797714D01*
X122769333Y-95797714D01*
X122578857Y-95750095D01*
X122483619Y-95702476D01*
X122436000Y-95654857D01*
X122388380Y-95559619D01*
X122721714Y-94797714D02*
X123388380Y-94797714D01*
X122816952Y-94797714D02*
X122769333Y-94750095D01*
X122721714Y-94654857D01*
X122721714Y-94512000D01*
X122769333Y-94416761D01*
X122864571Y-94369142D01*
X123388380Y-94369142D01*
%TO.C,C4*%
X133945333Y-61317142D02*
X133897714Y-61364761D01*
X133754857Y-61412380D01*
X133659619Y-61412380D01*
X133516761Y-61364761D01*
X133421523Y-61269523D01*
X133373904Y-61174285D01*
X133326285Y-60983809D01*
X133326285Y-60840952D01*
X133373904Y-60650476D01*
X133421523Y-60555238D01*
X133516761Y-60460000D01*
X133659619Y-60412380D01*
X133754857Y-60412380D01*
X133897714Y-60460000D01*
X133945333Y-60507619D01*
X134802476Y-60745714D02*
X134802476Y-61412380D01*
X134564380Y-60364761D02*
X134326285Y-61079047D01*
X134945333Y-61079047D01*
X138894952Y-58484380D02*
X138323523Y-58484380D01*
X138609238Y-58484380D02*
X138609238Y-57484380D01*
X138514000Y-57627238D01*
X138418761Y-57722476D01*
X138323523Y-57770095D01*
X139514000Y-57484380D02*
X139609238Y-57484380D01*
X139704476Y-57532000D01*
X139752095Y-57579619D01*
X139799714Y-57674857D01*
X139847333Y-57865333D01*
X139847333Y-58103428D01*
X139799714Y-58293904D01*
X139752095Y-58389142D01*
X139704476Y-58436761D01*
X139609238Y-58484380D01*
X139514000Y-58484380D01*
X139418761Y-58436761D01*
X139371142Y-58389142D01*
X139323523Y-58293904D01*
X139275904Y-58103428D01*
X139275904Y-57865333D01*
X139323523Y-57674857D01*
X139371142Y-57579619D01*
X139418761Y-57532000D01*
X139514000Y-57484380D01*
X140466380Y-57484380D02*
X140561619Y-57484380D01*
X140656857Y-57532000D01*
X140704476Y-57579619D01*
X140752095Y-57674857D01*
X140799714Y-57865333D01*
X140799714Y-58103428D01*
X140752095Y-58293904D01*
X140704476Y-58389142D01*
X140656857Y-58436761D01*
X140561619Y-58484380D01*
X140466380Y-58484380D01*
X140371142Y-58436761D01*
X140323523Y-58389142D01*
X140275904Y-58293904D01*
X140228285Y-58103428D01*
X140228285Y-57865333D01*
X140275904Y-57674857D01*
X140323523Y-57579619D01*
X140371142Y-57532000D01*
X140466380Y-57484380D01*
X141228285Y-57817714D02*
X141228285Y-58484380D01*
X141228285Y-57912952D02*
X141275904Y-57865333D01*
X141371142Y-57817714D01*
X141514000Y-57817714D01*
X141609238Y-57865333D01*
X141656857Y-57960571D01*
X141656857Y-58484380D01*
%TO.C,D1*%
X119657904Y-92908380D02*
X119657904Y-91908380D01*
X119896000Y-91908380D01*
X120038857Y-91956000D01*
X120134095Y-92051238D01*
X120181714Y-92146476D01*
X120229333Y-92336952D01*
X120229333Y-92479809D01*
X120181714Y-92670285D01*
X120134095Y-92765523D01*
X120038857Y-92860761D01*
X119896000Y-92908380D01*
X119657904Y-92908380D01*
X121181714Y-92908380D02*
X120610285Y-92908380D01*
X120896000Y-92908380D02*
X120896000Y-91908380D01*
X120800761Y-92051238D01*
X120705523Y-92146476D01*
X120610285Y-92194095D01*
X122793333Y-92908380D02*
X122221904Y-92908380D01*
X122507619Y-92908380D02*
X122507619Y-91908380D01*
X122412380Y-92051238D01*
X122317142Y-92146476D01*
X122221904Y-92194095D01*
X123221904Y-92908380D02*
X123221904Y-91908380D01*
X123793333Y-92908380D01*
X123793333Y-91908380D01*
X124317142Y-92908380D02*
X124507619Y-92908380D01*
X124602857Y-92860761D01*
X124650476Y-92813142D01*
X124745714Y-92670285D01*
X124793333Y-92479809D01*
X124793333Y-92098857D01*
X124745714Y-92003619D01*
X124698095Y-91956000D01*
X124602857Y-91908380D01*
X124412380Y-91908380D01*
X124317142Y-91956000D01*
X124269523Y-92003619D01*
X124221904Y-92098857D01*
X124221904Y-92336952D01*
X124269523Y-92432190D01*
X124317142Y-92479809D01*
X124412380Y-92527428D01*
X124602857Y-92527428D01*
X124698095Y-92479809D01*
X124745714Y-92432190D01*
X124793333Y-92336952D01*
X125745714Y-92908380D02*
X125174285Y-92908380D01*
X125460000Y-92908380D02*
X125460000Y-91908380D01*
X125364761Y-92051238D01*
X125269523Y-92146476D01*
X125174285Y-92194095D01*
X126602857Y-92241714D02*
X126602857Y-92908380D01*
X126364761Y-91860761D02*
X126126666Y-92575047D01*
X126745714Y-92575047D01*
X116832095Y-94912380D02*
X116832095Y-93912380D01*
X117403523Y-94912380D02*
X116974952Y-94340952D01*
X117403523Y-93912380D02*
X116832095Y-94483809D01*
%TO.C,R4*%
X115657333Y-110688380D02*
X115324000Y-110212190D01*
X115085904Y-110688380D02*
X115085904Y-109688380D01*
X115466857Y-109688380D01*
X115562095Y-109736000D01*
X115609714Y-109783619D01*
X115657333Y-109878857D01*
X115657333Y-110021714D01*
X115609714Y-110116952D01*
X115562095Y-110164571D01*
X115466857Y-110212190D01*
X115085904Y-110212190D01*
X116514476Y-110021714D02*
X116514476Y-110688380D01*
X116276380Y-109640761D02*
X116038285Y-110355047D01*
X116657333Y-110355047D01*
X111569523Y-110688380D02*
X110998095Y-110688380D01*
X111283809Y-110688380D02*
X111283809Y-109688380D01*
X111188571Y-109831238D01*
X111093333Y-109926476D01*
X110998095Y-109974095D01*
X112188571Y-109688380D02*
X112283809Y-109688380D01*
X112379047Y-109736000D01*
X112426666Y-109783619D01*
X112474285Y-109878857D01*
X112521904Y-110069333D01*
X112521904Y-110307428D01*
X112474285Y-110497904D01*
X112426666Y-110593142D01*
X112379047Y-110640761D01*
X112283809Y-110688380D01*
X112188571Y-110688380D01*
X112093333Y-110640761D01*
X112045714Y-110593142D01*
X111998095Y-110497904D01*
X111950476Y-110307428D01*
X111950476Y-110069333D01*
X111998095Y-109878857D01*
X112045714Y-109783619D01*
X112093333Y-109736000D01*
X112188571Y-109688380D01*
%TO.C,R3*%
X115149333Y-114244380D02*
X114816000Y-113768190D01*
X114577904Y-114244380D02*
X114577904Y-113244380D01*
X114958857Y-113244380D01*
X115054095Y-113292000D01*
X115101714Y-113339619D01*
X115149333Y-113434857D01*
X115149333Y-113577714D01*
X115101714Y-113672952D01*
X115054095Y-113720571D01*
X114958857Y-113768190D01*
X114577904Y-113768190D01*
X115482666Y-113244380D02*
X116101714Y-113244380D01*
X115768380Y-113625333D01*
X115911238Y-113625333D01*
X116006476Y-113672952D01*
X116054095Y-113720571D01*
X116101714Y-113815809D01*
X116101714Y-114053904D01*
X116054095Y-114149142D01*
X116006476Y-114196761D01*
X115911238Y-114244380D01*
X115625523Y-114244380D01*
X115530285Y-114196761D01*
X115482666Y-114149142D01*
X110950476Y-114260380D02*
X111569523Y-114260380D01*
X111236190Y-114641333D01*
X111379047Y-114641333D01*
X111474285Y-114688952D01*
X111521904Y-114736571D01*
X111569523Y-114831809D01*
X111569523Y-115069904D01*
X111521904Y-115165142D01*
X111474285Y-115212761D01*
X111379047Y-115260380D01*
X111093333Y-115260380D01*
X110998095Y-115212761D01*
X110950476Y-115165142D01*
X111902857Y-114260380D02*
X112521904Y-114260380D01*
X112188571Y-114641333D01*
X112331428Y-114641333D01*
X112426666Y-114688952D01*
X112474285Y-114736571D01*
X112521904Y-114831809D01*
X112521904Y-115069904D01*
X112474285Y-115165142D01*
X112426666Y-115212761D01*
X112331428Y-115260380D01*
X112045714Y-115260380D01*
X111950476Y-115212761D01*
X111902857Y-115165142D01*
%TO.C,U2*%
X114768380Y-101345904D02*
X115577904Y-101345904D01*
X115673142Y-101298285D01*
X115720761Y-101250666D01*
X115768380Y-101155428D01*
X115768380Y-100964952D01*
X115720761Y-100869714D01*
X115673142Y-100822095D01*
X115577904Y-100774476D01*
X114768380Y-100774476D01*
X114863619Y-100345904D02*
X114816000Y-100298285D01*
X114768380Y-100203047D01*
X114768380Y-99964952D01*
X114816000Y-99869714D01*
X114863619Y-99822095D01*
X114958857Y-99774476D01*
X115054095Y-99774476D01*
X115196952Y-99822095D01*
X115768380Y-100393523D01*
X115768380Y-99774476D01*
X108474095Y-100036380D02*
X108283619Y-100036380D01*
X108188380Y-100084000D01*
X108140761Y-100131619D01*
X108045523Y-100274476D01*
X107997904Y-100464952D01*
X107997904Y-100845904D01*
X108045523Y-100941142D01*
X108093142Y-100988761D01*
X108188380Y-101036380D01*
X108378857Y-101036380D01*
X108474095Y-100988761D01*
X108521714Y-100941142D01*
X108569333Y-100845904D01*
X108569333Y-100607809D01*
X108521714Y-100512571D01*
X108474095Y-100464952D01*
X108378857Y-100417333D01*
X108188380Y-100417333D01*
X108093142Y-100464952D01*
X108045523Y-100512571D01*
X107997904Y-100607809D01*
X108997904Y-101036380D02*
X108997904Y-100036380D01*
X109569333Y-101036380D01*
X109569333Y-100036380D01*
X110569333Y-101036380D02*
X109997904Y-101036380D01*
X110283619Y-101036380D02*
X110283619Y-100036380D01*
X110188380Y-100179238D01*
X110093142Y-100274476D01*
X109997904Y-100322095D01*
X110902666Y-100036380D02*
X111521714Y-100036380D01*
X111188380Y-100417333D01*
X111331238Y-100417333D01*
X111426476Y-100464952D01*
X111474095Y-100512571D01*
X111521714Y-100607809D01*
X111521714Y-100845904D01*
X111474095Y-100941142D01*
X111426476Y-100988761D01*
X111331238Y-101036380D01*
X111045523Y-101036380D01*
X110950285Y-100988761D01*
X110902666Y-100941142D01*
X112093142Y-100464952D02*
X111997904Y-100417333D01*
X111950285Y-100369714D01*
X111902666Y-100274476D01*
X111902666Y-100226857D01*
X111950285Y-100131619D01*
X111997904Y-100084000D01*
X112093142Y-100036380D01*
X112283619Y-100036380D01*
X112378857Y-100084000D01*
X112426476Y-100131619D01*
X112474095Y-100226857D01*
X112474095Y-100274476D01*
X112426476Y-100369714D01*
X112378857Y-100417333D01*
X112283619Y-100464952D01*
X112093142Y-100464952D01*
X111997904Y-100512571D01*
X111950285Y-100560190D01*
X111902666Y-100655428D01*
X111902666Y-100845904D01*
X111950285Y-100941142D01*
X111997904Y-100988761D01*
X112093142Y-101036380D01*
X112283619Y-101036380D01*
X112378857Y-100988761D01*
X112426476Y-100941142D01*
X112474095Y-100845904D01*
X112474095Y-100655428D01*
X112426476Y-100560190D01*
X112378857Y-100512571D01*
X112283619Y-100464952D01*
%TO.C,SW1*%
X113596666Y-70928761D02*
X113739523Y-70976380D01*
X113977619Y-70976380D01*
X114072857Y-70928761D01*
X114120476Y-70881142D01*
X114168095Y-70785904D01*
X114168095Y-70690666D01*
X114120476Y-70595428D01*
X114072857Y-70547809D01*
X113977619Y-70500190D01*
X113787142Y-70452571D01*
X113691904Y-70404952D01*
X113644285Y-70357333D01*
X113596666Y-70262095D01*
X113596666Y-70166857D01*
X113644285Y-70071619D01*
X113691904Y-70024000D01*
X113787142Y-69976380D01*
X114025238Y-69976380D01*
X114168095Y-70024000D01*
X114501428Y-69976380D02*
X114739523Y-70976380D01*
X114930000Y-70262095D01*
X115120476Y-70976380D01*
X115358571Y-69976380D01*
X116263333Y-70976380D02*
X115691904Y-70976380D01*
X115977619Y-70976380D02*
X115977619Y-69976380D01*
X115882380Y-70119238D01*
X115787142Y-70214476D01*
X115691904Y-70262095D01*
X112296666Y-86076380D02*
X111963333Y-85600190D01*
X111725238Y-86076380D02*
X111725238Y-85076380D01*
X112106190Y-85076380D01*
X112201428Y-85124000D01*
X112249047Y-85171619D01*
X112296666Y-85266857D01*
X112296666Y-85409714D01*
X112249047Y-85504952D01*
X112201428Y-85552571D01*
X112106190Y-85600190D01*
X111725238Y-85600190D01*
X112868095Y-86076380D02*
X112772857Y-86028761D01*
X112725238Y-85981142D01*
X112677619Y-85885904D01*
X112677619Y-85600190D01*
X112725238Y-85504952D01*
X112772857Y-85457333D01*
X112868095Y-85409714D01*
X113010952Y-85409714D01*
X113106190Y-85457333D01*
X113153809Y-85504952D01*
X113201428Y-85600190D01*
X113201428Y-85885904D01*
X113153809Y-85981142D01*
X113106190Y-86028761D01*
X113010952Y-86076380D01*
X112868095Y-86076380D01*
X113487142Y-85409714D02*
X113868095Y-85409714D01*
X113630000Y-85076380D02*
X113630000Y-85933523D01*
X113677619Y-86028761D01*
X113772857Y-86076380D01*
X113868095Y-86076380D01*
X114630000Y-86076380D02*
X114630000Y-85552571D01*
X114582380Y-85457333D01*
X114487142Y-85409714D01*
X114296666Y-85409714D01*
X114201428Y-85457333D01*
X114630000Y-86028761D02*
X114534761Y-86076380D01*
X114296666Y-86076380D01*
X114201428Y-86028761D01*
X114153809Y-85933523D01*
X114153809Y-85838285D01*
X114201428Y-85743047D01*
X114296666Y-85695428D01*
X114534761Y-85695428D01*
X114630000Y-85647809D01*
X115106190Y-86076380D02*
X115106190Y-85409714D01*
X115106190Y-85600190D02*
X115153809Y-85504952D01*
X115201428Y-85457333D01*
X115296666Y-85409714D01*
X115391904Y-85409714D01*
X115630000Y-85409714D02*
X115868095Y-86076380D01*
X116106190Y-85409714D02*
X115868095Y-86076380D01*
X115772857Y-86314476D01*
X115725238Y-86362095D01*
X115630000Y-86409714D01*
X116487142Y-85552571D02*
X116820476Y-85552571D01*
X116963333Y-86076380D02*
X116487142Y-86076380D01*
X116487142Y-85076380D01*
X116963333Y-85076380D01*
X117391904Y-85409714D02*
X117391904Y-86076380D01*
X117391904Y-85504952D02*
X117439523Y-85457333D01*
X117534761Y-85409714D01*
X117677619Y-85409714D01*
X117772857Y-85457333D01*
X117820476Y-85552571D01*
X117820476Y-86076380D01*
X118725238Y-86028761D02*
X118630000Y-86076380D01*
X118439523Y-86076380D01*
X118344285Y-86028761D01*
X118296666Y-85981142D01*
X118249047Y-85885904D01*
X118249047Y-85600190D01*
X118296666Y-85504952D01*
X118344285Y-85457333D01*
X118439523Y-85409714D01*
X118630000Y-85409714D01*
X118725238Y-85457333D01*
X119296666Y-86076380D02*
X119201428Y-86028761D01*
X119153809Y-85981142D01*
X119106190Y-85885904D01*
X119106190Y-85600190D01*
X119153809Y-85504952D01*
X119201428Y-85457333D01*
X119296666Y-85409714D01*
X119439523Y-85409714D01*
X119534761Y-85457333D01*
X119582380Y-85504952D01*
X119630000Y-85600190D01*
X119630000Y-85885904D01*
X119582380Y-85981142D01*
X119534761Y-86028761D01*
X119439523Y-86076380D01*
X119296666Y-86076380D01*
X120487142Y-86076380D02*
X120487142Y-85076380D01*
X120487142Y-86028761D02*
X120391904Y-86076380D01*
X120201428Y-86076380D01*
X120106190Y-86028761D01*
X120058571Y-85981142D01*
X120010952Y-85885904D01*
X120010952Y-85600190D01*
X120058571Y-85504952D01*
X120106190Y-85457333D01*
X120201428Y-85409714D01*
X120391904Y-85409714D01*
X120487142Y-85457333D01*
X121344285Y-86028761D02*
X121249047Y-86076380D01*
X121058571Y-86076380D01*
X120963333Y-86028761D01*
X120915714Y-85933523D01*
X120915714Y-85552571D01*
X120963333Y-85457333D01*
X121058571Y-85409714D01*
X121249047Y-85409714D01*
X121344285Y-85457333D01*
X121391904Y-85552571D01*
X121391904Y-85647809D01*
X120915714Y-85743047D01*
X121820476Y-86076380D02*
X121820476Y-85409714D01*
X121820476Y-85600190D02*
X121868095Y-85504952D01*
X121915714Y-85457333D01*
X122010952Y-85409714D01*
X122106190Y-85409714D01*
X122201428Y-86171619D02*
X122963333Y-86171619D01*
X123153809Y-86028761D02*
X123296666Y-86076380D01*
X123534761Y-86076380D01*
X123629999Y-86028761D01*
X123677619Y-85981142D01*
X123725238Y-85885904D01*
X123725238Y-85790666D01*
X123677619Y-85695428D01*
X123629999Y-85647809D01*
X123534761Y-85600190D01*
X123344285Y-85552571D01*
X123249047Y-85504952D01*
X123201428Y-85457333D01*
X123153809Y-85362095D01*
X123153809Y-85266857D01*
X123201428Y-85171619D01*
X123249047Y-85124000D01*
X123344285Y-85076380D01*
X123582380Y-85076380D01*
X123725238Y-85124000D01*
X124058571Y-85409714D02*
X124249047Y-86076380D01*
X124439523Y-85600190D01*
X124629999Y-86076380D01*
X124820476Y-85409714D01*
X125201428Y-86076380D02*
X125201428Y-85409714D01*
X125201428Y-85076380D02*
X125153809Y-85124000D01*
X125201428Y-85171619D01*
X125249047Y-85124000D01*
X125201428Y-85076380D01*
X125201428Y-85171619D01*
X125534761Y-85409714D02*
X125915714Y-85409714D01*
X125677619Y-85076380D02*
X125677619Y-85933523D01*
X125725238Y-86028761D01*
X125820476Y-86076380D01*
X125915714Y-86076380D01*
X126677619Y-86028761D02*
X126582380Y-86076380D01*
X126391904Y-86076380D01*
X126296666Y-86028761D01*
X126249047Y-85981142D01*
X126201428Y-85885904D01*
X126201428Y-85600190D01*
X126249047Y-85504952D01*
X126296666Y-85457333D01*
X126391904Y-85409714D01*
X126582380Y-85409714D01*
X126677619Y-85457333D01*
X127106190Y-86076380D02*
X127106190Y-85076380D01*
X127534761Y-86076380D02*
X127534761Y-85552571D01*
X127487142Y-85457333D01*
X127391904Y-85409714D01*
X127249047Y-85409714D01*
X127153809Y-85457333D01*
X127106190Y-85504952D01*
%TO.C,C3*%
X137633633Y-112471142D02*
X137586014Y-112518761D01*
X137443157Y-112566380D01*
X137347919Y-112566380D01*
X137205061Y-112518761D01*
X137109823Y-112423523D01*
X137062204Y-112328285D01*
X137014585Y-112137809D01*
X137014585Y-111994952D01*
X137062204Y-111804476D01*
X137109823Y-111709238D01*
X137205061Y-111614000D01*
X137347919Y-111566380D01*
X137443157Y-111566380D01*
X137586014Y-111614000D01*
X137633633Y-111661619D01*
X137966966Y-111566380D02*
X138586014Y-111566380D01*
X138252680Y-111947333D01*
X138395538Y-111947333D01*
X138490776Y-111994952D01*
X138538395Y-112042571D01*
X138586014Y-112137809D01*
X138586014Y-112375904D01*
X138538395Y-112471142D01*
X138490776Y-112518761D01*
X138395538Y-112566380D01*
X138109823Y-112566380D01*
X138014585Y-112518761D01*
X137966966Y-112471142D01*
X136205061Y-125066380D02*
X135633633Y-125066380D01*
X135919347Y-125066380D02*
X135919347Y-124066380D01*
X135824109Y-124209238D01*
X135728871Y-124304476D01*
X135633633Y-124352095D01*
X136824109Y-124066380D02*
X136919347Y-124066380D01*
X137014585Y-124114000D01*
X137062204Y-124161619D01*
X137109823Y-124256857D01*
X137157442Y-124447333D01*
X137157442Y-124685428D01*
X137109823Y-124875904D01*
X137062204Y-124971142D01*
X137014585Y-125018761D01*
X136919347Y-125066380D01*
X136824109Y-125066380D01*
X136728871Y-125018761D01*
X136681252Y-124971142D01*
X136633633Y-124875904D01*
X136586014Y-124685428D01*
X136586014Y-124447333D01*
X136633633Y-124256857D01*
X136681252Y-124161619D01*
X136728871Y-124114000D01*
X136824109Y-124066380D01*
X137776490Y-124066380D02*
X137871728Y-124066380D01*
X137966966Y-124114000D01*
X138014585Y-124161619D01*
X138062204Y-124256857D01*
X138109823Y-124447333D01*
X138109823Y-124685428D01*
X138062204Y-124875904D01*
X138014585Y-124971142D01*
X137966966Y-125018761D01*
X137871728Y-125066380D01*
X137776490Y-125066380D01*
X137681252Y-125018761D01*
X137633633Y-124971142D01*
X137586014Y-124875904D01*
X137538395Y-124685428D01*
X137538395Y-124447333D01*
X137586014Y-124256857D01*
X137633633Y-124161619D01*
X137681252Y-124114000D01*
X137776490Y-124066380D01*
X138728871Y-124066380D02*
X138824109Y-124066380D01*
X138919347Y-124114000D01*
X138966966Y-124161619D01*
X139014585Y-124256857D01*
X139062204Y-124447333D01*
X139062204Y-124685428D01*
X139014585Y-124875904D01*
X138966966Y-124971142D01*
X138919347Y-125018761D01*
X138824109Y-125066380D01*
X138728871Y-125066380D01*
X138633633Y-125018761D01*
X138586014Y-124971142D01*
X138538395Y-124875904D01*
X138490776Y-124685428D01*
X138490776Y-124447333D01*
X138538395Y-124256857D01*
X138586014Y-124161619D01*
X138633633Y-124114000D01*
X138728871Y-124066380D01*
X139919347Y-124399714D02*
X139919347Y-125066380D01*
X139490776Y-124399714D02*
X139490776Y-124923523D01*
X139538395Y-125018761D01*
X139633633Y-125066380D01*
X139776490Y-125066380D01*
X139871728Y-125018761D01*
X139919347Y-124971142D01*
%TO.C,J9*%
X126666666Y-115773380D02*
X126666666Y-116487666D01*
X126619047Y-116630523D01*
X126523809Y-116725761D01*
X126380952Y-116773380D01*
X126285714Y-116773380D01*
X127190476Y-116773380D02*
X127380952Y-116773380D01*
X127476190Y-116725761D01*
X127523809Y-116678142D01*
X127619047Y-116535285D01*
X127666666Y-116344809D01*
X127666666Y-115963857D01*
X127619047Y-115868619D01*
X127571428Y-115821000D01*
X127476190Y-115773380D01*
X127285714Y-115773380D01*
X127190476Y-115821000D01*
X127142857Y-115868619D01*
X127095238Y-115963857D01*
X127095238Y-116201952D01*
X127142857Y-116297190D01*
X127190476Y-116344809D01*
X127285714Y-116392428D01*
X127476190Y-116392428D01*
X127571428Y-116344809D01*
X127619047Y-116297190D01*
X127666666Y-116201952D01*
X124833333Y-123923380D02*
X125023809Y-123923380D01*
X125119047Y-123971000D01*
X125214285Y-124066238D01*
X125261904Y-124256714D01*
X125261904Y-124590047D01*
X125214285Y-124780523D01*
X125119047Y-124875761D01*
X125023809Y-124923380D01*
X124833333Y-124923380D01*
X124738095Y-124875761D01*
X124642857Y-124780523D01*
X124595238Y-124590047D01*
X124595238Y-124256714D01*
X124642857Y-124066238D01*
X124738095Y-123971000D01*
X124833333Y-123923380D01*
X125690476Y-124256714D02*
X125690476Y-124923380D01*
X125690476Y-124351952D02*
X125738095Y-124304333D01*
X125833333Y-124256714D01*
X125976190Y-124256714D01*
X126071428Y-124304333D01*
X126119047Y-124399571D01*
X126119047Y-124923380D01*
X127309523Y-123875761D02*
X126452380Y-125161476D01*
X127833333Y-123923380D02*
X128023809Y-123923380D01*
X128119047Y-123971000D01*
X128214285Y-124066238D01*
X128261904Y-124256714D01*
X128261904Y-124590047D01*
X128214285Y-124780523D01*
X128119047Y-124875761D01*
X128023809Y-124923380D01*
X127833333Y-124923380D01*
X127738095Y-124875761D01*
X127642857Y-124780523D01*
X127595238Y-124590047D01*
X127595238Y-124256714D01*
X127642857Y-124066238D01*
X127738095Y-123971000D01*
X127833333Y-123923380D01*
X128547619Y-124256714D02*
X128928571Y-124256714D01*
X128690476Y-124923380D02*
X128690476Y-124066238D01*
X128738095Y-123971000D01*
X128833333Y-123923380D01*
X128928571Y-123923380D01*
X129119047Y-124256714D02*
X129500000Y-124256714D01*
X129261904Y-124923380D02*
X129261904Y-124066238D01*
X129309523Y-123971000D01*
X129404761Y-123923380D01*
X129500000Y-123923380D01*
%TO.C,C1*%
X123188733Y-115085142D02*
X123141114Y-115132761D01*
X122998257Y-115180380D01*
X122903019Y-115180380D01*
X122760161Y-115132761D01*
X122664923Y-115037523D01*
X122617304Y-114942285D01*
X122569685Y-114751809D01*
X122569685Y-114608952D01*
X122617304Y-114418476D01*
X122664923Y-114323238D01*
X122760161Y-114228000D01*
X122903019Y-114180380D01*
X122998257Y-114180380D01*
X123141114Y-114228000D01*
X123188733Y-114275619D01*
X124141114Y-115180380D02*
X123569685Y-115180380D01*
X123855400Y-115180380D02*
X123855400Y-114180380D01*
X123760161Y-114323238D01*
X123664923Y-114418476D01*
X123569685Y-114466095D01*
X122236352Y-105180380D02*
X121664923Y-105180380D01*
X121950638Y-105180380D02*
X121950638Y-104180380D01*
X121855400Y-104323238D01*
X121760161Y-104418476D01*
X121664923Y-104466095D01*
X122855400Y-104180380D02*
X122950638Y-104180380D01*
X123045876Y-104228000D01*
X123093495Y-104275619D01*
X123141114Y-104370857D01*
X123188733Y-104561333D01*
X123188733Y-104799428D01*
X123141114Y-104989904D01*
X123093495Y-105085142D01*
X123045876Y-105132761D01*
X122950638Y-105180380D01*
X122855400Y-105180380D01*
X122760161Y-105132761D01*
X122712542Y-105085142D01*
X122664923Y-104989904D01*
X122617304Y-104799428D01*
X122617304Y-104561333D01*
X122664923Y-104370857D01*
X122712542Y-104275619D01*
X122760161Y-104228000D01*
X122855400Y-104180380D01*
X123807780Y-104180380D02*
X123903019Y-104180380D01*
X123998257Y-104228000D01*
X124045876Y-104275619D01*
X124093495Y-104370857D01*
X124141114Y-104561333D01*
X124141114Y-104799428D01*
X124093495Y-104989904D01*
X124045876Y-105085142D01*
X123998257Y-105132761D01*
X123903019Y-105180380D01*
X123807780Y-105180380D01*
X123712542Y-105132761D01*
X123664923Y-105085142D01*
X123617304Y-104989904D01*
X123569685Y-104799428D01*
X123569685Y-104561333D01*
X123617304Y-104370857D01*
X123664923Y-104275619D01*
X123712542Y-104228000D01*
X123807780Y-104180380D01*
X124998257Y-104513714D02*
X124998257Y-105180380D01*
X124569685Y-104513714D02*
X124569685Y-105037523D01*
X124617304Y-105132761D01*
X124712542Y-105180380D01*
X124855400Y-105180380D01*
X124950638Y-105132761D01*
X124998257Y-105085142D01*
%TO.C,J5*%
X142160666Y-77736380D02*
X142160666Y-78450666D01*
X142113047Y-78593523D01*
X142017809Y-78688761D01*
X141874952Y-78736380D01*
X141779714Y-78736380D01*
X143113047Y-77736380D02*
X142636857Y-77736380D01*
X142589238Y-78212571D01*
X142636857Y-78164952D01*
X142732095Y-78117333D01*
X142970190Y-78117333D01*
X143065428Y-78164952D01*
X143113047Y-78212571D01*
X143160666Y-78307809D01*
X143160666Y-78545904D01*
X143113047Y-78641142D01*
X143065428Y-78688761D01*
X142970190Y-78736380D01*
X142732095Y-78736380D01*
X142636857Y-78688761D01*
X142589238Y-78641142D01*
X136478095Y-71524761D02*
X136620952Y-71572380D01*
X136859047Y-71572380D01*
X136954285Y-71524761D01*
X137001904Y-71477142D01*
X137049523Y-71381904D01*
X137049523Y-71286666D01*
X137001904Y-71191428D01*
X136954285Y-71143809D01*
X136859047Y-71096190D01*
X136668571Y-71048571D01*
X136573333Y-71000952D01*
X136525714Y-70953333D01*
X136478095Y-70858095D01*
X136478095Y-70762857D01*
X136525714Y-70667619D01*
X136573333Y-70620000D01*
X136668571Y-70572380D01*
X136906666Y-70572380D01*
X137049523Y-70620000D01*
X137430476Y-71524761D02*
X137573333Y-71572380D01*
X137811428Y-71572380D01*
X137906666Y-71524761D01*
X137954285Y-71477142D01*
X138001904Y-71381904D01*
X138001904Y-71286666D01*
X137954285Y-71191428D01*
X137906666Y-71143809D01*
X137811428Y-71096190D01*
X137620952Y-71048571D01*
X137525714Y-71000952D01*
X137478095Y-70953333D01*
X137430476Y-70858095D01*
X137430476Y-70762857D01*
X137478095Y-70667619D01*
X137525714Y-70620000D01*
X137620952Y-70572380D01*
X137859047Y-70572380D01*
X138001904Y-70620000D01*
X138430476Y-71572380D02*
X138430476Y-70572380D01*
X138668571Y-70572380D01*
X138811428Y-70620000D01*
X138906666Y-70715238D01*
X138954285Y-70810476D01*
X139001904Y-71000952D01*
X139001904Y-71143809D01*
X138954285Y-71334285D01*
X138906666Y-71429523D01*
X138811428Y-71524761D01*
X138668571Y-71572380D01*
X138430476Y-71572380D01*
X139954285Y-71572380D02*
X139382857Y-71572380D01*
X139668571Y-71572380D02*
X139668571Y-70572380D01*
X139573333Y-70715238D01*
X139478095Y-70810476D01*
X139382857Y-70858095D01*
X140287619Y-70572380D02*
X140906666Y-70572380D01*
X140573333Y-70953333D01*
X140716190Y-70953333D01*
X140811428Y-71000952D01*
X140859047Y-71048571D01*
X140906666Y-71143809D01*
X140906666Y-71381904D01*
X140859047Y-71477142D01*
X140811428Y-71524761D01*
X140716190Y-71572380D01*
X140430476Y-71572380D01*
X140335238Y-71524761D01*
X140287619Y-71477142D01*
X141525714Y-70572380D02*
X141620952Y-70572380D01*
X141716190Y-70620000D01*
X141763809Y-70667619D01*
X141811428Y-70762857D01*
X141859047Y-70953333D01*
X141859047Y-71191428D01*
X141811428Y-71381904D01*
X141763809Y-71477142D01*
X141716190Y-71524761D01*
X141620952Y-71572380D01*
X141525714Y-71572380D01*
X141430476Y-71524761D01*
X141382857Y-71477142D01*
X141335238Y-71381904D01*
X141287619Y-71191428D01*
X141287619Y-70953333D01*
X141335238Y-70762857D01*
X141382857Y-70667619D01*
X141430476Y-70620000D01*
X141525714Y-70572380D01*
X142716190Y-70572380D02*
X142525714Y-70572380D01*
X142430476Y-70620000D01*
X142382857Y-70667619D01*
X142287619Y-70810476D01*
X142240000Y-71000952D01*
X142240000Y-71381904D01*
X142287619Y-71477142D01*
X142335238Y-71524761D01*
X142430476Y-71572380D01*
X142620952Y-71572380D01*
X142716190Y-71524761D01*
X142763809Y-71477142D01*
X142811428Y-71381904D01*
X142811428Y-71143809D01*
X142763809Y-71048571D01*
X142716190Y-71000952D01*
X142620952Y-70953333D01*
X142430476Y-70953333D01*
X142335238Y-71000952D01*
X142287619Y-71048571D01*
X142240000Y-71143809D01*
X144001904Y-71191428D02*
X144763809Y-71191428D01*
X146001904Y-71572380D02*
X146001904Y-70572380D01*
X146430476Y-70667619D02*
X146478095Y-70620000D01*
X146573333Y-70572380D01*
X146811428Y-70572380D01*
X146906666Y-70620000D01*
X146954285Y-70667619D01*
X147001904Y-70762857D01*
X147001904Y-70858095D01*
X146954285Y-71000952D01*
X146382857Y-71572380D01*
X147001904Y-71572380D01*
X148001904Y-71477142D02*
X147954285Y-71524761D01*
X147811428Y-71572380D01*
X147716190Y-71572380D01*
X147573333Y-71524761D01*
X147478095Y-71429523D01*
X147430476Y-71334285D01*
X147382857Y-71143809D01*
X147382857Y-71000952D01*
X147430476Y-70810476D01*
X147478095Y-70715238D01*
X147573333Y-70620000D01*
X147716190Y-70572380D01*
X147811428Y-70572380D01*
X147954285Y-70620000D01*
X148001904Y-70667619D01*
%TO.C,U3*%
X128684380Y-56641904D02*
X129493904Y-56641904D01*
X129589142Y-56594285D01*
X129636761Y-56546666D01*
X129684380Y-56451428D01*
X129684380Y-56260952D01*
X129636761Y-56165714D01*
X129589142Y-56118095D01*
X129493904Y-56070476D01*
X128684380Y-56070476D01*
X128684380Y-55689523D02*
X128684380Y-55070476D01*
X129065333Y-55403809D01*
X129065333Y-55260952D01*
X129112952Y-55165714D01*
X129160571Y-55118095D01*
X129255809Y-55070476D01*
X129493904Y-55070476D01*
X129589142Y-55118095D01*
X129636761Y-55165714D01*
X129684380Y-55260952D01*
X129684380Y-55546666D01*
X129636761Y-55641904D01*
X129589142Y-55689523D01*
X118124380Y-59522857D02*
X118124380Y-58856190D01*
X119124380Y-59284761D01*
X118457714Y-58046666D02*
X119124380Y-58046666D01*
X118076761Y-58284761D02*
X118791047Y-58522857D01*
X118791047Y-57903809D01*
X119124380Y-57522857D02*
X118124380Y-57522857D01*
X118600571Y-57522857D02*
X118600571Y-56951428D01*
X119124380Y-56951428D02*
X118124380Y-56951428D01*
X119029142Y-55903809D02*
X119076761Y-55951428D01*
X119124380Y-56094285D01*
X119124380Y-56189523D01*
X119076761Y-56332380D01*
X118981523Y-56427619D01*
X118886285Y-56475238D01*
X118695809Y-56522857D01*
X118552952Y-56522857D01*
X118362476Y-56475238D01*
X118267238Y-56427619D01*
X118172000Y-56332380D01*
X118124380Y-56189523D01*
X118124380Y-56094285D01*
X118172000Y-55951428D01*
X118219619Y-55903809D01*
X118124380Y-55618095D02*
X118124380Y-55046666D01*
X119124380Y-55332380D02*
X118124380Y-55332380D01*
X119124380Y-54189523D02*
X119124380Y-54760952D01*
X119124380Y-54475238D02*
X118124380Y-54475238D01*
X118267238Y-54570476D01*
X118362476Y-54665714D01*
X118410095Y-54760952D01*
X118219619Y-53808571D02*
X118172000Y-53760952D01*
X118124380Y-53665714D01*
X118124380Y-53427619D01*
X118172000Y-53332380D01*
X118219619Y-53284761D01*
X118314857Y-53237142D01*
X118410095Y-53237142D01*
X118552952Y-53284761D01*
X119124380Y-53856190D01*
X119124380Y-53237142D01*
X118124380Y-52332380D02*
X118124380Y-52808571D01*
X118600571Y-52856190D01*
X118552952Y-52808571D01*
X118505333Y-52713333D01*
X118505333Y-52475238D01*
X118552952Y-52380000D01*
X118600571Y-52332380D01*
X118695809Y-52284761D01*
X118933904Y-52284761D01*
X119029142Y-52332380D01*
X119076761Y-52380000D01*
X119124380Y-52475238D01*
X119124380Y-52713333D01*
X119076761Y-52808571D01*
X119029142Y-52856190D01*
%TO.C,U1*%
X123658380Y-55625904D02*
X124467904Y-55625904D01*
X124563142Y-55578285D01*
X124610761Y-55530666D01*
X124658380Y-55435428D01*
X124658380Y-55244952D01*
X124610761Y-55149714D01*
X124563142Y-55102095D01*
X124467904Y-55054476D01*
X123658380Y-55054476D01*
X124658380Y-54054476D02*
X124658380Y-54625904D01*
X124658380Y-54340190D02*
X123658380Y-54340190D01*
X123801238Y-54435428D01*
X123896476Y-54530666D01*
X123944095Y-54625904D01*
X111196380Y-53196952D02*
X110196380Y-53196952D01*
X110196380Y-52816000D01*
X110244000Y-52720761D01*
X110291619Y-52673142D01*
X110386857Y-52625523D01*
X110529714Y-52625523D01*
X110624952Y-52673142D01*
X110672571Y-52720761D01*
X110720190Y-52816000D01*
X110720190Y-53196952D01*
X111196380Y-52196952D02*
X110529714Y-52196952D01*
X110196380Y-52196952D02*
X110244000Y-52244571D01*
X110291619Y-52196952D01*
X110244000Y-52149333D01*
X110196380Y-52196952D01*
X110291619Y-52196952D01*
X111148761Y-51292190D02*
X111196380Y-51387428D01*
X111196380Y-51577904D01*
X111148761Y-51673142D01*
X111101142Y-51720761D01*
X111005904Y-51768380D01*
X110720190Y-51768380D01*
X110624952Y-51720761D01*
X110577333Y-51673142D01*
X110529714Y-51577904D01*
X110529714Y-51387428D01*
X110577333Y-51292190D01*
X111196380Y-50720761D02*
X111148761Y-50816000D01*
X111101142Y-50863619D01*
X111005904Y-50911238D01*
X110720190Y-50911238D01*
X110624952Y-50863619D01*
X110577333Y-50816000D01*
X110529714Y-50720761D01*
X110529714Y-50577904D01*
X110577333Y-50482666D01*
X110624952Y-50435047D01*
X110720190Y-50387428D01*
X111005904Y-50387428D01*
X111101142Y-50435047D01*
X111148761Y-50482666D01*
X111196380Y-50577904D01*
X111196380Y-50720761D01*
X118004155Y-68377841D02*
X118031093Y-68458653D01*
X118111905Y-68539465D01*
X118219654Y-68593340D01*
X118327404Y-68593340D01*
X118408216Y-68566402D01*
X118542903Y-68485590D01*
X118623715Y-68404778D01*
X118704528Y-68270091D01*
X118731465Y-68189279D01*
X118731465Y-68081529D01*
X118677590Y-67973780D01*
X118623715Y-67919905D01*
X118515966Y-67866030D01*
X118462091Y-67866030D01*
X118273529Y-68054592D01*
X118381279Y-68162341D01*
X118273529Y-67569719D02*
X117707844Y-68135404D01*
X117950280Y-67246470D01*
X117384595Y-67812155D01*
X117680906Y-66977096D02*
X117115221Y-67542781D01*
X116980534Y-67408094D01*
X116926659Y-67300345D01*
X116926659Y-67192595D01*
X116953597Y-67111783D01*
X117034409Y-66977096D01*
X117115221Y-66896284D01*
X117249908Y-66815471D01*
X117330720Y-66788534D01*
X117438470Y-66788534D01*
X117546219Y-66842409D01*
X117680906Y-66977096D01*
X140598592Y-69636277D02*
X140625529Y-69717089D01*
X140706341Y-69797902D01*
X140814091Y-69851776D01*
X140921841Y-69851776D01*
X141002653Y-69824839D01*
X141137340Y-69744027D01*
X141218152Y-69663215D01*
X141298964Y-69528528D01*
X141325902Y-69447715D01*
X141325902Y-69339966D01*
X141272027Y-69232216D01*
X141218152Y-69178341D01*
X141110402Y-69124467D01*
X141056528Y-69124467D01*
X140867966Y-69313028D01*
X140975715Y-69420778D01*
X140867966Y-68828155D02*
X140302280Y-69393841D01*
X140086781Y-69178341D01*
X140059844Y-69097529D01*
X140059844Y-69043654D01*
X140086781Y-68962842D01*
X140167593Y-68882030D01*
X140248406Y-68855093D01*
X140302280Y-68855093D01*
X140383093Y-68882030D01*
X140598592Y-69097529D01*
X140005969Y-67966158D02*
X140329218Y-68289407D01*
X140167593Y-68127783D02*
X139601908Y-68693468D01*
X139736595Y-68666531D01*
X139844345Y-68666531D01*
X139925157Y-68693468D01*
X138928473Y-68020033D02*
X139197847Y-68289407D01*
X139494158Y-68046971D01*
X139440284Y-68046971D01*
X139359471Y-68020033D01*
X139224784Y-67885346D01*
X139197847Y-67804534D01*
X139197847Y-67750659D01*
X139224784Y-67669847D01*
X139359471Y-67535160D01*
X139440284Y-67508223D01*
X139494158Y-67508223D01*
X139574971Y-67535160D01*
X139709658Y-67669847D01*
X139736595Y-67750659D01*
X139736595Y-67804534D01*
X138058592Y-69682277D02*
X138085529Y-69763089D01*
X138166341Y-69843902D01*
X138274091Y-69897776D01*
X138381841Y-69897776D01*
X138462653Y-69870839D01*
X138597340Y-69790027D01*
X138678152Y-69709215D01*
X138758964Y-69574528D01*
X138785902Y-69493715D01*
X138785902Y-69385966D01*
X138732027Y-69278216D01*
X138678152Y-69224341D01*
X138570402Y-69170467D01*
X138516528Y-69170467D01*
X138327966Y-69359028D01*
X138435715Y-69466778D01*
X138327966Y-68874155D02*
X137762280Y-69439841D01*
X137546781Y-69224341D01*
X137519844Y-69143529D01*
X137519844Y-69089654D01*
X137546781Y-69008842D01*
X137627593Y-68928030D01*
X137708406Y-68901093D01*
X137762280Y-68901093D01*
X137843093Y-68928030D01*
X138058592Y-69143529D01*
X137465969Y-68012158D02*
X137789218Y-68335407D01*
X137627593Y-68173783D02*
X137061908Y-68739468D01*
X137196595Y-68712531D01*
X137304345Y-68712531D01*
X137385157Y-68739468D01*
X136603972Y-67904409D02*
X136981096Y-67527285D01*
X136523160Y-68254595D02*
X137061908Y-67985221D01*
X136711722Y-67635035D01*
X138566592Y-69020277D02*
X138593529Y-69101089D01*
X138674341Y-69181902D01*
X138782091Y-69235776D01*
X138889841Y-69235776D01*
X138970653Y-69208839D01*
X139105340Y-69128027D01*
X139186152Y-69047215D01*
X139266964Y-68912528D01*
X139293902Y-68831715D01*
X139293902Y-68723966D01*
X139240027Y-68616216D01*
X139186152Y-68562341D01*
X139078402Y-68508467D01*
X139024528Y-68508467D01*
X138835966Y-68697028D01*
X138943715Y-68804778D01*
X138835966Y-68212155D02*
X138270280Y-68777841D01*
X138054781Y-68562341D01*
X138027844Y-68481529D01*
X138027844Y-68427654D01*
X138054781Y-68346842D01*
X138135593Y-68266030D01*
X138216406Y-68239093D01*
X138270280Y-68239093D01*
X138351093Y-68266030D01*
X138566592Y-68481529D01*
X137973969Y-67350158D02*
X138297218Y-67673407D01*
X138135593Y-67511783D02*
X137569908Y-68077468D01*
X137704595Y-68050531D01*
X137812345Y-68050531D01*
X137893157Y-68077468D01*
X137246659Y-67646470D02*
X137192784Y-67646470D01*
X137111972Y-67619532D01*
X136977285Y-67484845D01*
X136950348Y-67404033D01*
X136950348Y-67350158D01*
X136977285Y-67269346D01*
X137031160Y-67215471D01*
X137138910Y-67161597D01*
X137785407Y-67161597D01*
X137435221Y-66811410D01*
X120517218Y-68350903D02*
X120544155Y-68431715D01*
X120624967Y-68512528D01*
X120732717Y-68566402D01*
X120840467Y-68566402D01*
X120921279Y-68539465D01*
X121055966Y-68458653D01*
X121136778Y-68377841D01*
X121217590Y-68243154D01*
X121244528Y-68162341D01*
X121244528Y-68054592D01*
X121190653Y-67946842D01*
X121136778Y-67892967D01*
X121029028Y-67839093D01*
X120975154Y-67839093D01*
X120786592Y-68027654D01*
X120894341Y-68135404D01*
X120786592Y-67542781D02*
X120220906Y-68108467D01*
X120005407Y-67892967D01*
X119978470Y-67812155D01*
X119978470Y-67758280D01*
X120005407Y-67677468D01*
X120086219Y-67596656D01*
X120167032Y-67569719D01*
X120220906Y-67569719D01*
X120301719Y-67596656D01*
X120517218Y-67812155D01*
X119412784Y-67300345D02*
X119520534Y-67408094D01*
X119601346Y-67435032D01*
X119655221Y-67435032D01*
X119789908Y-67408094D01*
X119924595Y-67327282D01*
X120140094Y-67111783D01*
X120167032Y-67030971D01*
X120167032Y-66977096D01*
X120140094Y-66896284D01*
X120032345Y-66788534D01*
X119951532Y-66761597D01*
X119897658Y-66761597D01*
X119816845Y-66788534D01*
X119682158Y-66923221D01*
X119655221Y-67004033D01*
X119655221Y-67057908D01*
X119682158Y-67138720D01*
X119789908Y-67246470D01*
X119870720Y-67273407D01*
X119924595Y-67273407D01*
X120005407Y-67246470D01*
X133486592Y-68874277D02*
X133513529Y-68955089D01*
X133594341Y-69035902D01*
X133702091Y-69089776D01*
X133809841Y-69089776D01*
X133890653Y-69062839D01*
X134025340Y-68982027D01*
X134106152Y-68901215D01*
X134186964Y-68766528D01*
X134213902Y-68685715D01*
X134213902Y-68577966D01*
X134160027Y-68470216D01*
X134106152Y-68416341D01*
X133998402Y-68362467D01*
X133944528Y-68362467D01*
X133755966Y-68551028D01*
X133863715Y-68658778D01*
X133755966Y-68066155D02*
X133190280Y-68631841D01*
X132974781Y-68416341D01*
X132947844Y-68335529D01*
X132947844Y-68281654D01*
X132974781Y-68200842D01*
X133055593Y-68120030D01*
X133136406Y-68093093D01*
X133190280Y-68093093D01*
X133271093Y-68120030D01*
X133486592Y-68335529D01*
X132893969Y-67204158D02*
X133217218Y-67527407D01*
X133055593Y-67365783D02*
X132489908Y-67931468D01*
X132624595Y-67904531D01*
X132732345Y-67904531D01*
X132813157Y-67931468D01*
X131978097Y-67419658D02*
X131924223Y-67365783D01*
X131897285Y-67284971D01*
X131897285Y-67231096D01*
X131924223Y-67150284D01*
X132005035Y-67015597D01*
X132139722Y-66880910D01*
X132274409Y-66800097D01*
X132355221Y-66773160D01*
X132409096Y-66773160D01*
X132489908Y-66800097D01*
X132543783Y-66853972D01*
X132570720Y-66934784D01*
X132570720Y-66988659D01*
X132543783Y-67069471D01*
X132462971Y-67204158D01*
X132328284Y-67338845D01*
X132193597Y-67419658D01*
X132112784Y-67446595D01*
X132058910Y-67446595D01*
X131978097Y-67419658D01*
X115437218Y-68350903D02*
X115464155Y-68431715D01*
X115544967Y-68512528D01*
X115652717Y-68566402D01*
X115760467Y-68566402D01*
X115841279Y-68539465D01*
X115975966Y-68458653D01*
X116056778Y-68377841D01*
X116137590Y-68243154D01*
X116164528Y-68162341D01*
X116164528Y-68054592D01*
X116110653Y-67946842D01*
X116056778Y-67892967D01*
X115949028Y-67839093D01*
X115895154Y-67839093D01*
X115706592Y-68027654D01*
X115814341Y-68135404D01*
X115706592Y-67542781D02*
X115140906Y-68108467D01*
X114925407Y-67892967D01*
X114898470Y-67812155D01*
X114898470Y-67758280D01*
X114925407Y-67677468D01*
X115006219Y-67596656D01*
X115087032Y-67569719D01*
X115140906Y-67569719D01*
X115221719Y-67596656D01*
X115437218Y-67812155D01*
X114305847Y-67273407D02*
X114575221Y-67542781D01*
X114871532Y-67300345D01*
X114817658Y-67300345D01*
X114736845Y-67273407D01*
X114602158Y-67138720D01*
X114575221Y-67057908D01*
X114575221Y-67004033D01*
X114602158Y-66923221D01*
X114736845Y-66788534D01*
X114817658Y-66761597D01*
X114871532Y-66761597D01*
X114952345Y-66788534D01*
X115087032Y-66923221D01*
X115113969Y-67004033D01*
X115113969Y-67057908D01*
X110357218Y-68350903D02*
X110384155Y-68431715D01*
X110464967Y-68512528D01*
X110572717Y-68566402D01*
X110680467Y-68566402D01*
X110761279Y-68539465D01*
X110895966Y-68458653D01*
X110976778Y-68377841D01*
X111057590Y-68243154D01*
X111084528Y-68162341D01*
X111084528Y-68054592D01*
X111030653Y-67946842D01*
X110976778Y-67892967D01*
X110869028Y-67839093D01*
X110815154Y-67839093D01*
X110626592Y-68027654D01*
X110734341Y-68135404D01*
X110626592Y-67542781D02*
X110060906Y-68108467D01*
X109845407Y-67892967D01*
X109818470Y-67812155D01*
X109818470Y-67758280D01*
X109845407Y-67677468D01*
X109926219Y-67596656D01*
X110007032Y-67569719D01*
X110060906Y-67569719D01*
X110141719Y-67596656D01*
X110357218Y-67812155D01*
X109549096Y-67596656D02*
X109198910Y-67246470D01*
X109602971Y-67219532D01*
X109522158Y-67138720D01*
X109495221Y-67057908D01*
X109495221Y-67004033D01*
X109522158Y-66923221D01*
X109656845Y-66788534D01*
X109737658Y-66761597D01*
X109791532Y-66761597D01*
X109872345Y-66788534D01*
X110033969Y-66950158D01*
X110060906Y-67030971D01*
X110060906Y-67084845D01*
X100197218Y-68350903D02*
X100224155Y-68431715D01*
X100304967Y-68512528D01*
X100412717Y-68566402D01*
X100520467Y-68566402D01*
X100601279Y-68539465D01*
X100735966Y-68458653D01*
X100816778Y-68377841D01*
X100897590Y-68243154D01*
X100924528Y-68162341D01*
X100924528Y-68054592D01*
X100870653Y-67946842D01*
X100816778Y-67892967D01*
X100709028Y-67839093D01*
X100655154Y-67839093D01*
X100466592Y-68027654D01*
X100574341Y-68135404D01*
X100466592Y-67542781D02*
X99900906Y-68108467D01*
X99685407Y-67892967D01*
X99658470Y-67812155D01*
X99658470Y-67758280D01*
X99685407Y-67677468D01*
X99766219Y-67596656D01*
X99847032Y-67569719D01*
X99900906Y-67569719D01*
X99981719Y-67596656D01*
X100197218Y-67812155D01*
X99227471Y-67435032D02*
X99173597Y-67381157D01*
X99146659Y-67300345D01*
X99146659Y-67246470D01*
X99173597Y-67165658D01*
X99254409Y-67030971D01*
X99389096Y-66896284D01*
X99523783Y-66815471D01*
X99604595Y-66788534D01*
X99658470Y-66788534D01*
X99739282Y-66815471D01*
X99793157Y-66869346D01*
X99820094Y-66950158D01*
X99820094Y-67004033D01*
X99793157Y-67084845D01*
X99712345Y-67219532D01*
X99577658Y-67354219D01*
X99442971Y-67435032D01*
X99362158Y-67461969D01*
X99308284Y-67461969D01*
X99227471Y-67435032D01*
X135276155Y-69139841D02*
X135303093Y-69220653D01*
X135383905Y-69301465D01*
X135491654Y-69355340D01*
X135599404Y-69355340D01*
X135680216Y-69328402D01*
X135814903Y-69247590D01*
X135895715Y-69166778D01*
X135976528Y-69032091D01*
X136003465Y-68951279D01*
X136003465Y-68843529D01*
X135949590Y-68735780D01*
X135895715Y-68681905D01*
X135787966Y-68628030D01*
X135734091Y-68628030D01*
X135545529Y-68816592D01*
X135653279Y-68924341D01*
X135545529Y-68331719D02*
X134979844Y-68897404D01*
X135222280Y-68008470D01*
X134656595Y-68574155D01*
X134952906Y-67739096D02*
X134387221Y-68304781D01*
X134252534Y-68170094D01*
X134198659Y-68062345D01*
X134198659Y-67954595D01*
X134225597Y-67873783D01*
X134306409Y-67739096D01*
X134387221Y-67658284D01*
X134521908Y-67577471D01*
X134602720Y-67550534D01*
X134710470Y-67550534D01*
X134818219Y-67604409D01*
X134952906Y-67739096D01*
X130704155Y-68377841D02*
X130731093Y-68458653D01*
X130811905Y-68539465D01*
X130919654Y-68593340D01*
X131027404Y-68593340D01*
X131108216Y-68566402D01*
X131242903Y-68485590D01*
X131323715Y-68404778D01*
X131404528Y-68270091D01*
X131431465Y-68189279D01*
X131431465Y-68081529D01*
X131377590Y-67973780D01*
X131323715Y-67919905D01*
X131215966Y-67866030D01*
X131162091Y-67866030D01*
X130973529Y-68054592D01*
X131081279Y-68162341D01*
X130973529Y-67569719D02*
X130407844Y-68135404D01*
X130650280Y-67246470D01*
X130084595Y-67812155D01*
X130380906Y-66977096D02*
X129815221Y-67542781D01*
X129680534Y-67408094D01*
X129626659Y-67300345D01*
X129626659Y-67192595D01*
X129653597Y-67111783D01*
X129734409Y-66977096D01*
X129815221Y-66896284D01*
X129949908Y-66815471D01*
X130030720Y-66788534D01*
X130138470Y-66788534D01*
X130246219Y-66842409D01*
X130380906Y-66977096D01*
X112897218Y-68350903D02*
X112924155Y-68431715D01*
X113004967Y-68512528D01*
X113112717Y-68566402D01*
X113220467Y-68566402D01*
X113301279Y-68539465D01*
X113435966Y-68458653D01*
X113516778Y-68377841D01*
X113597590Y-68243154D01*
X113624528Y-68162341D01*
X113624528Y-68054592D01*
X113570653Y-67946842D01*
X113516778Y-67892967D01*
X113409028Y-67839093D01*
X113355154Y-67839093D01*
X113166592Y-68027654D01*
X113274341Y-68135404D01*
X113166592Y-67542781D02*
X112600906Y-68108467D01*
X112385407Y-67892967D01*
X112358470Y-67812155D01*
X112358470Y-67758280D01*
X112385407Y-67677468D01*
X112466219Y-67596656D01*
X112547032Y-67569719D01*
X112600906Y-67569719D01*
X112681719Y-67596656D01*
X112897218Y-67812155D01*
X111981346Y-67111783D02*
X112358470Y-66734659D01*
X111900534Y-67461969D02*
X112439282Y-67192595D01*
X112089096Y-66842409D01*
X125597218Y-68350903D02*
X125624155Y-68431715D01*
X125704967Y-68512528D01*
X125812717Y-68566402D01*
X125920467Y-68566402D01*
X126001279Y-68539465D01*
X126135966Y-68458653D01*
X126216778Y-68377841D01*
X126297590Y-68243154D01*
X126324528Y-68162341D01*
X126324528Y-68054592D01*
X126270653Y-67946842D01*
X126216778Y-67892967D01*
X126109028Y-67839093D01*
X126055154Y-67839093D01*
X125866592Y-68027654D01*
X125974341Y-68135404D01*
X125866592Y-67542781D02*
X125300906Y-68108467D01*
X125085407Y-67892967D01*
X125058470Y-67812155D01*
X125058470Y-67758280D01*
X125085407Y-67677468D01*
X125166219Y-67596656D01*
X125247032Y-67569719D01*
X125300906Y-67569719D01*
X125381719Y-67596656D01*
X125597218Y-67812155D01*
X124896845Y-67219532D02*
X124923783Y-67300345D01*
X124923783Y-67354219D01*
X124896845Y-67435032D01*
X124869908Y-67461969D01*
X124789096Y-67488906D01*
X124735221Y-67488906D01*
X124654409Y-67461969D01*
X124546659Y-67354219D01*
X124519722Y-67273407D01*
X124519722Y-67219532D01*
X124546659Y-67138720D01*
X124573597Y-67111783D01*
X124654409Y-67084845D01*
X124708284Y-67084845D01*
X124789096Y-67111783D01*
X124896845Y-67219532D01*
X124977658Y-67246470D01*
X125031532Y-67246470D01*
X125112345Y-67219532D01*
X125220094Y-67111783D01*
X125247032Y-67030971D01*
X125247032Y-66977096D01*
X125220094Y-66896284D01*
X125112345Y-66788534D01*
X125031532Y-66761597D01*
X124977658Y-66761597D01*
X124896845Y-66788534D01*
X124789096Y-66896284D01*
X124762158Y-66977096D01*
X124762158Y-67030971D01*
X124789096Y-67111783D01*
X123027218Y-68250903D02*
X123054155Y-68331715D01*
X123134967Y-68412528D01*
X123242717Y-68466402D01*
X123350467Y-68466402D01*
X123431279Y-68439465D01*
X123565966Y-68358653D01*
X123646778Y-68277841D01*
X123727590Y-68143154D01*
X123754528Y-68062341D01*
X123754528Y-67954592D01*
X123700653Y-67846842D01*
X123646778Y-67792967D01*
X123539028Y-67739093D01*
X123485154Y-67739093D01*
X123296592Y-67927654D01*
X123404341Y-68035404D01*
X123296592Y-67442781D02*
X122730906Y-68008467D01*
X122515407Y-67792967D01*
X122488470Y-67712155D01*
X122488470Y-67658280D01*
X122515407Y-67577468D01*
X122596219Y-67496656D01*
X122677032Y-67469719D01*
X122730906Y-67469719D01*
X122811719Y-67496656D01*
X123027218Y-67712155D01*
X122219096Y-67496656D02*
X121841972Y-67119532D01*
X122650094Y-66796284D01*
X107817218Y-68450903D02*
X107844155Y-68531715D01*
X107924967Y-68612528D01*
X108032717Y-68666402D01*
X108140467Y-68666402D01*
X108221279Y-68639465D01*
X108355966Y-68558653D01*
X108436778Y-68477841D01*
X108517590Y-68343154D01*
X108544528Y-68262341D01*
X108544528Y-68154592D01*
X108490653Y-68046842D01*
X108436778Y-67992967D01*
X108329028Y-67939093D01*
X108275154Y-67939093D01*
X108086592Y-68127654D01*
X108194341Y-68235404D01*
X108086592Y-67642781D02*
X107520906Y-68208467D01*
X107305407Y-67992967D01*
X107278470Y-67912155D01*
X107278470Y-67858280D01*
X107305407Y-67777468D01*
X107386219Y-67696656D01*
X107467032Y-67669719D01*
X107520906Y-67669719D01*
X107601719Y-67696656D01*
X107817218Y-67912155D01*
X107036033Y-67615844D02*
X106982158Y-67615844D01*
X106901346Y-67588906D01*
X106766659Y-67454219D01*
X106739722Y-67373407D01*
X106739722Y-67319532D01*
X106766659Y-67238720D01*
X106820534Y-67184845D01*
X106928284Y-67130971D01*
X107574781Y-67130971D01*
X107224595Y-66780784D01*
X128137218Y-68350903D02*
X128164155Y-68431715D01*
X128244967Y-68512528D01*
X128352717Y-68566402D01*
X128460467Y-68566402D01*
X128541279Y-68539465D01*
X128675966Y-68458653D01*
X128756778Y-68377841D01*
X128837590Y-68243154D01*
X128864528Y-68162341D01*
X128864528Y-68054592D01*
X128810653Y-67946842D01*
X128756778Y-67892967D01*
X128649028Y-67839093D01*
X128595154Y-67839093D01*
X128406592Y-68027654D01*
X128514341Y-68135404D01*
X128406592Y-67542781D02*
X127840906Y-68108467D01*
X127625407Y-67892967D01*
X127598470Y-67812155D01*
X127598470Y-67758280D01*
X127625407Y-67677468D01*
X127706219Y-67596656D01*
X127787032Y-67569719D01*
X127840906Y-67569719D01*
X127921719Y-67596656D01*
X128137218Y-67812155D01*
X127813969Y-66950158D02*
X127706219Y-66842409D01*
X127625407Y-66815471D01*
X127571532Y-66815471D01*
X127436845Y-66842409D01*
X127302158Y-66923221D01*
X127086659Y-67138720D01*
X127059722Y-67219532D01*
X127059722Y-67273407D01*
X127086659Y-67354219D01*
X127194409Y-67461969D01*
X127275221Y-67488906D01*
X127329096Y-67488906D01*
X127409908Y-67461969D01*
X127544595Y-67327282D01*
X127571532Y-67246470D01*
X127571532Y-67192595D01*
X127544595Y-67111783D01*
X127436845Y-67004033D01*
X127356033Y-66977096D01*
X127302158Y-66977096D01*
X127221346Y-67004033D01*
X132978592Y-69636277D02*
X133005529Y-69717089D01*
X133086341Y-69797902D01*
X133194091Y-69851776D01*
X133301841Y-69851776D01*
X133382653Y-69824839D01*
X133517340Y-69744027D01*
X133598152Y-69663215D01*
X133678964Y-69528528D01*
X133705902Y-69447715D01*
X133705902Y-69339966D01*
X133652027Y-69232216D01*
X133598152Y-69178341D01*
X133490402Y-69124467D01*
X133436528Y-69124467D01*
X133247966Y-69313028D01*
X133355715Y-69420778D01*
X133247966Y-68828155D02*
X132682280Y-69393841D01*
X132466781Y-69178341D01*
X132439844Y-69097529D01*
X132439844Y-69043654D01*
X132466781Y-68962842D01*
X132547593Y-68882030D01*
X132628406Y-68855093D01*
X132682280Y-68855093D01*
X132763093Y-68882030D01*
X132978592Y-69097529D01*
X132385969Y-67966158D02*
X132709218Y-68289407D01*
X132547593Y-68127783D02*
X131981908Y-68693468D01*
X132116595Y-68666531D01*
X132224345Y-68666531D01*
X132305157Y-68693468D01*
X131631722Y-68343282D02*
X131281536Y-67993096D01*
X131685597Y-67966158D01*
X131604784Y-67885346D01*
X131577847Y-67804534D01*
X131577847Y-67750659D01*
X131604784Y-67669847D01*
X131739471Y-67535160D01*
X131820284Y-67508223D01*
X131874158Y-67508223D01*
X131954971Y-67535160D01*
X132116595Y-67696784D01*
X132143532Y-67777597D01*
X132143532Y-67831471D01*
X102727218Y-68450903D02*
X102754155Y-68531715D01*
X102834967Y-68612528D01*
X102942717Y-68666402D01*
X103050467Y-68666402D01*
X103131279Y-68639465D01*
X103265966Y-68558653D01*
X103346778Y-68477841D01*
X103427590Y-68343154D01*
X103454528Y-68262341D01*
X103454528Y-68154592D01*
X103400653Y-68046842D01*
X103346778Y-67992967D01*
X103239028Y-67939093D01*
X103185154Y-67939093D01*
X102996592Y-68127654D01*
X103104341Y-68235404D01*
X102996592Y-67642781D02*
X102430906Y-68208467D01*
X102215407Y-67992967D01*
X102188470Y-67912155D01*
X102188470Y-67858280D01*
X102215407Y-67777468D01*
X102296219Y-67696656D01*
X102377032Y-67669719D01*
X102430906Y-67669719D01*
X102511719Y-67696656D01*
X102727218Y-67912155D01*
X102134595Y-66780784D02*
X102457844Y-67104033D01*
X102296219Y-66942409D02*
X101730534Y-67508094D01*
X101865221Y-67481157D01*
X101972971Y-67481157D01*
X102053783Y-67508094D01*
X136026592Y-69020277D02*
X136053529Y-69101089D01*
X136134341Y-69181902D01*
X136242091Y-69235776D01*
X136349841Y-69235776D01*
X136430653Y-69208839D01*
X136565340Y-69128027D01*
X136646152Y-69047215D01*
X136726964Y-68912528D01*
X136753902Y-68831715D01*
X136753902Y-68723966D01*
X136700027Y-68616216D01*
X136646152Y-68562341D01*
X136538402Y-68508467D01*
X136484528Y-68508467D01*
X136295966Y-68697028D01*
X136403715Y-68804778D01*
X136295966Y-68212155D02*
X135730280Y-68777841D01*
X135514781Y-68562341D01*
X135487844Y-68481529D01*
X135487844Y-68427654D01*
X135514781Y-68346842D01*
X135595593Y-68266030D01*
X135676406Y-68239093D01*
X135730280Y-68239093D01*
X135811093Y-68266030D01*
X136026592Y-68481529D01*
X135433969Y-67350158D02*
X135757218Y-67673407D01*
X135595593Y-67511783D02*
X135029908Y-68077468D01*
X135164595Y-68050531D01*
X135272345Y-68050531D01*
X135353157Y-68077468D01*
X134895221Y-66811410D02*
X135218470Y-67134659D01*
X135056845Y-66973035D02*
X134491160Y-67538720D01*
X134625847Y-67511783D01*
X134733597Y-67511783D01*
X134814409Y-67538720D01*
X105304155Y-68377841D02*
X105331093Y-68458653D01*
X105411905Y-68539465D01*
X105519654Y-68593340D01*
X105627404Y-68593340D01*
X105708216Y-68566402D01*
X105842903Y-68485590D01*
X105923715Y-68404778D01*
X106004528Y-68270091D01*
X106031465Y-68189279D01*
X106031465Y-68081529D01*
X105977590Y-67973780D01*
X105923715Y-67919905D01*
X105815966Y-67866030D01*
X105762091Y-67866030D01*
X105573529Y-68054592D01*
X105681279Y-68162341D01*
X105573529Y-67569719D02*
X105007844Y-68135404D01*
X105250280Y-67246470D01*
X104684595Y-67812155D01*
X104980906Y-66977096D02*
X104415221Y-67542781D01*
X104280534Y-67408094D01*
X104226659Y-67300345D01*
X104226659Y-67192595D01*
X104253597Y-67111783D01*
X104334409Y-66977096D01*
X104415221Y-66896284D01*
X104549908Y-66815471D01*
X104630720Y-66788534D01*
X104738470Y-66788534D01*
X104846219Y-66842409D01*
X104980906Y-66977096D01*
%TO.C,J6*%
X156922380Y-69373333D02*
X157636666Y-69373333D01*
X157779523Y-69420952D01*
X157874761Y-69516190D01*
X157922380Y-69659047D01*
X157922380Y-69754285D01*
X156922380Y-68468571D02*
X156922380Y-68659047D01*
X156970000Y-68754285D01*
X157017619Y-68801904D01*
X157160476Y-68897142D01*
X157350952Y-68944761D01*
X157731904Y-68944761D01*
X157827142Y-68897142D01*
X157874761Y-68849523D01*
X157922380Y-68754285D01*
X157922380Y-68563809D01*
X157874761Y-68468571D01*
X157827142Y-68420952D01*
X157731904Y-68373333D01*
X157493809Y-68373333D01*
X157398571Y-68420952D01*
X157350952Y-68468571D01*
X157303333Y-68563809D01*
X157303333Y-68754285D01*
X157350952Y-68849523D01*
X157398571Y-68897142D01*
X157493809Y-68944761D01*
%TO.C,J7*%
X156922380Y-92583333D02*
X157636666Y-92583333D01*
X157779523Y-92630952D01*
X157874761Y-92726190D01*
X157922380Y-92869047D01*
X157922380Y-92964285D01*
X156922380Y-92202380D02*
X156922380Y-91535714D01*
X157922380Y-91964285D01*
%TO.C,J2*%
X101004619Y-75866666D02*
X100290333Y-75866666D01*
X100147476Y-75819047D01*
X100052238Y-75723809D01*
X100004619Y-75580952D01*
X100004619Y-75485714D01*
X100909380Y-76295238D02*
X100957000Y-76342857D01*
X101004619Y-76438095D01*
X101004619Y-76676190D01*
X100957000Y-76771428D01*
X100909380Y-76819047D01*
X100814142Y-76866666D01*
X100718904Y-76866666D01*
X100576047Y-76819047D01*
X100004619Y-76247619D01*
X100004619Y-76866666D01*
%TO.C,J3*%
X101004619Y-103298666D02*
X100290333Y-103298666D01*
X100147476Y-103251047D01*
X100052238Y-103155809D01*
X100004619Y-103012952D01*
X100004619Y-102917714D01*
X101004619Y-103679619D02*
X101004619Y-104298666D01*
X100623666Y-103965333D01*
X100623666Y-104108190D01*
X100576047Y-104203428D01*
X100528428Y-104251047D01*
X100433190Y-104298666D01*
X100195095Y-104298666D01*
X100099857Y-104251047D01*
X100052238Y-104203428D01*
X100004619Y-104108190D01*
X100004619Y-103822476D01*
X100052238Y-103727238D01*
X100099857Y-103679619D01*
%TO.C,J4*%
X92172380Y-117681333D02*
X92886666Y-117681333D01*
X93029523Y-117728952D01*
X93124761Y-117824190D01*
X93172380Y-117967047D01*
X93172380Y-118062285D01*
X92505714Y-116776571D02*
X93172380Y-116776571D01*
X92124761Y-117014666D02*
X92839047Y-117252761D01*
X92839047Y-116633714D01*
%TO.C,J8*%
X155912666Y-106212380D02*
X155912666Y-106926666D01*
X155865047Y-107069523D01*
X155769809Y-107164761D01*
X155626952Y-107212380D01*
X155531714Y-107212380D01*
X156531714Y-106640952D02*
X156436476Y-106593333D01*
X156388857Y-106545714D01*
X156341238Y-106450476D01*
X156341238Y-106402857D01*
X156388857Y-106307619D01*
X156436476Y-106260000D01*
X156531714Y-106212380D01*
X156722190Y-106212380D01*
X156817428Y-106260000D01*
X156865047Y-106307619D01*
X156912666Y-106402857D01*
X156912666Y-106450476D01*
X156865047Y-106545714D01*
X156817428Y-106593333D01*
X156722190Y-106640952D01*
X156531714Y-106640952D01*
X156436476Y-106688571D01*
X156388857Y-106736190D01*
X156341238Y-106831428D01*
X156341238Y-107021904D01*
X156388857Y-107117142D01*
X156436476Y-107164761D01*
X156531714Y-107212380D01*
X156722190Y-107212380D01*
X156817428Y-107164761D01*
X156865047Y-107117142D01*
X156912666Y-107021904D01*
X156912666Y-106831428D01*
X156865047Y-106736190D01*
X156817428Y-106688571D01*
X156722190Y-106640952D01*
%TO.C,J1*%
X92285380Y-90191833D02*
X92999666Y-90191833D01*
X93142523Y-90239452D01*
X93237761Y-90334690D01*
X93285380Y-90477547D01*
X93285380Y-90572785D01*
X93285380Y-89191833D02*
X93285380Y-89763261D01*
X93285380Y-89477547D02*
X92285380Y-89477547D01*
X92428238Y-89572785D01*
X92523476Y-89668023D01*
X92571095Y-89763261D01*
%TO.C,J10*%
X117046476Y-115773380D02*
X117046476Y-116487666D01*
X116998857Y-116630523D01*
X116903619Y-116725761D01*
X116760761Y-116773380D01*
X116665523Y-116773380D01*
X118046476Y-116773380D02*
X117475047Y-116773380D01*
X117760761Y-116773380D02*
X117760761Y-115773380D01*
X117665523Y-115916238D01*
X117570285Y-116011476D01*
X117475047Y-116059095D01*
X118665523Y-115773380D02*
X118760761Y-115773380D01*
X118856000Y-115821000D01*
X118903619Y-115868619D01*
X118951238Y-115963857D01*
X118998857Y-116154333D01*
X118998857Y-116392428D01*
X118951238Y-116582904D01*
X118903619Y-116678142D01*
X118856000Y-116725761D01*
X118760761Y-116773380D01*
X118665523Y-116773380D01*
X118570285Y-116725761D01*
X118522666Y-116678142D01*
X118475047Y-116582904D01*
X118427428Y-116392428D01*
X118427428Y-116154333D01*
X118475047Y-115963857D01*
X118522666Y-115868619D01*
X118570285Y-115821000D01*
X118665523Y-115773380D01*
%TO.C,G2200*%
G36*
X163681075Y-52925128D02*
G01*
X163691095Y-52928581D01*
X163704969Y-52933737D01*
X163721356Y-52940109D01*
X163725980Y-52941952D01*
X163760157Y-52955413D01*
X163794480Y-52968438D01*
X163829684Y-52981269D01*
X163866501Y-52994147D01*
X163905667Y-53007315D01*
X163947917Y-53021014D01*
X163993984Y-53035485D01*
X164044602Y-53050972D01*
X164100506Y-53067714D01*
X164162430Y-53085955D01*
X164170706Y-53088374D01*
X164227024Y-53104929D01*
X164277110Y-53119890D01*
X164321572Y-53133468D01*
X164361017Y-53145874D01*
X164396053Y-53157317D01*
X164427286Y-53168009D01*
X164455324Y-53178161D01*
X164480773Y-53187982D01*
X164504241Y-53197683D01*
X164526336Y-53207474D01*
X164547663Y-53217567D01*
X164557912Y-53222634D01*
X164598629Y-53244696D01*
X164640692Y-53270853D01*
X164684584Y-53301462D01*
X164730785Y-53336878D01*
X164779777Y-53377455D01*
X164832041Y-53423551D01*
X164841959Y-53432577D01*
X164857516Y-53447110D01*
X164874329Y-53463351D01*
X164891698Y-53480565D01*
X164908922Y-53498020D01*
X164925300Y-53514982D01*
X164940134Y-53530716D01*
X164952722Y-53544489D01*
X164962365Y-53555567D01*
X164968363Y-53563216D01*
X164970014Y-53566703D01*
X164969979Y-53566746D01*
X164966486Y-53565676D01*
X164958234Y-53561491D01*
X164946448Y-53554854D01*
X164932349Y-53546424D01*
X164931932Y-53546168D01*
X164889649Y-53520719D01*
X164850576Y-53498374D01*
X164812378Y-53477847D01*
X164772723Y-53457851D01*
X164764776Y-53453978D01*
X164727843Y-53436619D01*
X164695554Y-53422783D01*
X164666632Y-53412125D01*
X164639800Y-53404297D01*
X164613783Y-53398952D01*
X164587305Y-53395744D01*
X164559090Y-53394325D01*
X164544801Y-53394178D01*
X164495680Y-53395780D01*
X164442322Y-53400632D01*
X164383996Y-53408812D01*
X164343977Y-53415783D01*
X164325977Y-53419289D01*
X164304778Y-53423675D01*
X164281462Y-53428693D01*
X164257113Y-53434089D01*
X164232817Y-53439615D01*
X164209656Y-53445018D01*
X164188714Y-53450049D01*
X164171075Y-53454457D01*
X164157823Y-53457991D01*
X164150043Y-53460401D01*
X164148844Y-53460915D01*
X164148964Y-53464687D01*
X164153690Y-53473475D01*
X164162887Y-53487051D01*
X164171319Y-53498496D01*
X164210017Y-53552084D01*
X164248306Y-53609432D01*
X164285333Y-53669076D01*
X164320243Y-53729548D01*
X164352180Y-53789383D01*
X164380292Y-53847115D01*
X164398247Y-53887902D01*
X164402604Y-53899061D01*
X164408927Y-53916288D01*
X164416993Y-53938925D01*
X164426584Y-53966314D01*
X164437477Y-53997796D01*
X164449454Y-54032713D01*
X164462293Y-54070407D01*
X164475774Y-54110220D01*
X164489677Y-54151494D01*
X164503781Y-54193569D01*
X164517866Y-54235789D01*
X164531711Y-54277495D01*
X164545096Y-54318028D01*
X164557801Y-54356731D01*
X164569605Y-54392945D01*
X164580288Y-54426012D01*
X164589629Y-54455274D01*
X164597408Y-54480072D01*
X164603404Y-54499749D01*
X164605326Y-54506285D01*
X164632521Y-54605130D01*
X164655533Y-54699558D01*
X164674587Y-54790682D01*
X164689910Y-54879615D01*
X164701729Y-54967468D01*
X164704677Y-54994271D01*
X164706323Y-55012508D01*
X164708152Y-55037157D01*
X164710128Y-55067563D01*
X164712220Y-55103068D01*
X164714394Y-55143015D01*
X164716618Y-55186750D01*
X164718858Y-55233614D01*
X164721081Y-55282951D01*
X164723254Y-55334105D01*
X164725344Y-55386419D01*
X164727318Y-55439237D01*
X164727900Y-55455565D01*
X164728983Y-55492886D01*
X164729790Y-55534653D01*
X164730330Y-55579921D01*
X164730611Y-55627744D01*
X164730642Y-55677177D01*
X164730432Y-55727273D01*
X164729989Y-55777089D01*
X164729323Y-55825678D01*
X164728443Y-55872094D01*
X164727356Y-55915393D01*
X164726073Y-55954628D01*
X164724601Y-55988854D01*
X164722949Y-56017126D01*
X164722633Y-56021516D01*
X164713253Y-56130074D01*
X164701697Y-56232596D01*
X164687827Y-56329818D01*
X164671503Y-56422476D01*
X164652588Y-56511305D01*
X164630943Y-56597044D01*
X164606430Y-56680426D01*
X164588169Y-56735813D01*
X164558188Y-56816639D01*
X164522878Y-56900729D01*
X164482698Y-56987281D01*
X164438106Y-57075492D01*
X164389561Y-57164561D01*
X164337520Y-57253687D01*
X164282443Y-57342066D01*
X164224786Y-57428897D01*
X164165009Y-57513378D01*
X164103570Y-57594707D01*
X164081308Y-57622841D01*
X164061484Y-57647300D01*
X164040879Y-57672214D01*
X164020025Y-57696982D01*
X163999457Y-57721003D01*
X163979704Y-57743677D01*
X163961301Y-57764405D01*
X163944778Y-57782585D01*
X163930670Y-57797617D01*
X163919508Y-57808900D01*
X163911824Y-57815835D01*
X163908371Y-57817864D01*
X163907243Y-57814494D01*
X163904250Y-57804514D01*
X163899447Y-57788121D01*
X163892890Y-57765513D01*
X163884636Y-57736886D01*
X163874739Y-57702437D01*
X163863257Y-57662362D01*
X163850245Y-57616859D01*
X163835758Y-57566125D01*
X163819854Y-57510356D01*
X163802588Y-57449748D01*
X163784015Y-57384500D01*
X163764192Y-57314807D01*
X163743175Y-57240867D01*
X163721020Y-57162876D01*
X163697783Y-57081031D01*
X163673518Y-56995529D01*
X163648284Y-56906567D01*
X163622135Y-56814341D01*
X163595127Y-56719049D01*
X163567317Y-56620887D01*
X163538760Y-56520053D01*
X163509512Y-56416742D01*
X163479630Y-56311151D01*
X163449169Y-56203479D01*
X163418185Y-56093921D01*
X163390026Y-55994321D01*
X163358622Y-55883233D01*
X163327697Y-55773849D01*
X163297306Y-55666367D01*
X163267505Y-55560984D01*
X163238350Y-55457897D01*
X163209897Y-55357302D01*
X163182200Y-55259397D01*
X163155318Y-55164379D01*
X163129304Y-55072444D01*
X163104215Y-54983790D01*
X163080106Y-54898614D01*
X163057034Y-54817112D01*
X163035054Y-54739482D01*
X163014222Y-54665921D01*
X162994594Y-54596625D01*
X162976225Y-54531792D01*
X162959171Y-54471619D01*
X162943488Y-54416302D01*
X162929233Y-54366039D01*
X162916460Y-54321026D01*
X162905225Y-54281461D01*
X162895585Y-54247541D01*
X162887594Y-54219462D01*
X162881310Y-54197422D01*
X162876787Y-54181617D01*
X162874081Y-54172245D01*
X162873246Y-54169473D01*
X162870079Y-54171020D01*
X162861550Y-54175974D01*
X162848274Y-54183959D01*
X162830864Y-54194598D01*
X162809933Y-54207514D01*
X162786096Y-54222332D01*
X162759966Y-54238674D01*
X162741606Y-54250212D01*
X162714108Y-54267478D01*
X162688344Y-54283572D01*
X162664953Y-54298100D01*
X162644573Y-54310669D01*
X162627844Y-54320885D01*
X162615405Y-54328357D01*
X162607894Y-54332690D01*
X162605970Y-54333635D01*
X162602107Y-54331768D01*
X162593337Y-54325807D01*
X162580203Y-54316166D01*
X162563245Y-54303259D01*
X162543007Y-54287501D01*
X162520030Y-54269305D01*
X162494856Y-54249087D01*
X162485742Y-54241704D01*
X162461194Y-54221811D01*
X162438390Y-54203406D01*
X162417905Y-54186946D01*
X162400312Y-54172888D01*
X162386185Y-54161689D01*
X162376096Y-54153808D01*
X162370620Y-54149702D01*
X162369786Y-54149209D01*
X162369362Y-54152816D01*
X162368725Y-54162509D01*
X162367925Y-54177309D01*
X162367012Y-54196235D01*
X162366038Y-54218308D01*
X162365374Y-54234446D01*
X162359806Y-54370768D01*
X162354274Y-54500624D01*
X162348744Y-54624619D01*
X162343183Y-54743359D01*
X162337558Y-54857450D01*
X162331836Y-54967497D01*
X162325984Y-55074107D01*
X162319969Y-55177884D01*
X162313757Y-55279435D01*
X162307316Y-55379364D01*
X162300613Y-55478279D01*
X162293614Y-55576783D01*
X162287526Y-55659063D01*
X162277143Y-55792401D01*
X162266588Y-55918782D01*
X162255848Y-56038319D01*
X162244908Y-56151125D01*
X162233752Y-56257313D01*
X162222368Y-56356997D01*
X162210740Y-56450289D01*
X162198854Y-56537304D01*
X162186695Y-56618153D01*
X162174249Y-56692950D01*
X162161501Y-56761809D01*
X162148437Y-56824843D01*
X162135043Y-56882164D01*
X162126699Y-56914388D01*
X162109360Y-56979255D01*
X162093855Y-57038531D01*
X162079914Y-57093378D01*
X162067268Y-57144957D01*
X162055648Y-57194430D01*
X162044783Y-57242959D01*
X162034406Y-57291705D01*
X162024245Y-57341829D01*
X162014032Y-57394494D01*
X162008384Y-57424486D01*
X161993846Y-57506257D01*
X161979858Y-57592465D01*
X161966657Y-57681334D01*
X161954481Y-57771087D01*
X161943567Y-57859948D01*
X161934153Y-57946141D01*
X161926477Y-58027888D01*
X161924497Y-58051923D01*
X161922632Y-58074374D01*
X161920827Y-58094232D01*
X161919185Y-58110492D01*
X161917811Y-58122148D01*
X161916809Y-58128194D01*
X161916515Y-58128819D01*
X161913673Y-58126161D01*
X161907311Y-58119094D01*
X161898373Y-58108697D01*
X161887856Y-58096109D01*
X161828634Y-58022904D01*
X161768574Y-57945913D01*
X161708373Y-57866128D01*
X161648726Y-57784542D01*
X161590330Y-57702148D01*
X161533881Y-57619939D01*
X161480076Y-57538906D01*
X161429611Y-57460044D01*
X161383183Y-57384343D01*
X161355297Y-57336955D01*
X161311316Y-57258961D01*
X161271727Y-57184679D01*
X161235932Y-57112809D01*
X161203333Y-57042051D01*
X161173333Y-56971104D01*
X161145334Y-56898667D01*
X161118739Y-56823442D01*
X161117265Y-56819081D01*
X161107684Y-56790724D01*
X161098650Y-56764166D01*
X161089910Y-56738698D01*
X161081210Y-56713610D01*
X161072296Y-56688195D01*
X161062914Y-56661742D01*
X161052810Y-56633543D01*
X161041730Y-56602888D01*
X161029421Y-56569068D01*
X161015628Y-56531375D01*
X161000097Y-56489098D01*
X160982575Y-56441530D01*
X160965250Y-56394577D01*
X160941991Y-56331422D01*
X160921070Y-56274264D01*
X160902279Y-56222501D01*
X160885413Y-56175532D01*
X160870265Y-56132756D01*
X160856626Y-56093570D01*
X160844290Y-56057374D01*
X160833051Y-56023565D01*
X160822701Y-55991543D01*
X160813034Y-55960706D01*
X160803842Y-55930452D01*
X160794918Y-55900179D01*
X160793701Y-55895983D01*
X160764827Y-55788842D01*
X160740909Y-55683469D01*
X160721482Y-55577506D01*
X160706082Y-55468594D01*
X160701160Y-55425678D01*
X160698927Y-55399532D01*
X160697148Y-55367627D01*
X160695823Y-55331265D01*
X160694952Y-55291746D01*
X160694536Y-55250368D01*
X160694574Y-55208434D01*
X160695067Y-55167241D01*
X160696015Y-55128091D01*
X160697418Y-55092284D01*
X160699276Y-55061119D01*
X160701107Y-55040241D01*
X160715699Y-54923530D01*
X160735135Y-54802730D01*
X160759211Y-54678700D01*
X160787723Y-54552303D01*
X160820467Y-54424401D01*
X160857238Y-54295854D01*
X160897831Y-54167524D01*
X160931409Y-54069837D01*
X160938549Y-54049695D01*
X160944798Y-54031914D01*
X160949794Y-54017535D01*
X160953175Y-54007601D01*
X160954580Y-54003152D01*
X160954599Y-54003033D01*
X160951244Y-54002313D01*
X160941882Y-54001986D01*
X160927560Y-54002012D01*
X160909331Y-54002348D01*
X160888244Y-54002954D01*
X160865349Y-54003788D01*
X160841697Y-54004808D01*
X160818337Y-54005973D01*
X160796321Y-54007241D01*
X160776698Y-54008570D01*
X160760519Y-54009920D01*
X160749503Y-54011153D01*
X160716102Y-54016497D01*
X160682672Y-54023202D01*
X160651094Y-54030824D01*
X160623247Y-54038918D01*
X160605465Y-54045218D01*
X160589251Y-54052626D01*
X160568387Y-54063744D01*
X160543834Y-54077974D01*
X160516551Y-54094717D01*
X160487497Y-54113375D01*
X160457632Y-54133349D01*
X160427914Y-54154041D01*
X160408470Y-54168078D01*
X160397267Y-54176016D01*
X160388374Y-54181799D01*
X160383175Y-54184548D01*
X160382435Y-54184597D01*
X160383594Y-54180992D01*
X160388636Y-54172560D01*
X160397034Y-54160004D01*
X160408267Y-54144029D01*
X160421808Y-54125340D01*
X160437135Y-54104640D01*
X160453723Y-54082635D01*
X160471047Y-54060029D01*
X160488583Y-54037525D01*
X160505807Y-54015828D01*
X160522195Y-53995643D01*
X160530659Y-53985445D01*
X160587191Y-53920273D01*
X160642289Y-53861536D01*
X160696392Y-53808850D01*
X160749937Y-53761831D01*
X160803361Y-53720094D01*
X160857102Y-53683254D01*
X160910478Y-53651542D01*
X160954926Y-53628552D01*
X161004748Y-53605386D01*
X161058393Y-53582618D01*
X161114309Y-53560823D01*
X161170945Y-53540572D01*
X161226747Y-53522442D01*
X161280165Y-53507006D01*
X161329646Y-53494837D01*
X161340430Y-53492535D01*
X161352648Y-53489497D01*
X161359141Y-53486342D01*
X161361235Y-53482391D01*
X161361253Y-53481869D01*
X161362490Y-53477936D01*
X161367321Y-53476042D01*
X161377426Y-53475557D01*
X161378050Y-53475559D01*
X161390204Y-53476279D01*
X161398384Y-53478050D01*
X161401745Y-53480421D01*
X161399440Y-53482942D01*
X161394662Y-53484411D01*
X161380396Y-53487687D01*
X161372579Y-53490520D01*
X161370801Y-53494189D01*
X161374652Y-53499972D01*
X161383722Y-53509148D01*
X161386006Y-53511386D01*
X161425411Y-53545803D01*
X161471441Y-53578335D01*
X161523884Y-53608888D01*
X161582523Y-53637371D01*
X161647144Y-53663690D01*
X161717532Y-53687754D01*
X161793473Y-53709470D01*
X161874751Y-53728745D01*
X161905817Y-53735177D01*
X161962652Y-53745543D01*
X162022248Y-53754622D01*
X162083738Y-53762375D01*
X162146252Y-53768764D01*
X162208921Y-53773749D01*
X162270877Y-53777292D01*
X162331250Y-53779352D01*
X162389173Y-53779892D01*
X162443775Y-53778872D01*
X162494189Y-53776253D01*
X162539545Y-53771996D01*
X162578975Y-53766062D01*
X162581661Y-53765550D01*
X162642685Y-53750689D01*
X162706161Y-53729331D01*
X162771958Y-53701561D01*
X162839945Y-53667466D01*
X162909992Y-53627132D01*
X162981965Y-53580643D01*
X163055735Y-53528087D01*
X163131169Y-53469550D01*
X163208138Y-53405116D01*
X163286508Y-53334873D01*
X163366150Y-53258905D01*
X163387182Y-53238094D01*
X163413761Y-53211270D01*
X163441924Y-53182253D01*
X163471028Y-53151746D01*
X163500434Y-53120453D01*
X163529499Y-53089077D01*
X163557582Y-53058321D01*
X163584043Y-53028890D01*
X163608240Y-53001487D01*
X163629532Y-52976815D01*
X163647277Y-52955577D01*
X163660835Y-52938478D01*
X163663457Y-52934983D01*
X163669829Y-52927829D01*
X163675308Y-52924047D01*
X163676256Y-52923869D01*
X163681075Y-52925128D01*
G37*
G36*
X160545392Y-52838758D02*
G01*
X160590674Y-52820333D01*
X160641192Y-52799352D01*
X160697428Y-52775632D01*
X160722983Y-52764761D01*
X160753482Y-52751774D01*
X160783599Y-52738981D01*
X160812332Y-52726806D01*
X160838679Y-52715671D01*
X160861639Y-52706000D01*
X160880211Y-52698216D01*
X160893393Y-52692743D01*
X160894485Y-52692294D01*
X160953454Y-52665858D01*
X161007382Y-52636776D01*
X161058126Y-52603956D01*
X161104884Y-52568475D01*
X161118195Y-52557212D01*
X161132882Y-52544054D01*
X161148026Y-52529911D01*
X161162707Y-52515694D01*
X161176008Y-52502313D01*
X161187009Y-52490680D01*
X161194791Y-52481704D01*
X161198435Y-52476297D01*
X161198592Y-52475619D01*
X161195143Y-52472246D01*
X161185139Y-52469213D01*
X161169087Y-52466567D01*
X161147497Y-52464358D01*
X161120880Y-52462633D01*
X161089744Y-52461440D01*
X161054599Y-52460826D01*
X161040350Y-52460755D01*
X161015742Y-52460610D01*
X160997452Y-52460239D01*
X160984727Y-52459591D01*
X160976815Y-52458614D01*
X160972963Y-52457256D01*
X160972279Y-52456091D01*
X160972660Y-52454569D01*
X160974174Y-52452741D01*
X160977382Y-52450316D01*
X160982846Y-52447003D01*
X160991124Y-52442511D01*
X161002777Y-52436549D01*
X161018366Y-52428826D01*
X161038450Y-52419051D01*
X161063591Y-52406934D01*
X161094348Y-52392183D01*
X161107537Y-52385869D01*
X161148521Y-52366421D01*
X161184388Y-52349802D01*
X161216273Y-52335537D01*
X161245313Y-52323150D01*
X161272644Y-52312166D01*
X161299400Y-52302111D01*
X161326718Y-52292508D01*
X161346164Y-52286004D01*
X161404654Y-52267719D01*
X161457541Y-52253150D01*
X161504750Y-52242310D01*
X161546206Y-52235217D01*
X161581833Y-52231884D01*
X161608584Y-52232093D01*
X161627488Y-52233148D01*
X161648314Y-52233898D01*
X161666648Y-52234185D01*
X161667128Y-52234184D01*
X161678561Y-52234037D01*
X161695059Y-52233636D01*
X161715741Y-52233017D01*
X161739723Y-52232217D01*
X161766123Y-52231272D01*
X161794057Y-52230218D01*
X161822642Y-52229091D01*
X161850997Y-52227926D01*
X161878236Y-52226761D01*
X161903479Y-52225631D01*
X161925841Y-52224572D01*
X161944440Y-52223620D01*
X161958393Y-52222812D01*
X161966816Y-52222183D01*
X161968972Y-52221853D01*
X161968948Y-52218035D01*
X161967927Y-52208409D01*
X161966059Y-52194150D01*
X161963497Y-52176429D01*
X161961125Y-52161026D01*
X161955238Y-52120987D01*
X161949372Y-52075962D01*
X161943755Y-52028032D01*
X161943690Y-52027415D01*
X162475260Y-52027415D01*
X162476608Y-52058607D01*
X162483473Y-52089575D01*
X162496139Y-52119646D01*
X162514891Y-52148146D01*
X162529909Y-52164942D01*
X162557861Y-52188073D01*
X162589011Y-52205104D01*
X162622617Y-52215806D01*
X162657937Y-52219952D01*
X162694229Y-52217315D01*
X162698311Y-52216589D01*
X162730063Y-52207128D01*
X162759938Y-52191528D01*
X162786959Y-52170664D01*
X162810150Y-52145413D01*
X162828537Y-52116650D01*
X162839818Y-52089598D01*
X162844322Y-52069894D01*
X162846870Y-52046697D01*
X162847377Y-52022720D01*
X162845756Y-52000670D01*
X162843055Y-51986888D01*
X162830149Y-51952751D01*
X162811842Y-51922522D01*
X162788778Y-51896705D01*
X162761606Y-51875805D01*
X162730969Y-51860323D01*
X162697516Y-51850765D01*
X162664316Y-51847632D01*
X162628847Y-51850559D01*
X162596328Y-51859318D01*
X162567045Y-51873237D01*
X162541283Y-51891643D01*
X162519326Y-51913862D01*
X162501461Y-51939222D01*
X162487971Y-51967050D01*
X162479142Y-51996672D01*
X162475260Y-52027415D01*
X161943690Y-52027415D01*
X161938616Y-51979280D01*
X161934187Y-51931788D01*
X161930694Y-51887640D01*
X161930174Y-51880072D01*
X161928457Y-51850930D01*
X161927628Y-51826666D01*
X161927684Y-51805144D01*
X161928620Y-51784225D01*
X161929950Y-51767034D01*
X161932661Y-51741087D01*
X161936591Y-51709816D01*
X161941490Y-51674813D01*
X161947103Y-51637670D01*
X161953180Y-51599980D01*
X161959468Y-51563335D01*
X161965714Y-51529329D01*
X161971667Y-51499552D01*
X161974114Y-51488261D01*
X161978446Y-51468872D01*
X162037623Y-51538899D01*
X162054279Y-51558368D01*
X162069045Y-51575155D01*
X162081383Y-51588681D01*
X162090751Y-51598366D01*
X162096612Y-51603631D01*
X162098418Y-51604258D01*
X162099745Y-51599267D01*
X162102284Y-51588750D01*
X162105709Y-51574087D01*
X162109696Y-51556656D01*
X162111181Y-51550083D01*
X162123320Y-51499376D01*
X162137265Y-51446707D01*
X162152544Y-51393599D01*
X162168688Y-51341572D01*
X162185226Y-51292148D01*
X162201687Y-51246850D01*
X162215935Y-51211137D01*
X162227646Y-51183164D01*
X162236974Y-51160505D01*
X162244345Y-51141985D01*
X162250186Y-51126426D01*
X162254923Y-51112654D01*
X162258984Y-51099493D01*
X162262793Y-51085765D01*
X162266255Y-51072370D01*
X162275745Y-51030979D01*
X162284983Y-50982993D01*
X162293915Y-50928888D01*
X162302488Y-50869137D01*
X162310647Y-50804215D01*
X162318339Y-50734597D01*
X162325509Y-50660757D01*
X162332103Y-50583171D01*
X162338069Y-50502313D01*
X162343351Y-50418658D01*
X162345989Y-50370785D01*
X162347982Y-50332775D01*
X162349666Y-50301259D01*
X162351096Y-50275668D01*
X162352327Y-50255433D01*
X162353412Y-50239986D01*
X162354408Y-50228757D01*
X162355369Y-50221178D01*
X162356350Y-50216679D01*
X162357406Y-50214692D01*
X162358591Y-50214648D01*
X162359960Y-50215979D01*
X162360808Y-50217084D01*
X162364229Y-50222433D01*
X162370754Y-50233348D01*
X162380040Y-50249220D01*
X162391741Y-50269441D01*
X162405512Y-50293404D01*
X162421007Y-50320501D01*
X162437882Y-50350122D01*
X162455792Y-50381661D01*
X162474392Y-50414510D01*
X162493336Y-50448059D01*
X162512279Y-50481702D01*
X162530877Y-50514830D01*
X162548785Y-50546835D01*
X162565656Y-50577109D01*
X162581147Y-50605044D01*
X162587183Y-50615978D01*
X162606775Y-50651757D01*
X162623197Y-50682379D01*
X162636864Y-50708785D01*
X162648190Y-50731916D01*
X162657590Y-50752710D01*
X162665478Y-50772109D01*
X162672270Y-50791053D01*
X162678379Y-50810481D01*
X162684220Y-50831334D01*
X162687240Y-50842858D01*
X162699065Y-50894684D01*
X162708164Y-50948163D01*
X162714674Y-51004517D01*
X162718731Y-51064969D01*
X162720470Y-51130740D01*
X162720542Y-51141661D01*
X162720799Y-51169814D01*
X162721308Y-51193332D01*
X162722044Y-51211645D01*
X162722981Y-51224184D01*
X162724096Y-51230378D01*
X162724430Y-51230894D01*
X162729961Y-51232534D01*
X162739468Y-51233469D01*
X162742870Y-51233546D01*
X162758648Y-51234725D01*
X162779316Y-51237917D01*
X162803106Y-51242743D01*
X162828252Y-51248824D01*
X162852987Y-51255782D01*
X162866382Y-51260046D01*
X162922871Y-51282169D01*
X162977009Y-51310036D01*
X163029128Y-51343893D01*
X163079560Y-51383987D01*
X163128637Y-51430564D01*
X163176690Y-51483870D01*
X163190444Y-51500578D01*
X163227811Y-51550161D01*
X163258871Y-51598801D01*
X163284121Y-51647489D01*
X163304058Y-51697215D01*
X163319176Y-51748968D01*
X163322723Y-51764462D01*
X163325574Y-51782727D01*
X163327657Y-51806488D01*
X163328972Y-51834210D01*
X163329522Y-51864359D01*
X163329305Y-51895399D01*
X163328324Y-51925797D01*
X163326580Y-51954017D01*
X163324073Y-51978525D01*
X163322591Y-51988563D01*
X163313869Y-52034036D01*
X163302816Y-52081118D01*
X163289932Y-52128125D01*
X163275716Y-52173378D01*
X163260667Y-52215194D01*
X163245284Y-52251891D01*
X163242836Y-52257152D01*
X163212588Y-52313515D01*
X163176529Y-52367443D01*
X163135381Y-52418202D01*
X163089865Y-52465059D01*
X163040702Y-52507280D01*
X162988614Y-52544131D01*
X162934322Y-52574878D01*
X162926990Y-52578461D01*
X162896166Y-52593241D01*
X162896049Y-52639913D01*
X162896451Y-52665691D01*
X162897885Y-52691742D01*
X162900497Y-52719263D01*
X162904431Y-52749449D01*
X162909835Y-52783496D01*
X162916852Y-52822600D01*
X162920871Y-52843691D01*
X162929686Y-52886441D01*
X162938754Y-52923963D01*
X162948691Y-52958093D01*
X162960112Y-52990667D01*
X162973632Y-53023520D01*
X162989865Y-53058487D01*
X162999068Y-53077091D01*
X163005668Y-53090389D01*
X163009289Y-53098513D01*
X163010185Y-53102581D01*
X163008607Y-53103710D01*
X163004941Y-53103051D01*
X162975863Y-53096002D01*
X162949148Y-53090352D01*
X162923449Y-53085961D01*
X162897418Y-53082689D01*
X162869709Y-53080396D01*
X162838973Y-53078943D01*
X162803863Y-53078190D01*
X162763328Y-53077998D01*
X162732252Y-53078108D01*
X162706885Y-53078429D01*
X162685863Y-53079036D01*
X162667823Y-53080003D01*
X162651404Y-53081404D01*
X162635243Y-53083314D01*
X162617976Y-53085807D01*
X162616578Y-53086023D01*
X162590549Y-53090372D01*
X162563062Y-53095526D01*
X162535075Y-53101251D01*
X162507544Y-53107315D01*
X162481424Y-53113486D01*
X162457674Y-53119531D01*
X162437248Y-53125218D01*
X162421104Y-53130313D01*
X162410198Y-53134584D01*
X162405880Y-53137260D01*
X162403131Y-53142031D01*
X162398537Y-53151939D01*
X162392752Y-53165506D01*
X162386828Y-53180238D01*
X162375339Y-53207660D01*
X162361108Y-53238588D01*
X162345110Y-53271116D01*
X162328319Y-53303336D01*
X162311709Y-53333344D01*
X162296254Y-53359234D01*
X162291695Y-53366362D01*
X162263542Y-53407198D01*
X162236174Y-53441798D01*
X162208707Y-53470800D01*
X162180257Y-53494841D01*
X162149939Y-53514556D01*
X162116870Y-53530584D01*
X162080166Y-53543562D01*
X162038941Y-53554126D01*
X162027813Y-53556466D01*
X161993484Y-53562155D01*
X161954660Y-53566467D01*
X161913812Y-53569256D01*
X161873408Y-53570380D01*
X161835919Y-53569694D01*
X161819182Y-53568639D01*
X161761168Y-53563128D01*
X161708669Y-53556412D01*
X161660194Y-53548254D01*
X161614251Y-53538418D01*
X161588754Y-53532004D01*
X161536523Y-53516423D01*
X161490026Y-53498676D01*
X161448096Y-53478144D01*
X161409566Y-53454208D01*
X161373269Y-53426248D01*
X161349979Y-53405300D01*
X161317106Y-53371032D01*
X161288920Y-53335399D01*
X161268856Y-53303948D01*
X161262149Y-53292645D01*
X161257165Y-53286404D01*
X161252514Y-53283936D01*
X161247220Y-53283904D01*
X161238944Y-53283554D01*
X161224265Y-53281433D01*
X161203599Y-53277640D01*
X161177363Y-53272270D01*
X161145976Y-53265423D01*
X161109854Y-53257196D01*
X161069414Y-53247686D01*
X161025075Y-53236991D01*
X160977252Y-53225208D01*
X160926364Y-53212435D01*
X160872827Y-53198770D01*
X160817059Y-53184310D01*
X160782081Y-53175130D01*
X160754951Y-53167537D01*
X160721383Y-53157373D01*
X160681510Y-53144684D01*
X160635463Y-53129516D01*
X160583376Y-53111914D01*
X160525381Y-53091923D01*
X160461610Y-53069590D01*
X160392197Y-53044959D01*
X160317273Y-53018077D01*
X160236970Y-52988989D01*
X160176651Y-52966980D01*
X160154869Y-52958636D01*
X160139779Y-52951937D01*
X160131230Y-52946750D01*
X160129069Y-52942940D01*
X160133145Y-52940373D01*
X160143305Y-52938914D01*
X160144826Y-52938813D01*
X160160719Y-52937462D01*
X160181757Y-52935122D01*
X160206338Y-52932023D01*
X160232860Y-52928396D01*
X160259720Y-52924472D01*
X160285317Y-52920483D01*
X160308048Y-52916659D01*
X160326310Y-52913232D01*
X160334449Y-52911464D01*
X160356604Y-52905829D01*
X160380614Y-52898915D01*
X160406962Y-52890538D01*
X160436131Y-52880516D01*
X160468603Y-52868667D01*
X160498861Y-52857102D01*
X161680326Y-52857102D01*
X161681048Y-52893025D01*
X161687079Y-52924888D01*
X161698789Y-52953694D01*
X161716550Y-52980447D01*
X161732547Y-52998254D01*
X161760628Y-53021778D01*
X161791644Y-53039164D01*
X161824877Y-53050191D01*
X161859611Y-53054638D01*
X161895128Y-53052282D01*
X161902991Y-53050826D01*
X161935137Y-53040708D01*
X161965068Y-53024589D01*
X161991895Y-53003353D01*
X162014727Y-52977885D01*
X162025594Y-52960437D01*
X162554033Y-52960437D01*
X162555402Y-52977877D01*
X162562398Y-52992925D01*
X162573768Y-53004823D01*
X162588258Y-53012811D01*
X162604614Y-53016130D01*
X162621581Y-53014021D01*
X162633616Y-53008628D01*
X162643976Y-52999150D01*
X162652255Y-52985854D01*
X162657207Y-52971357D01*
X162657593Y-52958321D01*
X162651201Y-52940688D01*
X162640766Y-52927493D01*
X162627475Y-52918714D01*
X162612520Y-52914324D01*
X162597089Y-52914300D01*
X162582374Y-52918617D01*
X162569563Y-52927252D01*
X162559847Y-52940180D01*
X162554416Y-52957376D01*
X162554033Y-52960437D01*
X162025594Y-52960437D01*
X162032674Y-52949069D01*
X162044846Y-52917791D01*
X162047401Y-52907289D01*
X162050001Y-52885690D01*
X162050038Y-52860873D01*
X162047703Y-52835777D01*
X162044314Y-52818928D01*
X162716083Y-52818928D01*
X162718443Y-52833778D01*
X162723760Y-52845341D01*
X162724799Y-52846616D01*
X162739875Y-52859168D01*
X162756890Y-52865951D01*
X162774436Y-52866682D01*
X162791102Y-52861076D01*
X162792533Y-52860237D01*
X162806849Y-52847899D01*
X162815366Y-52832707D01*
X162818021Y-52815945D01*
X162814751Y-52798895D01*
X162805493Y-52782844D01*
X162796777Y-52774004D01*
X162782561Y-52766311D01*
X162766297Y-52764168D01*
X162749773Y-52767182D01*
X162734776Y-52774962D01*
X162723095Y-52787116D01*
X162720993Y-52790622D01*
X162716868Y-52803605D01*
X162716083Y-52818928D01*
X162044314Y-52818928D01*
X162043190Y-52813340D01*
X162040738Y-52805547D01*
X162025946Y-52774266D01*
X162005932Y-52746655D01*
X161981555Y-52723211D01*
X161953674Y-52704432D01*
X161923148Y-52690817D01*
X161890836Y-52682863D01*
X161857597Y-52681068D01*
X161831558Y-52684269D01*
X161795717Y-52694880D01*
X161763912Y-52710941D01*
X161736570Y-52731961D01*
X161714119Y-52757453D01*
X161696987Y-52786928D01*
X161685600Y-52819898D01*
X161680388Y-52855873D01*
X161680326Y-52857102D01*
X160498861Y-52857102D01*
X160504863Y-52854808D01*
X160545392Y-52838758D01*
G37*
%TO.C,G450*%
G36*
X109325075Y-120997128D02*
G01*
X109335095Y-121000581D01*
X109348969Y-121005737D01*
X109365356Y-121012109D01*
X109369980Y-121013952D01*
X109404157Y-121027413D01*
X109438480Y-121040438D01*
X109473684Y-121053269D01*
X109510501Y-121066147D01*
X109549667Y-121079315D01*
X109591917Y-121093014D01*
X109637984Y-121107485D01*
X109688602Y-121122972D01*
X109744506Y-121139714D01*
X109806430Y-121157955D01*
X109814706Y-121160374D01*
X109871024Y-121176929D01*
X109921110Y-121191890D01*
X109965572Y-121205468D01*
X110005017Y-121217874D01*
X110040053Y-121229317D01*
X110071286Y-121240009D01*
X110099324Y-121250161D01*
X110124773Y-121259982D01*
X110148241Y-121269683D01*
X110170336Y-121279474D01*
X110191663Y-121289567D01*
X110201912Y-121294634D01*
X110242629Y-121316696D01*
X110284692Y-121342853D01*
X110328584Y-121373462D01*
X110374785Y-121408878D01*
X110423777Y-121449455D01*
X110476041Y-121495551D01*
X110485959Y-121504577D01*
X110501516Y-121519110D01*
X110518329Y-121535351D01*
X110535698Y-121552565D01*
X110552922Y-121570020D01*
X110569300Y-121586982D01*
X110584134Y-121602716D01*
X110596722Y-121616489D01*
X110606365Y-121627567D01*
X110612363Y-121635216D01*
X110614014Y-121638703D01*
X110613979Y-121638746D01*
X110610486Y-121637676D01*
X110602234Y-121633491D01*
X110590448Y-121626854D01*
X110576349Y-121618424D01*
X110575932Y-121618168D01*
X110533649Y-121592719D01*
X110494576Y-121570374D01*
X110456378Y-121549847D01*
X110416723Y-121529851D01*
X110408776Y-121525978D01*
X110371843Y-121508619D01*
X110339554Y-121494783D01*
X110310632Y-121484125D01*
X110283800Y-121476297D01*
X110257783Y-121470952D01*
X110231305Y-121467744D01*
X110203090Y-121466325D01*
X110188801Y-121466178D01*
X110139680Y-121467780D01*
X110086322Y-121472632D01*
X110027996Y-121480812D01*
X109987977Y-121487783D01*
X109969977Y-121491289D01*
X109948778Y-121495675D01*
X109925462Y-121500693D01*
X109901113Y-121506089D01*
X109876817Y-121511615D01*
X109853656Y-121517018D01*
X109832714Y-121522049D01*
X109815075Y-121526457D01*
X109801823Y-121529991D01*
X109794043Y-121532401D01*
X109792844Y-121532915D01*
X109792964Y-121536687D01*
X109797690Y-121545475D01*
X109806887Y-121559051D01*
X109815319Y-121570496D01*
X109854017Y-121624084D01*
X109892306Y-121681432D01*
X109929333Y-121741076D01*
X109964243Y-121801548D01*
X109996180Y-121861383D01*
X110024292Y-121919115D01*
X110042247Y-121959902D01*
X110046604Y-121971061D01*
X110052927Y-121988288D01*
X110060993Y-122010925D01*
X110070584Y-122038314D01*
X110081477Y-122069796D01*
X110093454Y-122104713D01*
X110106293Y-122142407D01*
X110119774Y-122182220D01*
X110133677Y-122223494D01*
X110147781Y-122265569D01*
X110161866Y-122307789D01*
X110175711Y-122349495D01*
X110189096Y-122390028D01*
X110201801Y-122428731D01*
X110213605Y-122464945D01*
X110224288Y-122498012D01*
X110233629Y-122527274D01*
X110241408Y-122552072D01*
X110247404Y-122571749D01*
X110249326Y-122578285D01*
X110276521Y-122677130D01*
X110299533Y-122771558D01*
X110318587Y-122862682D01*
X110333910Y-122951615D01*
X110345729Y-123039468D01*
X110348677Y-123066271D01*
X110350323Y-123084508D01*
X110352152Y-123109157D01*
X110354128Y-123139563D01*
X110356220Y-123175068D01*
X110358394Y-123215015D01*
X110360618Y-123258750D01*
X110362858Y-123305614D01*
X110365081Y-123354951D01*
X110367254Y-123406105D01*
X110369344Y-123458419D01*
X110371318Y-123511237D01*
X110371900Y-123527565D01*
X110372983Y-123564886D01*
X110373790Y-123606653D01*
X110374330Y-123651921D01*
X110374611Y-123699744D01*
X110374642Y-123749177D01*
X110374432Y-123799273D01*
X110373989Y-123849089D01*
X110373323Y-123897678D01*
X110372443Y-123944094D01*
X110371356Y-123987393D01*
X110370073Y-124026628D01*
X110368601Y-124060854D01*
X110366949Y-124089126D01*
X110366633Y-124093516D01*
X110357253Y-124202074D01*
X110345697Y-124304596D01*
X110331827Y-124401818D01*
X110315503Y-124494476D01*
X110296588Y-124583305D01*
X110274943Y-124669044D01*
X110250430Y-124752426D01*
X110232169Y-124807813D01*
X110202188Y-124888639D01*
X110166878Y-124972729D01*
X110126698Y-125059281D01*
X110082106Y-125147492D01*
X110033561Y-125236561D01*
X109981520Y-125325687D01*
X109926443Y-125414066D01*
X109868786Y-125500897D01*
X109809009Y-125585378D01*
X109747570Y-125666707D01*
X109725308Y-125694841D01*
X109705484Y-125719300D01*
X109684879Y-125744214D01*
X109664025Y-125768982D01*
X109643457Y-125793003D01*
X109623704Y-125815677D01*
X109605301Y-125836405D01*
X109588778Y-125854585D01*
X109574670Y-125869617D01*
X109563508Y-125880900D01*
X109555824Y-125887835D01*
X109552371Y-125889864D01*
X109551243Y-125886494D01*
X109548250Y-125876514D01*
X109543447Y-125860121D01*
X109536890Y-125837513D01*
X109528636Y-125808886D01*
X109518739Y-125774437D01*
X109507257Y-125734362D01*
X109494245Y-125688859D01*
X109479758Y-125638125D01*
X109463854Y-125582356D01*
X109446588Y-125521748D01*
X109428015Y-125456500D01*
X109408192Y-125386807D01*
X109387175Y-125312867D01*
X109365020Y-125234876D01*
X109341783Y-125153031D01*
X109317518Y-125067529D01*
X109292284Y-124978567D01*
X109266135Y-124886341D01*
X109239127Y-124791049D01*
X109211317Y-124692887D01*
X109182760Y-124592053D01*
X109153512Y-124488742D01*
X109123630Y-124383151D01*
X109093169Y-124275479D01*
X109062185Y-124165921D01*
X109034026Y-124066321D01*
X109002622Y-123955233D01*
X108971697Y-123845849D01*
X108941306Y-123738367D01*
X108911505Y-123632984D01*
X108882350Y-123529897D01*
X108853897Y-123429302D01*
X108826200Y-123331397D01*
X108799318Y-123236379D01*
X108773304Y-123144444D01*
X108748215Y-123055790D01*
X108724106Y-122970614D01*
X108701034Y-122889112D01*
X108679054Y-122811482D01*
X108658222Y-122737921D01*
X108638594Y-122668625D01*
X108620225Y-122603792D01*
X108603171Y-122543619D01*
X108587488Y-122488302D01*
X108573233Y-122438039D01*
X108560460Y-122393026D01*
X108549225Y-122353461D01*
X108539585Y-122319541D01*
X108531594Y-122291462D01*
X108525310Y-122269422D01*
X108520787Y-122253617D01*
X108518081Y-122244245D01*
X108517246Y-122241473D01*
X108514079Y-122243020D01*
X108505550Y-122247974D01*
X108492274Y-122255959D01*
X108474864Y-122266598D01*
X108453933Y-122279514D01*
X108430096Y-122294332D01*
X108403966Y-122310674D01*
X108385606Y-122322212D01*
X108358108Y-122339478D01*
X108332344Y-122355572D01*
X108308953Y-122370100D01*
X108288573Y-122382669D01*
X108271844Y-122392885D01*
X108259405Y-122400357D01*
X108251894Y-122404690D01*
X108249970Y-122405635D01*
X108246107Y-122403768D01*
X108237337Y-122397807D01*
X108224203Y-122388166D01*
X108207245Y-122375259D01*
X108187007Y-122359501D01*
X108164030Y-122341305D01*
X108138856Y-122321087D01*
X108129742Y-122313704D01*
X108105194Y-122293811D01*
X108082390Y-122275406D01*
X108061905Y-122258946D01*
X108044312Y-122244888D01*
X108030185Y-122233689D01*
X108020096Y-122225808D01*
X108014620Y-122221702D01*
X108013786Y-122221209D01*
X108013362Y-122224816D01*
X108012725Y-122234509D01*
X108011925Y-122249309D01*
X108011012Y-122268235D01*
X108010038Y-122290308D01*
X108009374Y-122306446D01*
X108003806Y-122442768D01*
X107998274Y-122572624D01*
X107992744Y-122696619D01*
X107987183Y-122815359D01*
X107981558Y-122929450D01*
X107975836Y-123039497D01*
X107969984Y-123146107D01*
X107963969Y-123249884D01*
X107957757Y-123351435D01*
X107951316Y-123451364D01*
X107944613Y-123550279D01*
X107937614Y-123648783D01*
X107931526Y-123731063D01*
X107921143Y-123864401D01*
X107910588Y-123990782D01*
X107899848Y-124110319D01*
X107888908Y-124223125D01*
X107877752Y-124329313D01*
X107866368Y-124428997D01*
X107854740Y-124522289D01*
X107842854Y-124609304D01*
X107830695Y-124690153D01*
X107818249Y-124764950D01*
X107805501Y-124833809D01*
X107792437Y-124896843D01*
X107779043Y-124954164D01*
X107770699Y-124986388D01*
X107753360Y-125051255D01*
X107737855Y-125110531D01*
X107723914Y-125165378D01*
X107711268Y-125216957D01*
X107699648Y-125266430D01*
X107688783Y-125314959D01*
X107678406Y-125363705D01*
X107668245Y-125413829D01*
X107658032Y-125466494D01*
X107652384Y-125496486D01*
X107637846Y-125578257D01*
X107623858Y-125664465D01*
X107610657Y-125753334D01*
X107598481Y-125843087D01*
X107587567Y-125931948D01*
X107578153Y-126018141D01*
X107570477Y-126099888D01*
X107568497Y-126123923D01*
X107566632Y-126146374D01*
X107564827Y-126166232D01*
X107563185Y-126182492D01*
X107561811Y-126194148D01*
X107560809Y-126200194D01*
X107560515Y-126200819D01*
X107557673Y-126198161D01*
X107551311Y-126191094D01*
X107542373Y-126180697D01*
X107531856Y-126168109D01*
X107472634Y-126094904D01*
X107412574Y-126017913D01*
X107352373Y-125938128D01*
X107292726Y-125856542D01*
X107234330Y-125774148D01*
X107177881Y-125691939D01*
X107124076Y-125610906D01*
X107073611Y-125532044D01*
X107027183Y-125456343D01*
X106999297Y-125408955D01*
X106955316Y-125330961D01*
X106915727Y-125256679D01*
X106879932Y-125184809D01*
X106847333Y-125114051D01*
X106817333Y-125043104D01*
X106789334Y-124970667D01*
X106762739Y-124895442D01*
X106761265Y-124891081D01*
X106751684Y-124862724D01*
X106742650Y-124836166D01*
X106733910Y-124810698D01*
X106725210Y-124785610D01*
X106716296Y-124760195D01*
X106706914Y-124733742D01*
X106696810Y-124705543D01*
X106685730Y-124674888D01*
X106673421Y-124641068D01*
X106659628Y-124603375D01*
X106644097Y-124561098D01*
X106626575Y-124513530D01*
X106609250Y-124466577D01*
X106585991Y-124403422D01*
X106565070Y-124346264D01*
X106546279Y-124294501D01*
X106529413Y-124247532D01*
X106514265Y-124204756D01*
X106500626Y-124165570D01*
X106488290Y-124129374D01*
X106477051Y-124095565D01*
X106466701Y-124063543D01*
X106457034Y-124032706D01*
X106447842Y-124002452D01*
X106438918Y-123972179D01*
X106437701Y-123967983D01*
X106408827Y-123860842D01*
X106384909Y-123755469D01*
X106365482Y-123649506D01*
X106350082Y-123540594D01*
X106345160Y-123497678D01*
X106342927Y-123471532D01*
X106341148Y-123439627D01*
X106339823Y-123403265D01*
X106338952Y-123363746D01*
X106338536Y-123322368D01*
X106338574Y-123280434D01*
X106339067Y-123239241D01*
X106340015Y-123200091D01*
X106341418Y-123164284D01*
X106343276Y-123133119D01*
X106345107Y-123112241D01*
X106359699Y-122995530D01*
X106379135Y-122874730D01*
X106403211Y-122750700D01*
X106431723Y-122624303D01*
X106464467Y-122496401D01*
X106501238Y-122367854D01*
X106541831Y-122239524D01*
X106575409Y-122141837D01*
X106582549Y-122121695D01*
X106588798Y-122103914D01*
X106593794Y-122089535D01*
X106597175Y-122079601D01*
X106598580Y-122075152D01*
X106598599Y-122075033D01*
X106595244Y-122074313D01*
X106585882Y-122073986D01*
X106571560Y-122074012D01*
X106553331Y-122074348D01*
X106532244Y-122074954D01*
X106509349Y-122075788D01*
X106485697Y-122076808D01*
X106462337Y-122077973D01*
X106440321Y-122079241D01*
X106420698Y-122080570D01*
X106404519Y-122081920D01*
X106393503Y-122083153D01*
X106360102Y-122088497D01*
X106326672Y-122095202D01*
X106295094Y-122102824D01*
X106267247Y-122110918D01*
X106249465Y-122117218D01*
X106233251Y-122124626D01*
X106212387Y-122135744D01*
X106187834Y-122149974D01*
X106160551Y-122166717D01*
X106131497Y-122185375D01*
X106101632Y-122205349D01*
X106071914Y-122226041D01*
X106052470Y-122240078D01*
X106041267Y-122248016D01*
X106032374Y-122253799D01*
X106027175Y-122256548D01*
X106026435Y-122256597D01*
X106027594Y-122252992D01*
X106032636Y-122244560D01*
X106041034Y-122232004D01*
X106052267Y-122216029D01*
X106065808Y-122197340D01*
X106081135Y-122176640D01*
X106097723Y-122154635D01*
X106115047Y-122132029D01*
X106132583Y-122109525D01*
X106149807Y-122087828D01*
X106166195Y-122067643D01*
X106174659Y-122057445D01*
X106231191Y-121992273D01*
X106286289Y-121933536D01*
X106340392Y-121880850D01*
X106393937Y-121833831D01*
X106447361Y-121792094D01*
X106501102Y-121755254D01*
X106554478Y-121723542D01*
X106598926Y-121700552D01*
X106648748Y-121677386D01*
X106702393Y-121654618D01*
X106758309Y-121632823D01*
X106814945Y-121612572D01*
X106870747Y-121594442D01*
X106924165Y-121579006D01*
X106973646Y-121566837D01*
X106984430Y-121564535D01*
X106996648Y-121561497D01*
X107003141Y-121558342D01*
X107005235Y-121554391D01*
X107005253Y-121553869D01*
X107006490Y-121549936D01*
X107011321Y-121548042D01*
X107021426Y-121547557D01*
X107022050Y-121547559D01*
X107034204Y-121548279D01*
X107042384Y-121550050D01*
X107045745Y-121552421D01*
X107043440Y-121554942D01*
X107038662Y-121556411D01*
X107024396Y-121559687D01*
X107016579Y-121562520D01*
X107014801Y-121566189D01*
X107018652Y-121571972D01*
X107027722Y-121581148D01*
X107030006Y-121583386D01*
X107069411Y-121617803D01*
X107115441Y-121650335D01*
X107167884Y-121680888D01*
X107226523Y-121709371D01*
X107291144Y-121735690D01*
X107361532Y-121759754D01*
X107437473Y-121781470D01*
X107518751Y-121800745D01*
X107549817Y-121807177D01*
X107606652Y-121817543D01*
X107666248Y-121826622D01*
X107727738Y-121834375D01*
X107790252Y-121840764D01*
X107852921Y-121845749D01*
X107914877Y-121849292D01*
X107975250Y-121851352D01*
X108033173Y-121851892D01*
X108087775Y-121850872D01*
X108138189Y-121848253D01*
X108183545Y-121843996D01*
X108222975Y-121838062D01*
X108225661Y-121837550D01*
X108286685Y-121822689D01*
X108350161Y-121801331D01*
X108415958Y-121773561D01*
X108483945Y-121739466D01*
X108553992Y-121699132D01*
X108625965Y-121652643D01*
X108699735Y-121600087D01*
X108775169Y-121541550D01*
X108852138Y-121477116D01*
X108930508Y-121406873D01*
X109010150Y-121330905D01*
X109031182Y-121310094D01*
X109057761Y-121283270D01*
X109085924Y-121254253D01*
X109115028Y-121223746D01*
X109144434Y-121192453D01*
X109173499Y-121161077D01*
X109201582Y-121130321D01*
X109228043Y-121100890D01*
X109252240Y-121073487D01*
X109273532Y-121048815D01*
X109291277Y-121027577D01*
X109304835Y-121010478D01*
X109307457Y-121006983D01*
X109313829Y-120999829D01*
X109319308Y-120996047D01*
X109320256Y-120995869D01*
X109325075Y-120997128D01*
G37*
G36*
X106189392Y-120910758D02*
G01*
X106234674Y-120892333D01*
X106285192Y-120871352D01*
X106341428Y-120847632D01*
X106366983Y-120836761D01*
X106397482Y-120823774D01*
X106427599Y-120810981D01*
X106456332Y-120798806D01*
X106482679Y-120787671D01*
X106505639Y-120778000D01*
X106524211Y-120770216D01*
X106537393Y-120764743D01*
X106538485Y-120764294D01*
X106597454Y-120737858D01*
X106651382Y-120708776D01*
X106702126Y-120675956D01*
X106748884Y-120640475D01*
X106762195Y-120629212D01*
X106776882Y-120616054D01*
X106792026Y-120601911D01*
X106806707Y-120587694D01*
X106820008Y-120574313D01*
X106831009Y-120562680D01*
X106838791Y-120553704D01*
X106842435Y-120548297D01*
X106842592Y-120547619D01*
X106839143Y-120544246D01*
X106829139Y-120541213D01*
X106813087Y-120538567D01*
X106791497Y-120536358D01*
X106764880Y-120534633D01*
X106733744Y-120533440D01*
X106698599Y-120532826D01*
X106684350Y-120532755D01*
X106659742Y-120532610D01*
X106641452Y-120532239D01*
X106628727Y-120531591D01*
X106620815Y-120530614D01*
X106616963Y-120529256D01*
X106616279Y-120528091D01*
X106616660Y-120526569D01*
X106618174Y-120524741D01*
X106621382Y-120522316D01*
X106626846Y-120519003D01*
X106635124Y-120514511D01*
X106646777Y-120508549D01*
X106662366Y-120500826D01*
X106682450Y-120491051D01*
X106707591Y-120478934D01*
X106738348Y-120464183D01*
X106751537Y-120457869D01*
X106792521Y-120438421D01*
X106828388Y-120421802D01*
X106860273Y-120407537D01*
X106889313Y-120395150D01*
X106916644Y-120384166D01*
X106943400Y-120374111D01*
X106970718Y-120364508D01*
X106990164Y-120358004D01*
X107048654Y-120339719D01*
X107101541Y-120325150D01*
X107148750Y-120314310D01*
X107190206Y-120307217D01*
X107225833Y-120303884D01*
X107252584Y-120304093D01*
X107271488Y-120305148D01*
X107292314Y-120305898D01*
X107310648Y-120306185D01*
X107311128Y-120306184D01*
X107322561Y-120306037D01*
X107339059Y-120305636D01*
X107359741Y-120305017D01*
X107383723Y-120304217D01*
X107410123Y-120303272D01*
X107438057Y-120302218D01*
X107466642Y-120301091D01*
X107494997Y-120299926D01*
X107522236Y-120298761D01*
X107547479Y-120297631D01*
X107569841Y-120296572D01*
X107588440Y-120295620D01*
X107602393Y-120294812D01*
X107610816Y-120294183D01*
X107612972Y-120293853D01*
X107612948Y-120290035D01*
X107611927Y-120280409D01*
X107610059Y-120266150D01*
X107607497Y-120248429D01*
X107605125Y-120233026D01*
X107599238Y-120192987D01*
X107593372Y-120147962D01*
X107587755Y-120100032D01*
X107587690Y-120099415D01*
X108119260Y-120099415D01*
X108120608Y-120130607D01*
X108127473Y-120161575D01*
X108140139Y-120191646D01*
X108158891Y-120220146D01*
X108173909Y-120236942D01*
X108201861Y-120260073D01*
X108233011Y-120277104D01*
X108266617Y-120287806D01*
X108301937Y-120291952D01*
X108338229Y-120289315D01*
X108342311Y-120288589D01*
X108374063Y-120279128D01*
X108403938Y-120263528D01*
X108430959Y-120242664D01*
X108454150Y-120217413D01*
X108472537Y-120188650D01*
X108483818Y-120161598D01*
X108488322Y-120141894D01*
X108490870Y-120118697D01*
X108491377Y-120094720D01*
X108489756Y-120072670D01*
X108487055Y-120058888D01*
X108474149Y-120024751D01*
X108455842Y-119994522D01*
X108432778Y-119968705D01*
X108405606Y-119947805D01*
X108374969Y-119932323D01*
X108341516Y-119922765D01*
X108308316Y-119919632D01*
X108272847Y-119922559D01*
X108240328Y-119931318D01*
X108211045Y-119945237D01*
X108185283Y-119963643D01*
X108163326Y-119985862D01*
X108145461Y-120011222D01*
X108131971Y-120039050D01*
X108123142Y-120068672D01*
X108119260Y-120099415D01*
X107587690Y-120099415D01*
X107582616Y-120051280D01*
X107578187Y-120003788D01*
X107574694Y-119959640D01*
X107574174Y-119952072D01*
X107572457Y-119922930D01*
X107571628Y-119898666D01*
X107571684Y-119877144D01*
X107572620Y-119856225D01*
X107573950Y-119839034D01*
X107576661Y-119813087D01*
X107580591Y-119781816D01*
X107585490Y-119746813D01*
X107591103Y-119709670D01*
X107597180Y-119671980D01*
X107603468Y-119635335D01*
X107609714Y-119601329D01*
X107615667Y-119571552D01*
X107618114Y-119560261D01*
X107622446Y-119540872D01*
X107681623Y-119610899D01*
X107698279Y-119630368D01*
X107713045Y-119647155D01*
X107725383Y-119660681D01*
X107734751Y-119670366D01*
X107740612Y-119675631D01*
X107742418Y-119676258D01*
X107743745Y-119671267D01*
X107746284Y-119660750D01*
X107749709Y-119646087D01*
X107753696Y-119628656D01*
X107755181Y-119622083D01*
X107767320Y-119571376D01*
X107781265Y-119518707D01*
X107796544Y-119465599D01*
X107812688Y-119413572D01*
X107829226Y-119364148D01*
X107845687Y-119318850D01*
X107859935Y-119283137D01*
X107871646Y-119255164D01*
X107880974Y-119232505D01*
X107888345Y-119213985D01*
X107894186Y-119198426D01*
X107898923Y-119184654D01*
X107902984Y-119171493D01*
X107906793Y-119157765D01*
X107910255Y-119144370D01*
X107919745Y-119102979D01*
X107928983Y-119054993D01*
X107937915Y-119000888D01*
X107946488Y-118941137D01*
X107954647Y-118876215D01*
X107962339Y-118806597D01*
X107969509Y-118732757D01*
X107976103Y-118655171D01*
X107982069Y-118574313D01*
X107987351Y-118490658D01*
X107989989Y-118442785D01*
X107991982Y-118404775D01*
X107993666Y-118373259D01*
X107995096Y-118347668D01*
X107996327Y-118327433D01*
X107997412Y-118311986D01*
X107998408Y-118300757D01*
X107999369Y-118293178D01*
X108000350Y-118288679D01*
X108001406Y-118286692D01*
X108002591Y-118286648D01*
X108003960Y-118287979D01*
X108004808Y-118289084D01*
X108008229Y-118294433D01*
X108014754Y-118305348D01*
X108024040Y-118321220D01*
X108035741Y-118341441D01*
X108049512Y-118365404D01*
X108065007Y-118392501D01*
X108081882Y-118422122D01*
X108099792Y-118453661D01*
X108118392Y-118486510D01*
X108137336Y-118520059D01*
X108156279Y-118553702D01*
X108174877Y-118586830D01*
X108192785Y-118618835D01*
X108209656Y-118649109D01*
X108225147Y-118677044D01*
X108231183Y-118687978D01*
X108250775Y-118723757D01*
X108267197Y-118754379D01*
X108280864Y-118780785D01*
X108292190Y-118803916D01*
X108301590Y-118824710D01*
X108309478Y-118844109D01*
X108316270Y-118863053D01*
X108322379Y-118882481D01*
X108328220Y-118903334D01*
X108331240Y-118914858D01*
X108343065Y-118966684D01*
X108352164Y-119020163D01*
X108358674Y-119076517D01*
X108362731Y-119136969D01*
X108364470Y-119202740D01*
X108364542Y-119213661D01*
X108364799Y-119241814D01*
X108365308Y-119265332D01*
X108366044Y-119283645D01*
X108366981Y-119296184D01*
X108368096Y-119302378D01*
X108368430Y-119302894D01*
X108373961Y-119304534D01*
X108383468Y-119305469D01*
X108386870Y-119305546D01*
X108402648Y-119306725D01*
X108423316Y-119309917D01*
X108447106Y-119314743D01*
X108472252Y-119320824D01*
X108496987Y-119327782D01*
X108510382Y-119332046D01*
X108566871Y-119354169D01*
X108621009Y-119382036D01*
X108673128Y-119415893D01*
X108723560Y-119455987D01*
X108772637Y-119502564D01*
X108820690Y-119555870D01*
X108834444Y-119572578D01*
X108871811Y-119622161D01*
X108902871Y-119670801D01*
X108928121Y-119719489D01*
X108948058Y-119769215D01*
X108963176Y-119820968D01*
X108966723Y-119836462D01*
X108969574Y-119854727D01*
X108971657Y-119878488D01*
X108972972Y-119906210D01*
X108973522Y-119936359D01*
X108973305Y-119967399D01*
X108972324Y-119997797D01*
X108970580Y-120026017D01*
X108968073Y-120050525D01*
X108966591Y-120060563D01*
X108957869Y-120106036D01*
X108946816Y-120153118D01*
X108933932Y-120200125D01*
X108919716Y-120245378D01*
X108904667Y-120287194D01*
X108889284Y-120323891D01*
X108886836Y-120329152D01*
X108856588Y-120385515D01*
X108820529Y-120439443D01*
X108779381Y-120490202D01*
X108733865Y-120537059D01*
X108684702Y-120579280D01*
X108632614Y-120616131D01*
X108578322Y-120646878D01*
X108570990Y-120650461D01*
X108540166Y-120665241D01*
X108540049Y-120711913D01*
X108540451Y-120737691D01*
X108541885Y-120763742D01*
X108544497Y-120791263D01*
X108548431Y-120821449D01*
X108553835Y-120855496D01*
X108560852Y-120894600D01*
X108564871Y-120915691D01*
X108573686Y-120958441D01*
X108582754Y-120995963D01*
X108592691Y-121030093D01*
X108604112Y-121062667D01*
X108617632Y-121095520D01*
X108633865Y-121130487D01*
X108643068Y-121149091D01*
X108649668Y-121162389D01*
X108653289Y-121170513D01*
X108654185Y-121174581D01*
X108652607Y-121175710D01*
X108648941Y-121175051D01*
X108619863Y-121168002D01*
X108593148Y-121162352D01*
X108567449Y-121157961D01*
X108541418Y-121154689D01*
X108513709Y-121152396D01*
X108482973Y-121150943D01*
X108447863Y-121150190D01*
X108407328Y-121149998D01*
X108376252Y-121150108D01*
X108350885Y-121150429D01*
X108329863Y-121151036D01*
X108311823Y-121152003D01*
X108295404Y-121153404D01*
X108279243Y-121155314D01*
X108261976Y-121157807D01*
X108260578Y-121158023D01*
X108234549Y-121162372D01*
X108207062Y-121167526D01*
X108179075Y-121173251D01*
X108151544Y-121179315D01*
X108125424Y-121185486D01*
X108101674Y-121191531D01*
X108081248Y-121197218D01*
X108065104Y-121202313D01*
X108054198Y-121206584D01*
X108049880Y-121209260D01*
X108047131Y-121214031D01*
X108042537Y-121223939D01*
X108036752Y-121237506D01*
X108030828Y-121252238D01*
X108019339Y-121279660D01*
X108005108Y-121310588D01*
X107989110Y-121343116D01*
X107972319Y-121375336D01*
X107955709Y-121405344D01*
X107940254Y-121431234D01*
X107935695Y-121438362D01*
X107907542Y-121479198D01*
X107880174Y-121513798D01*
X107852707Y-121542800D01*
X107824257Y-121566841D01*
X107793939Y-121586556D01*
X107760870Y-121602584D01*
X107724166Y-121615562D01*
X107682941Y-121626126D01*
X107671813Y-121628466D01*
X107637484Y-121634155D01*
X107598660Y-121638467D01*
X107557812Y-121641256D01*
X107517408Y-121642380D01*
X107479919Y-121641694D01*
X107463182Y-121640639D01*
X107405168Y-121635128D01*
X107352669Y-121628412D01*
X107304194Y-121620254D01*
X107258251Y-121610418D01*
X107232754Y-121604004D01*
X107180523Y-121588423D01*
X107134026Y-121570676D01*
X107092096Y-121550144D01*
X107053566Y-121526208D01*
X107017269Y-121498248D01*
X106993979Y-121477300D01*
X106961106Y-121443032D01*
X106932920Y-121407399D01*
X106912856Y-121375948D01*
X106906149Y-121364645D01*
X106901165Y-121358404D01*
X106896514Y-121355936D01*
X106891220Y-121355904D01*
X106882944Y-121355554D01*
X106868265Y-121353433D01*
X106847599Y-121349640D01*
X106821363Y-121344270D01*
X106789976Y-121337423D01*
X106753854Y-121329196D01*
X106713414Y-121319686D01*
X106669075Y-121308991D01*
X106621252Y-121297208D01*
X106570364Y-121284435D01*
X106516827Y-121270770D01*
X106461059Y-121256310D01*
X106426081Y-121247130D01*
X106398951Y-121239537D01*
X106365383Y-121229373D01*
X106325510Y-121216684D01*
X106279463Y-121201516D01*
X106227376Y-121183914D01*
X106169381Y-121163923D01*
X106105610Y-121141590D01*
X106036197Y-121116959D01*
X105961273Y-121090077D01*
X105880970Y-121060989D01*
X105820651Y-121038980D01*
X105798869Y-121030636D01*
X105783779Y-121023937D01*
X105775230Y-121018750D01*
X105773069Y-121014940D01*
X105777145Y-121012373D01*
X105787305Y-121010914D01*
X105788826Y-121010813D01*
X105804719Y-121009462D01*
X105825757Y-121007122D01*
X105850338Y-121004023D01*
X105876860Y-121000396D01*
X105903720Y-120996472D01*
X105929317Y-120992483D01*
X105952048Y-120988659D01*
X105970310Y-120985232D01*
X105978449Y-120983464D01*
X106000604Y-120977829D01*
X106024614Y-120970915D01*
X106050962Y-120962538D01*
X106080131Y-120952516D01*
X106112603Y-120940667D01*
X106142861Y-120929102D01*
X107324326Y-120929102D01*
X107325048Y-120965025D01*
X107331079Y-120996888D01*
X107342789Y-121025694D01*
X107360550Y-121052447D01*
X107376547Y-121070254D01*
X107404628Y-121093778D01*
X107435644Y-121111164D01*
X107468877Y-121122191D01*
X107503611Y-121126638D01*
X107539128Y-121124282D01*
X107546991Y-121122826D01*
X107579137Y-121112708D01*
X107609068Y-121096589D01*
X107635895Y-121075353D01*
X107658727Y-121049885D01*
X107669594Y-121032437D01*
X108198033Y-121032437D01*
X108199402Y-121049877D01*
X108206398Y-121064925D01*
X108217768Y-121076823D01*
X108232258Y-121084811D01*
X108248614Y-121088130D01*
X108265581Y-121086021D01*
X108277616Y-121080628D01*
X108287976Y-121071150D01*
X108296255Y-121057854D01*
X108301207Y-121043357D01*
X108301593Y-121030321D01*
X108295201Y-121012688D01*
X108284766Y-120999493D01*
X108271475Y-120990714D01*
X108256520Y-120986324D01*
X108241089Y-120986300D01*
X108226374Y-120990617D01*
X108213563Y-120999252D01*
X108203847Y-121012180D01*
X108198416Y-121029376D01*
X108198033Y-121032437D01*
X107669594Y-121032437D01*
X107676674Y-121021069D01*
X107688846Y-120989791D01*
X107691401Y-120979289D01*
X107694001Y-120957690D01*
X107694038Y-120932873D01*
X107691703Y-120907777D01*
X107688314Y-120890928D01*
X108360083Y-120890928D01*
X108362443Y-120905778D01*
X108367760Y-120917341D01*
X108368799Y-120918616D01*
X108383875Y-120931168D01*
X108400890Y-120937951D01*
X108418436Y-120938682D01*
X108435102Y-120933076D01*
X108436533Y-120932237D01*
X108450849Y-120919899D01*
X108459366Y-120904707D01*
X108462021Y-120887945D01*
X108458751Y-120870895D01*
X108449493Y-120854844D01*
X108440777Y-120846004D01*
X108426561Y-120838311D01*
X108410297Y-120836168D01*
X108393773Y-120839182D01*
X108378776Y-120846962D01*
X108367095Y-120859116D01*
X108364993Y-120862622D01*
X108360868Y-120875605D01*
X108360083Y-120890928D01*
X107688314Y-120890928D01*
X107687190Y-120885340D01*
X107684738Y-120877547D01*
X107669946Y-120846266D01*
X107649932Y-120818655D01*
X107625555Y-120795211D01*
X107597674Y-120776432D01*
X107567148Y-120762817D01*
X107534836Y-120754863D01*
X107501597Y-120753068D01*
X107475558Y-120756269D01*
X107439717Y-120766880D01*
X107407912Y-120782941D01*
X107380570Y-120803961D01*
X107358119Y-120829453D01*
X107340987Y-120858928D01*
X107329600Y-120891898D01*
X107324388Y-120927873D01*
X107324326Y-120929102D01*
X106142861Y-120929102D01*
X106148863Y-120926808D01*
X106189392Y-120910758D01*
G37*
D12*
%TO.C,R2*%
X116300000Y-88292000D02*
X116300000Y-88622000D01*
X109760000Y-90702000D02*
X109760000Y-91032000D01*
X116300000Y-91032000D02*
X116300000Y-90702000D01*
X109760000Y-88622000D02*
X109760000Y-88292000D01*
X109760000Y-88292000D02*
X116300000Y-88292000D01*
X109760000Y-91032000D02*
X116300000Y-91032000D01*
%TO.C,R1*%
X110268000Y-106148000D02*
X110268000Y-105818000D01*
X110268000Y-108228000D02*
X110268000Y-108558000D01*
X110268000Y-105818000D02*
X116808000Y-105818000D01*
X110268000Y-108558000D02*
X116808000Y-108558000D01*
X116808000Y-105818000D02*
X116808000Y-106148000D01*
X116808000Y-108558000D02*
X116808000Y-108228000D01*
%TO.C,C2*%
X120396000Y-96350000D02*
X120396000Y-97040000D01*
X118976000Y-101080000D02*
X121816000Y-101080000D01*
X118976000Y-97040000D02*
X118976000Y-101080000D01*
X120396000Y-101770000D02*
X120396000Y-101080000D01*
X121816000Y-101080000D02*
X121816000Y-97040000D01*
X121816000Y-97040000D02*
X118976000Y-97040000D01*
%TO.C,C4*%
X137994000Y-59032000D02*
X137994000Y-61872000D01*
X142724000Y-60452000D02*
X142034000Y-60452000D01*
X142034000Y-61872000D02*
X142034000Y-59032000D01*
X137994000Y-61872000D02*
X142034000Y-61872000D01*
X137304000Y-60452000D02*
X137994000Y-60452000D01*
X142034000Y-59032000D02*
X137994000Y-59032000D01*
%TO.C,D1*%
X114924000Y-91790000D02*
X111644000Y-91790000D01*
X114228000Y-93630000D02*
X114228000Y-91790000D01*
X114924000Y-93630000D02*
X114924000Y-91790000D01*
X114348000Y-93630000D02*
X114348000Y-91790000D01*
X114468000Y-93630000D02*
X114468000Y-91790000D01*
X110464000Y-92710000D02*
X111644000Y-92710000D01*
X111644000Y-91790000D02*
X111644000Y-93630000D01*
X111644000Y-93630000D02*
X114924000Y-93630000D01*
X116104000Y-92710000D02*
X114924000Y-92710000D01*
%TO.C,R4*%
X116808000Y-111784000D02*
X116808000Y-112114000D01*
X110268000Y-109374000D02*
X110268000Y-109704000D01*
X116808000Y-109374000D02*
X110268000Y-109374000D01*
X116808000Y-109704000D02*
X116808000Y-109374000D01*
X116808000Y-112114000D02*
X110268000Y-112114000D01*
X110268000Y-112114000D02*
X110268000Y-111784000D01*
%TO.C,R3*%
X110268000Y-113260000D02*
X110268000Y-112930000D01*
X116808000Y-115670000D02*
X116808000Y-115340000D01*
X110268000Y-112930000D02*
X116808000Y-112930000D01*
X116808000Y-112930000D02*
X116808000Y-113260000D01*
X110268000Y-115670000D02*
X116808000Y-115670000D01*
X110268000Y-115340000D02*
X110268000Y-115670000D01*
%TO.C,U2*%
X117906000Y-102228000D02*
X117906000Y-100578000D01*
X117906000Y-98578000D02*
X117906000Y-96928000D01*
X117966000Y-94438000D02*
X107566000Y-94438000D01*
X107626000Y-96928000D02*
X107626000Y-102228000D01*
X107566000Y-104718000D02*
X117966000Y-104718000D01*
X117906000Y-96928000D02*
X107626000Y-96928000D01*
X107626000Y-102228000D02*
X117906000Y-102228000D01*
X117966000Y-104718000D02*
X117966000Y-94438000D01*
X107566000Y-94438000D02*
X107566000Y-104718000D01*
X117906000Y-98578000D02*
G75*
G03*
X117906000Y-100578000I0J-1000000D01*
G01*
%TO.C,SW1*%
X112930000Y-84024000D02*
X112930000Y-81224000D01*
X112930000Y-71424000D02*
X112930000Y-73924000D01*
X121430000Y-71424000D02*
X126330000Y-71424000D01*
X117830000Y-84024000D02*
X112930000Y-84024000D01*
X112430000Y-73624000D02*
X112130000Y-73924000D01*
X112130000Y-73924000D02*
X111830000Y-73624000D01*
X126330000Y-81424000D02*
X126330000Y-84024000D01*
X119130000Y-77724000D02*
X120130000Y-77724000D01*
X126330000Y-71424000D02*
X126330000Y-74024000D01*
X117730000Y-71424000D02*
X112930000Y-71424000D01*
X126330000Y-76424000D02*
X126330000Y-79024000D01*
X111830000Y-73624000D02*
X112430000Y-73624000D01*
X126330000Y-84024000D02*
X121430000Y-84024000D01*
X119630000Y-77224000D02*
X119630000Y-78224000D01*
X122630000Y-77724000D02*
G75*
G03*
X122630000Y-77724000I-3000000J0D01*
G01*
%TO.C,C3*%
X142920300Y-118364000D02*
G75*
G03*
X142920300Y-118364000I-5120000J0D01*
G01*
X141401300Y-114763000D02*
X141401300Y-117123000D01*
X138681300Y-113360000D02*
X138681300Y-123368000D01*
X140761300Y-119605000D02*
X140761300Y-122502000D01*
X141801300Y-115208000D02*
X141801300Y-121520000D01*
X138841300Y-113390000D02*
X138841300Y-123338000D01*
X140201300Y-119605000D02*
X140201300Y-122847000D01*
X139161300Y-113467000D02*
X139161300Y-117123000D01*
X137880300Y-113284000D02*
X137880300Y-123444000D01*
X139361300Y-119605000D02*
X139361300Y-123201000D01*
X140521300Y-119605000D02*
X140521300Y-122662000D01*
X139881300Y-119605000D02*
X139881300Y-123003000D01*
X139281300Y-119605000D02*
X139281300Y-123226000D01*
X139801300Y-119605000D02*
X139801300Y-123038000D01*
X138200300Y-113299000D02*
X138200300Y-123429000D01*
X139761300Y-113674000D02*
X139761300Y-117123000D01*
X138521300Y-113334000D02*
X138521300Y-123394000D01*
X139041300Y-113436000D02*
X139041300Y-123292000D01*
X140201300Y-113881000D02*
X140201300Y-117123000D01*
X142481300Y-116327000D02*
X142481300Y-120401000D01*
X142161300Y-115719000D02*
X142161300Y-121009000D01*
X138641300Y-113353000D02*
X138641300Y-123375000D01*
X139481300Y-119605000D02*
X139481300Y-123161000D01*
X138440300Y-113324000D02*
X138440300Y-123404000D01*
X139481300Y-113567000D02*
X139481300Y-117123000D01*
X139081300Y-119605000D02*
X139081300Y-123282000D01*
X139721300Y-113657000D02*
X139721300Y-117123000D01*
X140881300Y-119605000D02*
X140881300Y-122414000D01*
X141041300Y-114439000D02*
X141041300Y-117123000D01*
X137800300Y-113284000D02*
X137800300Y-123444000D01*
X140961300Y-119605000D02*
X140961300Y-122353000D01*
X142721300Y-116986000D02*
X142721300Y-119742000D01*
X140921300Y-119605000D02*
X140921300Y-122384000D01*
X140441300Y-114017000D02*
X140441300Y-117123000D01*
X140321300Y-119605000D02*
X140321300Y-122781000D01*
X138040300Y-113289000D02*
X138040300Y-123439000D01*
X140521300Y-114066000D02*
X140521300Y-117123000D01*
X137840300Y-113284000D02*
X137840300Y-123444000D01*
X140641300Y-114143000D02*
X140641300Y-117123000D01*
X142441300Y-116239000D02*
X142441300Y-120489000D01*
X139841300Y-119605000D02*
X139841300Y-123021000D01*
X141881300Y-115310000D02*
X141881300Y-121418000D01*
X139841300Y-113707000D02*
X139841300Y-117123000D01*
X139361300Y-113527000D02*
X139361300Y-117123000D01*
X141401300Y-119605000D02*
X141401300Y-121965000D01*
X139441300Y-119605000D02*
X139441300Y-123175000D01*
X137920300Y-113285000D02*
X137920300Y-123443000D01*
X140161300Y-113860000D02*
X140161300Y-117123000D01*
X141481300Y-114844000D02*
X141481300Y-117123000D01*
X139881300Y-113725000D02*
X139881300Y-117123000D01*
X140041300Y-119605000D02*
X140041300Y-122928000D01*
X138801300Y-113382000D02*
X138801300Y-123346000D01*
X142401300Y-116155000D02*
X142401300Y-120573000D01*
X140081300Y-113819000D02*
X140081300Y-117123000D01*
X139121300Y-119605000D02*
X139121300Y-123271000D01*
X139281300Y-113502000D02*
X139281300Y-117123000D01*
X141561300Y-114928000D02*
X141561300Y-121800000D01*
X138240300Y-113302000D02*
X138240300Y-123426000D01*
X142121300Y-115655000D02*
X142121300Y-121073000D01*
X141641300Y-115017000D02*
X141641300Y-121711000D01*
X142641300Y-116734000D02*
X142641300Y-119994000D01*
X140081300Y-119605000D02*
X140081300Y-122909000D01*
X141521300Y-114886000D02*
X141521300Y-117123000D01*
X139961300Y-119605000D02*
X139961300Y-122967000D01*
X139161300Y-119605000D02*
X139161300Y-123261000D01*
X139521300Y-119605000D02*
X139521300Y-123147000D01*
X132320654Y-115489000D02*
X133320654Y-115489000D01*
X139321300Y-113514000D02*
X139321300Y-117123000D01*
X140241300Y-113902000D02*
X140241300Y-117123000D01*
X141481300Y-119605000D02*
X141481300Y-121884000D01*
X139241300Y-113490000D02*
X139241300Y-117123000D01*
X140401300Y-113993000D02*
X140401300Y-117123000D01*
X140161300Y-119605000D02*
X140161300Y-122868000D01*
X138961300Y-113417000D02*
X138961300Y-123311000D01*
X140441300Y-119605000D02*
X140441300Y-122711000D01*
X140001300Y-113780000D02*
X140001300Y-117123000D01*
X140681300Y-114170000D02*
X140681300Y-117123000D01*
X139441300Y-113553000D02*
X139441300Y-117123000D01*
X140881300Y-114314000D02*
X140881300Y-117123000D01*
X140561300Y-114091000D02*
X140561300Y-117123000D01*
X141281300Y-114648000D02*
X141281300Y-117123000D01*
X141001300Y-119605000D02*
X141001300Y-122321000D01*
X138921300Y-113408000D02*
X138921300Y-123320000D01*
X141321300Y-119605000D02*
X141321300Y-122043000D01*
X141361300Y-119605000D02*
X141361300Y-122004000D01*
X141841300Y-115258000D02*
X141841300Y-121470000D01*
X138881300Y-113399000D02*
X138881300Y-123329000D01*
X138000300Y-113287000D02*
X138000300Y-123441000D01*
X142601300Y-116622000D02*
X142601300Y-120106000D01*
X140121300Y-119605000D02*
X140121300Y-122889000D01*
X138761300Y-113374000D02*
X138761300Y-123354000D01*
X138080300Y-113291000D02*
X138080300Y-123437000D01*
X138360300Y-113314000D02*
X138360300Y-123414000D01*
X140841300Y-114284000D02*
X140841300Y-117123000D01*
X142561300Y-116518000D02*
X142561300Y-120210000D01*
X141361300Y-114724000D02*
X141361300Y-117123000D01*
X138400300Y-113319000D02*
X138400300Y-123409000D01*
X139081300Y-113446000D02*
X139081300Y-117123000D01*
X141761300Y-115158000D02*
X141761300Y-121570000D01*
X139801300Y-113690000D02*
X139801300Y-117123000D01*
X140321300Y-113947000D02*
X140321300Y-117123000D01*
X141161300Y-119605000D02*
X141161300Y-122188000D01*
X139401300Y-119605000D02*
X139401300Y-123188000D01*
X138561300Y-113340000D02*
X138561300Y-123388000D01*
X141001300Y-114407000D02*
X141001300Y-117123000D01*
X142041300Y-115534000D02*
X142041300Y-121194000D01*
X139921300Y-119605000D02*
X139921300Y-122985000D01*
X142801300Y-117302000D02*
X142801300Y-119426000D01*
X141201300Y-119605000D02*
X141201300Y-122153000D01*
X141281300Y-119605000D02*
X141281300Y-122080000D01*
X140561300Y-119605000D02*
X140561300Y-122637000D01*
X141241300Y-119605000D02*
X141241300Y-122117000D01*
X141521300Y-119605000D02*
X141521300Y-121842000D01*
X139561300Y-113596000D02*
X139561300Y-117123000D01*
X141681300Y-115063000D02*
X141681300Y-121665000D01*
X140641300Y-119605000D02*
X140641300Y-122585000D01*
X140481300Y-119605000D02*
X140481300Y-122687000D01*
X137960300Y-113286000D02*
X137960300Y-123442000D01*
X140361300Y-113969000D02*
X140361300Y-117123000D01*
X140241300Y-119605000D02*
X140241300Y-122826000D01*
X140801300Y-114254000D02*
X140801300Y-117123000D01*
X132820654Y-114989000D02*
X132820654Y-115989000D01*
X141601300Y-114972000D02*
X141601300Y-121756000D01*
X140481300Y-114041000D02*
X140481300Y-117123000D01*
X140281300Y-113924000D02*
X140281300Y-117123000D01*
X142241300Y-115854000D02*
X142241300Y-120874000D01*
X139321300Y-119605000D02*
X139321300Y-123214000D01*
X142681300Y-116854000D02*
X142681300Y-119874000D01*
X142281300Y-115925000D02*
X142281300Y-120803000D01*
X142841300Y-117502000D02*
X142841300Y-119226000D01*
X140801300Y-119605000D02*
X140801300Y-122474000D01*
X142201300Y-115785000D02*
X142201300Y-120943000D01*
X139961300Y-113761000D02*
X139961300Y-117123000D01*
X140041300Y-113800000D02*
X140041300Y-117123000D01*
X142081300Y-115594000D02*
X142081300Y-121134000D01*
X139601300Y-113610000D02*
X139601300Y-117123000D01*
X141121300Y-119605000D02*
X141121300Y-122222000D01*
X142761300Y-117134000D02*
X142761300Y-119594000D01*
X142001300Y-115475000D02*
X142001300Y-121253000D01*
X141441300Y-119605000D02*
X141441300Y-121925000D01*
X139601300Y-119605000D02*
X139601300Y-123118000D01*
X138120300Y-113294000D02*
X138120300Y-123434000D01*
X139721300Y-119605000D02*
X139721300Y-123071000D01*
X140281300Y-119605000D02*
X140281300Y-122804000D01*
X141161300Y-114540000D02*
X141161300Y-117123000D01*
X138160300Y-113296000D02*
X138160300Y-123432000D01*
X142321300Y-115999000D02*
X142321300Y-120729000D01*
X139681300Y-113641000D02*
X139681300Y-117123000D01*
X140361300Y-119605000D02*
X140361300Y-122759000D01*
X140961300Y-114375000D02*
X140961300Y-117123000D01*
X142361300Y-116075000D02*
X142361300Y-120653000D01*
X139641300Y-113626000D02*
X139641300Y-117123000D01*
X140921300Y-114344000D02*
X140921300Y-117123000D01*
X141041300Y-119605000D02*
X141041300Y-122289000D01*
X140761300Y-114226000D02*
X140761300Y-117123000D01*
X139521300Y-113581000D02*
X139521300Y-117123000D01*
X138320300Y-113310000D02*
X138320300Y-123418000D01*
X139201300Y-113479000D02*
X139201300Y-117123000D01*
X141081300Y-114472000D02*
X141081300Y-117123000D01*
X139641300Y-119605000D02*
X139641300Y-123102000D01*
X138480300Y-113329000D02*
X138480300Y-123399000D01*
X138601300Y-113346000D02*
X138601300Y-123382000D01*
X139001300Y-113426000D02*
X139001300Y-123302000D01*
X139561300Y-119605000D02*
X139561300Y-123132000D01*
X141321300Y-114685000D02*
X141321300Y-117123000D01*
X141921300Y-115364000D02*
X141921300Y-121364000D01*
X139761300Y-119605000D02*
X139761300Y-123054000D01*
X141241300Y-114611000D02*
X141241300Y-117123000D01*
X138721300Y-113367000D02*
X138721300Y-123361000D01*
X139401300Y-113540000D02*
X139401300Y-117123000D01*
X142521300Y-116420000D02*
X142521300Y-120308000D01*
X140721300Y-114198000D02*
X140721300Y-117123000D01*
X141081300Y-119605000D02*
X141081300Y-122256000D01*
X141961300Y-115419000D02*
X141961300Y-121309000D01*
X139121300Y-113457000D02*
X139121300Y-117123000D01*
X139921300Y-113743000D02*
X139921300Y-117123000D01*
X140601300Y-114117000D02*
X140601300Y-117123000D01*
X140681300Y-119605000D02*
X140681300Y-122558000D01*
X140841300Y-119605000D02*
X140841300Y-122444000D01*
X139241300Y-119605000D02*
X139241300Y-123238000D01*
X140121300Y-113839000D02*
X140121300Y-117123000D01*
X141201300Y-114575000D02*
X141201300Y-117123000D01*
X140601300Y-119605000D02*
X140601300Y-122611000D01*
X141121300Y-114506000D02*
X141121300Y-117123000D01*
X140401300Y-119605000D02*
X140401300Y-122735000D01*
X138280300Y-113306000D02*
X138280300Y-123422000D01*
X141721300Y-115110000D02*
X141721300Y-121618000D01*
X140001300Y-119605000D02*
X140001300Y-122948000D01*
X139681300Y-119605000D02*
X139681300Y-123087000D01*
X140721300Y-119605000D02*
X140721300Y-122530000D01*
X142881300Y-117765000D02*
X142881300Y-118963000D01*
X139201300Y-119605000D02*
X139201300Y-123249000D01*
X141441300Y-114803000D02*
X141441300Y-117123000D01*
%TO.C,J9*%
X129000000Y-118171000D02*
X130800000Y-118171000D01*
X130800000Y-117421000D02*
X129000000Y-117421000D01*
X127500000Y-118171000D02*
X127500000Y-117421000D01*
X125000000Y-117421000D02*
X123200000Y-117421000D01*
X130800000Y-119671000D02*
X130050000Y-119671000D01*
X123190000Y-123381000D02*
X130810000Y-123381000D01*
X123950000Y-119671000D02*
X123950000Y-122621000D01*
X130800000Y-118171000D02*
X130800000Y-117421000D01*
X130810000Y-117411000D02*
X123190000Y-117411000D01*
X126500000Y-117421000D02*
X126500000Y-118171000D01*
X124150000Y-117121000D02*
X122900000Y-117121000D01*
X125000000Y-118171000D02*
X125000000Y-117421000D01*
X123200000Y-117421000D02*
X123200000Y-118171000D01*
X123950000Y-122621000D02*
X127000000Y-122621000D01*
X129000000Y-117421000D02*
X129000000Y-118171000D01*
X123200000Y-119671000D02*
X123950000Y-119671000D01*
X130050000Y-119671000D02*
X130050000Y-122621000D01*
X127500000Y-117421000D02*
X126500000Y-117421000D01*
X130050000Y-122621000D02*
X127000000Y-122621000D01*
X122900000Y-117121000D02*
X122900000Y-118371000D01*
X130810000Y-123381000D02*
X130810000Y-117411000D01*
X123190000Y-117411000D02*
X123190000Y-123381000D01*
X126500000Y-118171000D02*
X127500000Y-118171000D01*
X123200000Y-118171000D02*
X125000000Y-118171000D01*
%TO.C,C1*%
X121754400Y-108688000D02*
X121754400Y-106244000D01*
X121954400Y-108688000D02*
X121954400Y-106160000D01*
X120034400Y-111677000D02*
X120034400Y-107779000D01*
X121394400Y-108688000D02*
X121394400Y-106431000D01*
X119594400Y-110605000D02*
X119594400Y-108851000D01*
X121514400Y-113093000D02*
X121514400Y-110768000D01*
X122955400Y-108688000D02*
X122955400Y-105918000D01*
X122034400Y-108688000D02*
X122034400Y-106130000D01*
X122675400Y-108688000D02*
X122675400Y-105958000D01*
X121634400Y-108688000D02*
X121634400Y-106301000D01*
X119714400Y-111003000D02*
X119714400Y-108453000D01*
X122755400Y-108688000D02*
X122755400Y-105944000D01*
X122875400Y-108688000D02*
X122875400Y-105927000D01*
X120474400Y-112274000D02*
X120474400Y-107182000D01*
X121314400Y-112977000D02*
X121314400Y-110768000D01*
X122194400Y-113381000D02*
X122194400Y-110768000D01*
X120154400Y-111865000D02*
X120154400Y-107591000D01*
X122755400Y-113512000D02*
X122755400Y-110768000D01*
X122795400Y-113518000D02*
X122795400Y-110768000D01*
X122154400Y-108688000D02*
X122154400Y-106088000D01*
X122234400Y-113393000D02*
X122234400Y-110768000D01*
X121154400Y-112872000D02*
X121154400Y-110768000D01*
X122795400Y-108688000D02*
X122795400Y-105938000D01*
X121994400Y-113312000D02*
X121994400Y-110768000D01*
X121434400Y-113049000D02*
X121434400Y-110768000D01*
X120354400Y-112133000D02*
X120354400Y-107323000D01*
X122314400Y-108688000D02*
X122314400Y-106040000D01*
X122034400Y-113326000D02*
X122034400Y-110768000D01*
X121834400Y-113248000D02*
X121834400Y-110768000D01*
X120194400Y-111923000D02*
X120194400Y-107533000D01*
X121874400Y-113264000D02*
X121874400Y-110768000D01*
X120674400Y-112480000D02*
X120674400Y-106976000D01*
X121834400Y-108688000D02*
X121834400Y-106208000D01*
X123075400Y-113548000D02*
X123075400Y-110768000D01*
X122274400Y-113405000D02*
X122274400Y-110768000D01*
X120434400Y-112228000D02*
X120434400Y-107228000D01*
X122394400Y-113438000D02*
X122394400Y-110768000D01*
X119514400Y-110169000D02*
X119514400Y-109287000D01*
X122634400Y-108688000D02*
X122634400Y-105965000D01*
X119554400Y-110421000D02*
X119554400Y-109035000D01*
X122434400Y-108688000D02*
X122434400Y-106008000D01*
X121354400Y-113002000D02*
X121354400Y-110768000D01*
X121114400Y-108688000D02*
X121114400Y-106612000D01*
X120794400Y-112591000D02*
X120794400Y-106865000D01*
X121914400Y-113281000D02*
X121914400Y-110768000D01*
X122995400Y-108688000D02*
X122995400Y-105914000D01*
X122835400Y-113523000D02*
X122835400Y-110768000D01*
X120634400Y-112441000D02*
X120634400Y-107015000D01*
X121674400Y-108688000D02*
X121674400Y-106281000D01*
X123035400Y-108688000D02*
X123035400Y-105911000D01*
X122514400Y-108688000D02*
X122514400Y-105990000D01*
X123275400Y-113558000D02*
X123275400Y-105898000D01*
X121514400Y-108688000D02*
X121514400Y-106363000D01*
X121954400Y-113296000D02*
X121954400Y-110768000D01*
X121594400Y-108688000D02*
X121594400Y-106321000D01*
X122675400Y-113498000D02*
X122675400Y-110768000D01*
X123115400Y-108688000D02*
X123115400Y-105905000D01*
X119674400Y-110886000D02*
X119674400Y-108570000D01*
X121594400Y-113135000D02*
X121594400Y-110768000D01*
X122234400Y-108688000D02*
X122234400Y-106063000D01*
X122354400Y-113427000D02*
X122354400Y-110768000D01*
X122474400Y-113457000D02*
X122474400Y-110768000D01*
X121234400Y-108688000D02*
X121234400Y-106530000D01*
X122154400Y-113368000D02*
X122154400Y-110768000D01*
X122114400Y-108688000D02*
X122114400Y-106102000D01*
X121114400Y-112844000D02*
X121114400Y-110768000D01*
X123155400Y-113553000D02*
X123155400Y-105903000D01*
X121794400Y-108688000D02*
X121794400Y-106226000D01*
X122835400Y-108688000D02*
X122835400Y-105933000D01*
X119834400Y-111297000D02*
X119834400Y-108159000D01*
X120314400Y-112083000D02*
X120314400Y-107373000D01*
X121794400Y-113230000D02*
X121794400Y-110768000D01*
X123075400Y-108688000D02*
X123075400Y-105908000D01*
X121554400Y-113114000D02*
X121554400Y-110768000D01*
X120954400Y-112724000D02*
X120954400Y-106732000D01*
X120114400Y-111805000D02*
X120114400Y-107651000D01*
X121994400Y-108688000D02*
X121994400Y-106144000D01*
X121914400Y-108688000D02*
X121914400Y-106175000D01*
X121554400Y-108688000D02*
X121554400Y-106342000D01*
X127497611Y-111903000D02*
X126747611Y-111903000D01*
X122554400Y-113475000D02*
X122554400Y-110768000D01*
X122274400Y-108688000D02*
X122274400Y-106051000D01*
X121474400Y-108688000D02*
X121474400Y-106385000D01*
X121274400Y-108688000D02*
X121274400Y-106504000D01*
X123355400Y-113558000D02*
X123355400Y-105898000D01*
X119994400Y-111609000D02*
X119994400Y-107847000D01*
X119914400Y-111461000D02*
X119914400Y-107995000D01*
X122955400Y-113538000D02*
X122955400Y-110768000D01*
X121034400Y-112786000D02*
X121034400Y-106670000D01*
X122474400Y-108688000D02*
X122474400Y-105999000D01*
X119634400Y-110756000D02*
X119634400Y-108700000D01*
X120834400Y-112626000D02*
X120834400Y-106830000D01*
X120714400Y-112518000D02*
X120714400Y-106938000D01*
X121754400Y-113212000D02*
X121754400Y-110768000D01*
X121434400Y-108688000D02*
X121434400Y-106407000D01*
X121074400Y-112816000D02*
X121074400Y-110768000D01*
X123315400Y-113558000D02*
X123315400Y-105898000D01*
X121274400Y-112952000D02*
X121274400Y-110768000D01*
X121314400Y-108688000D02*
X121314400Y-106479000D01*
X122514400Y-113466000D02*
X122514400Y-110768000D01*
X123035400Y-113545000D02*
X123035400Y-110768000D01*
X122875400Y-113529000D02*
X122875400Y-110768000D01*
X121634400Y-113155000D02*
X121634400Y-110768000D01*
X119754400Y-111109000D02*
X119754400Y-108347000D01*
X122915400Y-113533000D02*
X122915400Y-110768000D01*
X120554400Y-112360000D02*
X120554400Y-107096000D01*
X120914400Y-112692000D02*
X120914400Y-106764000D01*
X121354400Y-108688000D02*
X121354400Y-106454000D01*
X121714400Y-113194000D02*
X121714400Y-110768000D01*
X122634400Y-113491000D02*
X122634400Y-110768000D01*
X121154400Y-108688000D02*
X121154400Y-106584000D01*
X120394400Y-112182000D02*
X120394400Y-107274000D01*
X122995400Y-113542000D02*
X122995400Y-110768000D01*
X119874400Y-111382000D02*
X119874400Y-108074000D01*
X121874400Y-108688000D02*
X121874400Y-106192000D01*
X122715400Y-108688000D02*
X122715400Y-105951000D01*
X121474400Y-113071000D02*
X121474400Y-110768000D01*
X120274400Y-112032000D02*
X120274400Y-107424000D01*
X120754400Y-112555000D02*
X120754400Y-106901000D01*
X121674400Y-113175000D02*
X121674400Y-110768000D01*
X122915400Y-108688000D02*
X122915400Y-105923000D01*
X120594400Y-112401000D02*
X120594400Y-107055000D01*
X121194400Y-108688000D02*
X121194400Y-106556000D01*
X120874400Y-112659000D02*
X120874400Y-106797000D01*
X122434400Y-113448000D02*
X122434400Y-110768000D01*
X121194400Y-112900000D02*
X121194400Y-110768000D01*
X121394400Y-113025000D02*
X121394400Y-110768000D01*
X120514400Y-112317000D02*
X120514400Y-107139000D01*
X122074400Y-113341000D02*
X122074400Y-110768000D01*
X122354400Y-108688000D02*
X122354400Y-106029000D01*
X121234400Y-112926000D02*
X121234400Y-110768000D01*
X122314400Y-113416000D02*
X122314400Y-110768000D01*
X122554400Y-108688000D02*
X122554400Y-105981000D01*
X122594400Y-108688000D02*
X122594400Y-105973000D01*
X119794400Y-111206000D02*
X119794400Y-108250000D01*
X120994400Y-112756000D02*
X120994400Y-106700000D01*
X123115400Y-113551000D02*
X123115400Y-110768000D01*
X121714400Y-108688000D02*
X121714400Y-106262000D01*
X123235400Y-113557000D02*
X123235400Y-105899000D01*
X122594400Y-113483000D02*
X122594400Y-110768000D01*
X119954400Y-111537000D02*
X119954400Y-107919000D01*
X122074400Y-108688000D02*
X122074400Y-106115000D01*
X120234400Y-111978000D02*
X120234400Y-107478000D01*
X122715400Y-113505000D02*
X122715400Y-110768000D01*
X122394400Y-108688000D02*
X122394400Y-106018000D01*
X123195400Y-113555000D02*
X123195400Y-105901000D01*
X122114400Y-113354000D02*
X122114400Y-110768000D01*
X127122611Y-112278000D02*
X127122611Y-111528000D01*
X122194400Y-108688000D02*
X122194400Y-106075000D01*
X120074400Y-111742000D02*
X120074400Y-107714000D01*
X121074400Y-108688000D02*
X121074400Y-106640000D01*
X127225400Y-109728000D02*
G75*
G03*
X127225400Y-109728000I-3870000J0D01*
G01*
%TO.C,J5*%
X148854000Y-77194000D02*
X148854000Y-73174000D01*
X148854000Y-73174000D02*
X136134000Y-73174000D01*
X149154000Y-75374000D02*
X149154000Y-72874000D01*
X137134000Y-74674000D02*
X137134000Y-73174000D01*
X136634000Y-76694000D02*
X136634000Y-75484000D01*
X136134000Y-77194000D02*
X148854000Y-77194000D01*
X136634000Y-75484000D02*
X136134000Y-75484000D01*
X148854000Y-75484000D02*
X148354000Y-75484000D01*
X148354000Y-75484000D02*
X148354000Y-76694000D01*
X136134000Y-74674000D02*
X137134000Y-74674000D01*
X148354000Y-76694000D02*
X136634000Y-76694000D01*
X147854000Y-74674000D02*
X147854000Y-73174000D01*
X149154000Y-72874000D02*
X146654000Y-72874000D01*
X136134000Y-73174000D02*
X136134000Y-77194000D01*
X148854000Y-74674000D02*
X147854000Y-74674000D01*
%TO.C,U3*%
X119517000Y-55880000D02*
X119517000Y-53930000D01*
X119517000Y-55880000D02*
X119517000Y-57830000D01*
X128387000Y-55880000D02*
X128387000Y-57830000D01*
X128387000Y-55880000D02*
X128387000Y-52430000D01*
%TO.C,U1*%
X103706000Y-65364000D02*
X104106000Y-65364000D01*
X124006000Y-44364000D02*
X124406000Y-44364000D01*
X113806000Y-44364000D02*
X114206000Y-44364000D01*
X98706000Y-44364000D02*
X99006000Y-44364000D01*
X101106000Y-65364000D02*
X101506000Y-65364000D01*
X101373000Y-62357000D02*
X98706000Y-62357000D01*
X113806000Y-65364000D02*
X114206000Y-65364000D01*
X108806000Y-65364000D02*
X109206000Y-65364000D01*
X144306000Y-65364000D02*
X144706000Y-65364000D01*
X106206000Y-65364000D02*
X106606000Y-65364000D01*
X139306000Y-65364000D02*
X139706000Y-65364000D01*
X131606000Y-65364000D02*
X132006000Y-65364000D01*
X141806000Y-44364000D02*
X142206000Y-44364000D01*
X118906000Y-44364000D02*
X119306000Y-44364000D01*
X136706000Y-65364000D02*
X137106000Y-65364000D01*
X131606000Y-44364000D02*
X132006000Y-44364000D01*
X146906000Y-65364000D02*
X147306000Y-65364000D01*
X121506000Y-65364000D02*
X121906000Y-65364000D01*
X126506000Y-65364000D02*
X126906000Y-65364000D01*
X141806000Y-65364000D02*
X142206000Y-65364000D01*
X111306000Y-44364000D02*
X111706000Y-44364000D01*
X111306000Y-65364000D02*
X111706000Y-65364000D01*
X98706000Y-65364000D02*
X99006000Y-65364000D01*
X106206000Y-44364000D02*
X106606000Y-44364000D01*
X101106000Y-44364000D02*
X101506000Y-44364000D01*
X98706000Y-65364000D02*
X98706000Y-44364000D01*
X126506000Y-44364000D02*
X126906000Y-44364000D01*
X149706000Y-44364000D02*
X149706000Y-51164000D01*
X139306000Y-44364000D02*
X139706000Y-44364000D01*
X129106000Y-44364000D02*
X129506000Y-44364000D01*
X118906000Y-65364000D02*
X119306000Y-65364000D01*
X101373000Y-65364000D02*
X101373000Y-62357000D01*
X144306000Y-44364000D02*
X144706000Y-44364000D01*
X149706000Y-58564000D02*
X149706000Y-65364000D01*
X146906000Y-44364000D02*
X147306000Y-44364000D01*
X103706000Y-44364000D02*
X104106000Y-44364000D01*
X149706000Y-53764000D02*
X149706000Y-53364000D01*
X116406000Y-65364000D02*
X116806000Y-65364000D01*
X134206000Y-44364000D02*
X134606000Y-44364000D01*
X134206000Y-65364000D02*
X134606000Y-65364000D01*
X108806000Y-44364000D02*
X109206000Y-44364000D01*
X149706000Y-56364000D02*
X149706000Y-55964000D01*
X129106000Y-65364000D02*
X129506000Y-65364000D01*
X116406000Y-44364000D02*
X116806000Y-44364000D01*
X124006000Y-65364000D02*
X124406000Y-65364000D01*
X121506000Y-44364000D02*
X121906000Y-44364000D01*
X136706000Y-44364000D02*
X137106000Y-44364000D01*
%TD*%
M02*
