%TF.GenerationSoftware,KiCad,Pcbnew,6.0.11+dfsg-1~bpo11+1*%
%TF.CreationDate,2025-04-08T21:51:37+02:00*%
%TF.ProjectId,v1,76312e6b-6963-4616-945f-706362585858,rev?*%
%TF.SameCoordinates,Original*%
%TF.FileFunction,Drillmap*%
%TF.FilePolarity,Positive*%
%FSLAX45Y45*%
G04 Gerber Fmt 4.5, Leading zero omitted, Abs format (unit mm)*
G04 Created by KiCad (PCBNEW 6.0.11+dfsg-1~bpo11+1) date 2025-04-08 21:51:37*
%MOMM*%
%LPD*%
G01*
G04 APERTURE LIST*
%ADD10C,0.100000*%
%ADD11C,0.200000*%
%ADD12C,0.120000*%
%ADD13C,0.320000*%
G04 APERTURE END LIST*
D10*
X8991600Y-3810000D02*
X16713200Y-3810000D01*
X16713200Y-3810000D02*
X16713200Y-12954000D01*
X16713200Y-12954000D02*
X8991600Y-12954000D01*
X8991600Y-12954000D02*
X8991600Y-3810000D01*
D11*
D12*
X9462000Y-11674800D02*
X9582000Y-11794800D01*
X9582000Y-11674800D02*
X9462000Y-11794800D01*
X9473300Y-8925850D02*
X9593300Y-9045850D01*
X9593300Y-8925850D02*
X9473300Y-9045850D01*
X10062000Y-11674800D02*
X10182000Y-11794800D01*
X10182000Y-11674800D02*
X10062000Y-11794800D01*
X10073300Y-8925850D02*
X10193300Y-9045850D01*
X10193300Y-8925850D02*
X10073300Y-9045850D01*
D13*
X9558000Y-4216400D02*
G75*
G03*
X9558000Y-4216400I-160000J0D01*
G01*
X9558000Y-12547600D02*
G75*
G03*
X9558000Y-12547600I-160000J0D01*
G01*
X13368000Y-7670800D02*
G75*
G03*
X13368000Y-7670800I-160000J0D01*
G01*
X13368000Y-9906000D02*
G75*
G03*
X13368000Y-9906000I-160000J0D01*
G01*
X15450800Y-7670800D02*
G75*
G03*
X15450800Y-7670800I-160000J0D01*
G01*
X15450800Y-9956800D02*
G75*
G03*
X15450800Y-9956800I-160000J0D01*
G01*
X16466800Y-4216400D02*
G75*
G03*
X16466800Y-4216400I-160000J0D01*
G01*
X16466800Y-12547600D02*
G75*
G03*
X16466800Y-12547600I-160000J0D01*
G01*
D11*
X9244219Y-13269476D02*
X9244219Y-13069476D01*
X9291838Y-13069476D01*
X9320410Y-13079000D01*
X9339457Y-13098048D01*
X9348981Y-13117095D01*
X9358505Y-13155190D01*
X9358505Y-13183762D01*
X9348981Y-13221857D01*
X9339457Y-13240905D01*
X9320410Y-13259952D01*
X9291838Y-13269476D01*
X9244219Y-13269476D01*
X9444219Y-13269476D02*
X9444219Y-13136143D01*
X9444219Y-13174238D02*
X9453743Y-13155190D01*
X9463267Y-13145667D01*
X9482314Y-13136143D01*
X9501362Y-13136143D01*
X9568029Y-13269476D02*
X9568029Y-13136143D01*
X9568029Y-13069476D02*
X9558505Y-13079000D01*
X9568029Y-13088524D01*
X9577552Y-13079000D01*
X9568029Y-13069476D01*
X9568029Y-13088524D01*
X9691838Y-13269476D02*
X9672790Y-13259952D01*
X9663267Y-13240905D01*
X9663267Y-13069476D01*
X9796600Y-13269476D02*
X9777552Y-13259952D01*
X9768029Y-13240905D01*
X9768029Y-13069476D01*
X10025171Y-13269476D02*
X10025171Y-13069476D01*
X10091838Y-13212333D01*
X10158505Y-13069476D01*
X10158505Y-13269476D01*
X10339457Y-13269476D02*
X10339457Y-13164714D01*
X10329933Y-13145667D01*
X10310886Y-13136143D01*
X10272790Y-13136143D01*
X10253743Y-13145667D01*
X10339457Y-13259952D02*
X10320410Y-13269476D01*
X10272790Y-13269476D01*
X10253743Y-13259952D01*
X10244219Y-13240905D01*
X10244219Y-13221857D01*
X10253743Y-13202809D01*
X10272790Y-13193286D01*
X10320410Y-13193286D01*
X10339457Y-13183762D01*
X10434695Y-13136143D02*
X10434695Y-13336143D01*
X10434695Y-13145667D02*
X10453743Y-13136143D01*
X10491838Y-13136143D01*
X10510886Y-13145667D01*
X10520410Y-13155190D01*
X10529933Y-13174238D01*
X10529933Y-13231381D01*
X10520410Y-13250428D01*
X10510886Y-13259952D01*
X10491838Y-13269476D01*
X10453743Y-13269476D01*
X10434695Y-13259952D01*
X10615648Y-13250428D02*
X10625171Y-13259952D01*
X10615648Y-13269476D01*
X10606124Y-13259952D01*
X10615648Y-13250428D01*
X10615648Y-13269476D01*
X10615648Y-13145667D02*
X10625171Y-13155190D01*
X10615648Y-13164714D01*
X10606124Y-13155190D01*
X10615648Y-13145667D01*
X10615648Y-13164714D01*
D12*
X8866600Y-13539000D02*
X8986600Y-13659000D01*
X8986600Y-13539000D02*
X8866600Y-13659000D01*
D11*
X9348981Y-13689476D02*
X9234695Y-13689476D01*
X9291838Y-13689476D02*
X9291838Y-13489476D01*
X9272790Y-13518048D01*
X9253743Y-13537095D01*
X9234695Y-13546619D01*
X9434695Y-13670428D02*
X9444219Y-13679952D01*
X9434695Y-13689476D01*
X9425171Y-13679952D01*
X9434695Y-13670428D01*
X9434695Y-13689476D01*
X9520410Y-13508524D02*
X9529933Y-13499000D01*
X9548981Y-13489476D01*
X9596600Y-13489476D01*
X9615648Y-13499000D01*
X9625171Y-13508524D01*
X9634695Y-13527571D01*
X9634695Y-13546619D01*
X9625171Y-13575190D01*
X9510886Y-13689476D01*
X9634695Y-13689476D01*
X9758505Y-13489476D02*
X9777552Y-13489476D01*
X9796600Y-13499000D01*
X9806124Y-13508524D01*
X9815648Y-13527571D01*
X9825171Y-13565667D01*
X9825171Y-13613286D01*
X9815648Y-13651381D01*
X9806124Y-13670428D01*
X9796600Y-13679952D01*
X9777552Y-13689476D01*
X9758505Y-13689476D01*
X9739457Y-13679952D01*
X9729933Y-13670428D01*
X9720410Y-13651381D01*
X9710886Y-13613286D01*
X9710886Y-13565667D01*
X9720410Y-13527571D01*
X9729933Y-13508524D01*
X9739457Y-13499000D01*
X9758505Y-13489476D01*
X9948981Y-13489476D02*
X9968029Y-13489476D01*
X9987076Y-13499000D01*
X9996600Y-13508524D01*
X10006124Y-13527571D01*
X10015648Y-13565667D01*
X10015648Y-13613286D01*
X10006124Y-13651381D01*
X9996600Y-13670428D01*
X9987076Y-13679952D01*
X9968029Y-13689476D01*
X9948981Y-13689476D01*
X9929933Y-13679952D01*
X9920410Y-13670428D01*
X9910886Y-13651381D01*
X9901362Y-13613286D01*
X9901362Y-13565667D01*
X9910886Y-13527571D01*
X9920410Y-13508524D01*
X9929933Y-13499000D01*
X9948981Y-13489476D01*
X10101362Y-13689476D02*
X10101362Y-13556143D01*
X10101362Y-13575190D02*
X10110886Y-13565667D01*
X10129933Y-13556143D01*
X10158505Y-13556143D01*
X10177552Y-13565667D01*
X10187076Y-13584714D01*
X10187076Y-13689476D01*
X10187076Y-13584714D02*
X10196600Y-13565667D01*
X10215648Y-13556143D01*
X10244219Y-13556143D01*
X10263267Y-13565667D01*
X10272790Y-13584714D01*
X10272790Y-13689476D01*
X10368029Y-13689476D02*
X10368029Y-13556143D01*
X10368029Y-13575190D02*
X10377552Y-13565667D01*
X10396600Y-13556143D01*
X10425171Y-13556143D01*
X10444219Y-13565667D01*
X10453743Y-13584714D01*
X10453743Y-13689476D01*
X10453743Y-13584714D02*
X10463267Y-13565667D01*
X10482314Y-13556143D01*
X10510886Y-13556143D01*
X10529933Y-13565667D01*
X10539457Y-13584714D01*
X10539457Y-13689476D01*
X10929933Y-13479952D02*
X10758505Y-13737095D01*
X11187076Y-13489476D02*
X11206124Y-13489476D01*
X11225171Y-13499000D01*
X11234695Y-13508524D01*
X11244219Y-13527571D01*
X11253743Y-13565667D01*
X11253743Y-13613286D01*
X11244219Y-13651381D01*
X11234695Y-13670428D01*
X11225171Y-13679952D01*
X11206124Y-13689476D01*
X11187076Y-13689476D01*
X11168029Y-13679952D01*
X11158505Y-13670428D01*
X11148981Y-13651381D01*
X11139457Y-13613286D01*
X11139457Y-13565667D01*
X11148981Y-13527571D01*
X11158505Y-13508524D01*
X11168029Y-13499000D01*
X11187076Y-13489476D01*
X11339457Y-13670428D02*
X11348981Y-13679952D01*
X11339457Y-13689476D01*
X11329933Y-13679952D01*
X11339457Y-13670428D01*
X11339457Y-13689476D01*
X11472790Y-13489476D02*
X11491838Y-13489476D01*
X11510886Y-13499000D01*
X11520409Y-13508524D01*
X11529933Y-13527571D01*
X11539457Y-13565667D01*
X11539457Y-13613286D01*
X11529933Y-13651381D01*
X11520409Y-13670428D01*
X11510886Y-13679952D01*
X11491838Y-13689476D01*
X11472790Y-13689476D01*
X11453743Y-13679952D01*
X11444219Y-13670428D01*
X11434695Y-13651381D01*
X11425171Y-13613286D01*
X11425171Y-13565667D01*
X11434695Y-13527571D01*
X11444219Y-13508524D01*
X11453743Y-13499000D01*
X11472790Y-13489476D01*
X11710886Y-13556143D02*
X11710886Y-13689476D01*
X11663267Y-13479952D02*
X11615648Y-13622809D01*
X11739457Y-13622809D01*
X11796600Y-13489476D02*
X11929933Y-13489476D01*
X11844219Y-13689476D01*
X11996600Y-13508524D02*
X12006124Y-13499000D01*
X12025171Y-13489476D01*
X12072790Y-13489476D01*
X12091838Y-13499000D01*
X12101362Y-13508524D01*
X12110886Y-13527571D01*
X12110886Y-13546619D01*
X12101362Y-13575190D01*
X11987076Y-13689476D01*
X12110886Y-13689476D01*
X12187076Y-13489476D02*
X12187076Y-13527571D01*
X12263267Y-13489476D02*
X12263267Y-13527571D01*
X12558505Y-13765667D02*
X12548981Y-13756143D01*
X12529933Y-13727571D01*
X12520409Y-13708524D01*
X12510886Y-13679952D01*
X12501362Y-13632333D01*
X12501362Y-13594238D01*
X12510886Y-13546619D01*
X12520409Y-13518048D01*
X12529933Y-13499000D01*
X12548981Y-13470428D01*
X12558505Y-13460905D01*
X12720409Y-13556143D02*
X12720409Y-13689476D01*
X12672790Y-13479952D02*
X12625171Y-13622809D01*
X12748981Y-13622809D01*
X12977552Y-13689476D02*
X12977552Y-13489476D01*
X13063267Y-13689476D02*
X13063267Y-13584714D01*
X13053743Y-13565667D01*
X13034695Y-13556143D01*
X13006124Y-13556143D01*
X12987076Y-13565667D01*
X12977552Y-13575190D01*
X13187076Y-13689476D02*
X13168028Y-13679952D01*
X13158505Y-13670428D01*
X13148981Y-13651381D01*
X13148981Y-13594238D01*
X13158505Y-13575190D01*
X13168028Y-13565667D01*
X13187076Y-13556143D01*
X13215648Y-13556143D01*
X13234695Y-13565667D01*
X13244219Y-13575190D01*
X13253743Y-13594238D01*
X13253743Y-13651381D01*
X13244219Y-13670428D01*
X13234695Y-13679952D01*
X13215648Y-13689476D01*
X13187076Y-13689476D01*
X13368028Y-13689476D02*
X13348981Y-13679952D01*
X13339457Y-13660905D01*
X13339457Y-13489476D01*
X13520409Y-13679952D02*
X13501362Y-13689476D01*
X13463267Y-13689476D01*
X13444219Y-13679952D01*
X13434695Y-13660905D01*
X13434695Y-13584714D01*
X13444219Y-13565667D01*
X13463267Y-13556143D01*
X13501362Y-13556143D01*
X13520409Y-13565667D01*
X13529933Y-13584714D01*
X13529933Y-13603762D01*
X13434695Y-13622809D01*
X13606124Y-13679952D02*
X13625171Y-13689476D01*
X13663267Y-13689476D01*
X13682314Y-13679952D01*
X13691838Y-13660905D01*
X13691838Y-13651381D01*
X13682314Y-13632333D01*
X13663267Y-13622809D01*
X13634695Y-13622809D01*
X13615648Y-13613286D01*
X13606124Y-13594238D01*
X13606124Y-13584714D01*
X13615648Y-13565667D01*
X13634695Y-13556143D01*
X13663267Y-13556143D01*
X13682314Y-13565667D01*
X13758505Y-13765667D02*
X13768028Y-13756143D01*
X13787076Y-13727571D01*
X13796600Y-13708524D01*
X13806124Y-13679952D01*
X13815648Y-13632333D01*
X13815648Y-13594238D01*
X13806124Y-13546619D01*
X13796600Y-13518048D01*
X13787076Y-13499000D01*
X13768028Y-13470428D01*
X13758505Y-13460905D01*
X14120409Y-13765667D02*
X14110886Y-13756143D01*
X14091838Y-13727571D01*
X14082314Y-13708524D01*
X14072790Y-13679952D01*
X14063267Y-13632333D01*
X14063267Y-13594238D01*
X14072790Y-13546619D01*
X14082314Y-13518048D01*
X14091838Y-13499000D01*
X14110886Y-13470428D01*
X14120409Y-13460905D01*
X14196600Y-13556143D02*
X14196600Y-13689476D01*
X14196600Y-13575190D02*
X14206124Y-13565667D01*
X14225171Y-13556143D01*
X14253743Y-13556143D01*
X14272790Y-13565667D01*
X14282314Y-13584714D01*
X14282314Y-13689476D01*
X14406124Y-13689476D02*
X14387076Y-13679952D01*
X14377552Y-13670428D01*
X14368028Y-13651381D01*
X14368028Y-13594238D01*
X14377552Y-13575190D01*
X14387076Y-13565667D01*
X14406124Y-13556143D01*
X14434695Y-13556143D01*
X14453743Y-13565667D01*
X14463267Y-13575190D01*
X14472790Y-13594238D01*
X14472790Y-13651381D01*
X14463267Y-13670428D01*
X14453743Y-13679952D01*
X14434695Y-13689476D01*
X14406124Y-13689476D01*
X14529933Y-13556143D02*
X14606124Y-13556143D01*
X14558505Y-13489476D02*
X14558505Y-13660905D01*
X14568028Y-13679952D01*
X14587076Y-13689476D01*
X14606124Y-13689476D01*
X14825171Y-13556143D02*
X14825171Y-13756143D01*
X14825171Y-13565667D02*
X14844219Y-13556143D01*
X14882314Y-13556143D01*
X14901362Y-13565667D01*
X14910886Y-13575190D01*
X14920409Y-13594238D01*
X14920409Y-13651381D01*
X14910886Y-13670428D01*
X14901362Y-13679952D01*
X14882314Y-13689476D01*
X14844219Y-13689476D01*
X14825171Y-13679952D01*
X15034695Y-13689476D02*
X15015648Y-13679952D01*
X15006124Y-13660905D01*
X15006124Y-13489476D01*
X15196600Y-13689476D02*
X15196600Y-13584714D01*
X15187076Y-13565667D01*
X15168028Y-13556143D01*
X15129933Y-13556143D01*
X15110886Y-13565667D01*
X15196600Y-13679952D02*
X15177552Y-13689476D01*
X15129933Y-13689476D01*
X15110886Y-13679952D01*
X15101362Y-13660905D01*
X15101362Y-13641857D01*
X15110886Y-13622809D01*
X15129933Y-13613286D01*
X15177552Y-13613286D01*
X15196600Y-13603762D01*
X15263267Y-13556143D02*
X15339457Y-13556143D01*
X15291838Y-13489476D02*
X15291838Y-13660905D01*
X15301362Y-13679952D01*
X15320409Y-13689476D01*
X15339457Y-13689476D01*
X15482314Y-13679952D02*
X15463267Y-13689476D01*
X15425171Y-13689476D01*
X15406124Y-13679952D01*
X15396600Y-13660905D01*
X15396600Y-13584714D01*
X15406124Y-13565667D01*
X15425171Y-13556143D01*
X15463267Y-13556143D01*
X15482314Y-13565667D01*
X15491838Y-13584714D01*
X15491838Y-13603762D01*
X15396600Y-13622809D01*
X15663267Y-13689476D02*
X15663267Y-13489476D01*
X15663267Y-13679952D02*
X15644219Y-13689476D01*
X15606124Y-13689476D01*
X15587076Y-13679952D01*
X15577552Y-13670428D01*
X15568028Y-13651381D01*
X15568028Y-13594238D01*
X15577552Y-13575190D01*
X15587076Y-13565667D01*
X15606124Y-13556143D01*
X15644219Y-13556143D01*
X15663267Y-13565667D01*
X15739457Y-13765667D02*
X15748981Y-13756143D01*
X15768028Y-13727571D01*
X15777552Y-13708524D01*
X15787076Y-13679952D01*
X15796600Y-13632333D01*
X15796600Y-13594238D01*
X15787076Y-13546619D01*
X15777552Y-13518048D01*
X15768028Y-13499000D01*
X15748981Y-13470428D01*
X15739457Y-13460905D01*
X8986600Y-13863000D02*
G75*
G03*
X8986600Y-13863000I-100000J0D01*
G01*
X9225171Y-13753476D02*
X9348981Y-13753476D01*
X9282314Y-13829667D01*
X9310886Y-13829667D01*
X9329933Y-13839190D01*
X9339457Y-13848714D01*
X9348981Y-13867762D01*
X9348981Y-13915381D01*
X9339457Y-13934428D01*
X9329933Y-13943952D01*
X9310886Y-13953476D01*
X9253743Y-13953476D01*
X9234695Y-13943952D01*
X9225171Y-13934428D01*
X9434695Y-13934428D02*
X9444219Y-13943952D01*
X9434695Y-13953476D01*
X9425171Y-13943952D01*
X9434695Y-13934428D01*
X9434695Y-13953476D01*
X9520410Y-13772524D02*
X9529933Y-13763000D01*
X9548981Y-13753476D01*
X9596600Y-13753476D01*
X9615648Y-13763000D01*
X9625171Y-13772524D01*
X9634695Y-13791571D01*
X9634695Y-13810619D01*
X9625171Y-13839190D01*
X9510886Y-13953476D01*
X9634695Y-13953476D01*
X9758505Y-13753476D02*
X9777552Y-13753476D01*
X9796600Y-13763000D01*
X9806124Y-13772524D01*
X9815648Y-13791571D01*
X9825171Y-13829667D01*
X9825171Y-13877286D01*
X9815648Y-13915381D01*
X9806124Y-13934428D01*
X9796600Y-13943952D01*
X9777552Y-13953476D01*
X9758505Y-13953476D01*
X9739457Y-13943952D01*
X9729933Y-13934428D01*
X9720410Y-13915381D01*
X9710886Y-13877286D01*
X9710886Y-13829667D01*
X9720410Y-13791571D01*
X9729933Y-13772524D01*
X9739457Y-13763000D01*
X9758505Y-13753476D01*
X9948981Y-13753476D02*
X9968029Y-13753476D01*
X9987076Y-13763000D01*
X9996600Y-13772524D01*
X10006124Y-13791571D01*
X10015648Y-13829667D01*
X10015648Y-13877286D01*
X10006124Y-13915381D01*
X9996600Y-13934428D01*
X9987076Y-13943952D01*
X9968029Y-13953476D01*
X9948981Y-13953476D01*
X9929933Y-13943952D01*
X9920410Y-13934428D01*
X9910886Y-13915381D01*
X9901362Y-13877286D01*
X9901362Y-13829667D01*
X9910886Y-13791571D01*
X9920410Y-13772524D01*
X9929933Y-13763000D01*
X9948981Y-13753476D01*
X10101362Y-13953476D02*
X10101362Y-13820143D01*
X10101362Y-13839190D02*
X10110886Y-13829667D01*
X10129933Y-13820143D01*
X10158505Y-13820143D01*
X10177552Y-13829667D01*
X10187076Y-13848714D01*
X10187076Y-13953476D01*
X10187076Y-13848714D02*
X10196600Y-13829667D01*
X10215648Y-13820143D01*
X10244219Y-13820143D01*
X10263267Y-13829667D01*
X10272790Y-13848714D01*
X10272790Y-13953476D01*
X10368029Y-13953476D02*
X10368029Y-13820143D01*
X10368029Y-13839190D02*
X10377552Y-13829667D01*
X10396600Y-13820143D01*
X10425171Y-13820143D01*
X10444219Y-13829667D01*
X10453743Y-13848714D01*
X10453743Y-13953476D01*
X10453743Y-13848714D02*
X10463267Y-13829667D01*
X10482314Y-13820143D01*
X10510886Y-13820143D01*
X10529933Y-13829667D01*
X10539457Y-13848714D01*
X10539457Y-13953476D01*
X10929933Y-13743952D02*
X10758505Y-14001095D01*
X11187076Y-13753476D02*
X11206124Y-13753476D01*
X11225171Y-13763000D01*
X11234695Y-13772524D01*
X11244219Y-13791571D01*
X11253743Y-13829667D01*
X11253743Y-13877286D01*
X11244219Y-13915381D01*
X11234695Y-13934428D01*
X11225171Y-13943952D01*
X11206124Y-13953476D01*
X11187076Y-13953476D01*
X11168029Y-13943952D01*
X11158505Y-13934428D01*
X11148981Y-13915381D01*
X11139457Y-13877286D01*
X11139457Y-13829667D01*
X11148981Y-13791571D01*
X11158505Y-13772524D01*
X11168029Y-13763000D01*
X11187076Y-13753476D01*
X11339457Y-13934428D02*
X11348981Y-13943952D01*
X11339457Y-13953476D01*
X11329933Y-13943952D01*
X11339457Y-13934428D01*
X11339457Y-13953476D01*
X11539457Y-13953476D02*
X11425171Y-13953476D01*
X11482314Y-13953476D02*
X11482314Y-13753476D01*
X11463267Y-13782048D01*
X11444219Y-13801095D01*
X11425171Y-13810619D01*
X11615648Y-13772524D02*
X11625171Y-13763000D01*
X11644219Y-13753476D01*
X11691838Y-13753476D01*
X11710886Y-13763000D01*
X11720409Y-13772524D01*
X11729933Y-13791571D01*
X11729933Y-13810619D01*
X11720409Y-13839190D01*
X11606124Y-13953476D01*
X11729933Y-13953476D01*
X11901362Y-13753476D02*
X11863267Y-13753476D01*
X11844219Y-13763000D01*
X11834695Y-13772524D01*
X11815648Y-13801095D01*
X11806124Y-13839190D01*
X11806124Y-13915381D01*
X11815648Y-13934428D01*
X11825171Y-13943952D01*
X11844219Y-13953476D01*
X11882314Y-13953476D01*
X11901362Y-13943952D01*
X11910886Y-13934428D01*
X11920409Y-13915381D01*
X11920409Y-13867762D01*
X11910886Y-13848714D01*
X11901362Y-13839190D01*
X11882314Y-13829667D01*
X11844219Y-13829667D01*
X11825171Y-13839190D01*
X11815648Y-13848714D01*
X11806124Y-13867762D01*
X12044219Y-13753476D02*
X12063267Y-13753476D01*
X12082314Y-13763000D01*
X12091838Y-13772524D01*
X12101362Y-13791571D01*
X12110886Y-13829667D01*
X12110886Y-13877286D01*
X12101362Y-13915381D01*
X12091838Y-13934428D01*
X12082314Y-13943952D01*
X12063267Y-13953476D01*
X12044219Y-13953476D01*
X12025171Y-13943952D01*
X12015648Y-13934428D01*
X12006124Y-13915381D01*
X11996600Y-13877286D01*
X11996600Y-13829667D01*
X12006124Y-13791571D01*
X12015648Y-13772524D01*
X12025171Y-13763000D01*
X12044219Y-13753476D01*
X12187076Y-13753476D02*
X12187076Y-13791571D01*
X12263267Y-13753476D02*
X12263267Y-13791571D01*
X12558505Y-14029667D02*
X12548981Y-14020143D01*
X12529933Y-13991571D01*
X12520409Y-13972524D01*
X12510886Y-13943952D01*
X12501362Y-13896333D01*
X12501362Y-13858238D01*
X12510886Y-13810619D01*
X12520409Y-13782048D01*
X12529933Y-13763000D01*
X12548981Y-13734428D01*
X12558505Y-13724905D01*
X12663267Y-13839190D02*
X12644219Y-13829667D01*
X12634695Y-13820143D01*
X12625171Y-13801095D01*
X12625171Y-13791571D01*
X12634695Y-13772524D01*
X12644219Y-13763000D01*
X12663267Y-13753476D01*
X12701362Y-13753476D01*
X12720409Y-13763000D01*
X12729933Y-13772524D01*
X12739457Y-13791571D01*
X12739457Y-13801095D01*
X12729933Y-13820143D01*
X12720409Y-13829667D01*
X12701362Y-13839190D01*
X12663267Y-13839190D01*
X12644219Y-13848714D01*
X12634695Y-13858238D01*
X12625171Y-13877286D01*
X12625171Y-13915381D01*
X12634695Y-13934428D01*
X12644219Y-13943952D01*
X12663267Y-13953476D01*
X12701362Y-13953476D01*
X12720409Y-13943952D01*
X12729933Y-13934428D01*
X12739457Y-13915381D01*
X12739457Y-13877286D01*
X12729933Y-13858238D01*
X12720409Y-13848714D01*
X12701362Y-13839190D01*
X12977552Y-13953476D02*
X12977552Y-13753476D01*
X13063267Y-13953476D02*
X13063267Y-13848714D01*
X13053743Y-13829667D01*
X13034695Y-13820143D01*
X13006124Y-13820143D01*
X12987076Y-13829667D01*
X12977552Y-13839190D01*
X13187076Y-13953476D02*
X13168028Y-13943952D01*
X13158505Y-13934428D01*
X13148981Y-13915381D01*
X13148981Y-13858238D01*
X13158505Y-13839190D01*
X13168028Y-13829667D01*
X13187076Y-13820143D01*
X13215648Y-13820143D01*
X13234695Y-13829667D01*
X13244219Y-13839190D01*
X13253743Y-13858238D01*
X13253743Y-13915381D01*
X13244219Y-13934428D01*
X13234695Y-13943952D01*
X13215648Y-13953476D01*
X13187076Y-13953476D01*
X13368028Y-13953476D02*
X13348981Y-13943952D01*
X13339457Y-13924905D01*
X13339457Y-13753476D01*
X13520409Y-13943952D02*
X13501362Y-13953476D01*
X13463267Y-13953476D01*
X13444219Y-13943952D01*
X13434695Y-13924905D01*
X13434695Y-13848714D01*
X13444219Y-13829667D01*
X13463267Y-13820143D01*
X13501362Y-13820143D01*
X13520409Y-13829667D01*
X13529933Y-13848714D01*
X13529933Y-13867762D01*
X13434695Y-13886809D01*
X13606124Y-13943952D02*
X13625171Y-13953476D01*
X13663267Y-13953476D01*
X13682314Y-13943952D01*
X13691838Y-13924905D01*
X13691838Y-13915381D01*
X13682314Y-13896333D01*
X13663267Y-13886809D01*
X13634695Y-13886809D01*
X13615648Y-13877286D01*
X13606124Y-13858238D01*
X13606124Y-13848714D01*
X13615648Y-13829667D01*
X13634695Y-13820143D01*
X13663267Y-13820143D01*
X13682314Y-13829667D01*
X13758505Y-14029667D02*
X13768028Y-14020143D01*
X13787076Y-13991571D01*
X13796600Y-13972524D01*
X13806124Y-13943952D01*
X13815648Y-13896333D01*
X13815648Y-13858238D01*
X13806124Y-13810619D01*
X13796600Y-13782048D01*
X13787076Y-13763000D01*
X13768028Y-13734428D01*
X13758505Y-13724905D01*
X14120409Y-14029667D02*
X14110886Y-14020143D01*
X14091838Y-13991571D01*
X14082314Y-13972524D01*
X14072790Y-13943952D01*
X14063267Y-13896333D01*
X14063267Y-13858238D01*
X14072790Y-13810619D01*
X14082314Y-13782048D01*
X14091838Y-13763000D01*
X14110886Y-13734428D01*
X14120409Y-13724905D01*
X14196600Y-13820143D02*
X14196600Y-13953476D01*
X14196600Y-13839190D02*
X14206124Y-13829667D01*
X14225171Y-13820143D01*
X14253743Y-13820143D01*
X14272790Y-13829667D01*
X14282314Y-13848714D01*
X14282314Y-13953476D01*
X14406124Y-13953476D02*
X14387076Y-13943952D01*
X14377552Y-13934428D01*
X14368028Y-13915381D01*
X14368028Y-13858238D01*
X14377552Y-13839190D01*
X14387076Y-13829667D01*
X14406124Y-13820143D01*
X14434695Y-13820143D01*
X14453743Y-13829667D01*
X14463267Y-13839190D01*
X14472790Y-13858238D01*
X14472790Y-13915381D01*
X14463267Y-13934428D01*
X14453743Y-13943952D01*
X14434695Y-13953476D01*
X14406124Y-13953476D01*
X14529933Y-13820143D02*
X14606124Y-13820143D01*
X14558505Y-13753476D02*
X14558505Y-13924905D01*
X14568028Y-13943952D01*
X14587076Y-13953476D01*
X14606124Y-13953476D01*
X14825171Y-13820143D02*
X14825171Y-14020143D01*
X14825171Y-13829667D02*
X14844219Y-13820143D01*
X14882314Y-13820143D01*
X14901362Y-13829667D01*
X14910886Y-13839190D01*
X14920409Y-13858238D01*
X14920409Y-13915381D01*
X14910886Y-13934428D01*
X14901362Y-13943952D01*
X14882314Y-13953476D01*
X14844219Y-13953476D01*
X14825171Y-13943952D01*
X15034695Y-13953476D02*
X15015648Y-13943952D01*
X15006124Y-13924905D01*
X15006124Y-13753476D01*
X15196600Y-13953476D02*
X15196600Y-13848714D01*
X15187076Y-13829667D01*
X15168028Y-13820143D01*
X15129933Y-13820143D01*
X15110886Y-13829667D01*
X15196600Y-13943952D02*
X15177552Y-13953476D01*
X15129933Y-13953476D01*
X15110886Y-13943952D01*
X15101362Y-13924905D01*
X15101362Y-13905857D01*
X15110886Y-13886809D01*
X15129933Y-13877286D01*
X15177552Y-13877286D01*
X15196600Y-13867762D01*
X15263267Y-13820143D02*
X15339457Y-13820143D01*
X15291838Y-13753476D02*
X15291838Y-13924905D01*
X15301362Y-13943952D01*
X15320409Y-13953476D01*
X15339457Y-13953476D01*
X15482314Y-13943952D02*
X15463267Y-13953476D01*
X15425171Y-13953476D01*
X15406124Y-13943952D01*
X15396600Y-13924905D01*
X15396600Y-13848714D01*
X15406124Y-13829667D01*
X15425171Y-13820143D01*
X15463267Y-13820143D01*
X15482314Y-13829667D01*
X15491838Y-13848714D01*
X15491838Y-13867762D01*
X15396600Y-13886809D01*
X15663267Y-13953476D02*
X15663267Y-13753476D01*
X15663267Y-13943952D02*
X15644219Y-13953476D01*
X15606124Y-13953476D01*
X15587076Y-13943952D01*
X15577552Y-13934428D01*
X15568028Y-13915381D01*
X15568028Y-13858238D01*
X15577552Y-13839190D01*
X15587076Y-13829667D01*
X15606124Y-13820143D01*
X15644219Y-13820143D01*
X15663267Y-13829667D01*
X15739457Y-14029667D02*
X15748981Y-14020143D01*
X15768028Y-13991571D01*
X15777552Y-13972524D01*
X15787076Y-13943952D01*
X15796600Y-13896333D01*
X15796600Y-13858238D01*
X15787076Y-13810619D01*
X15777552Y-13782048D01*
X15768028Y-13763000D01*
X15748981Y-13734428D01*
X15739457Y-13724905D01*
M02*
