M48
; DRILL file {KiCad 6.0.11+dfsg-1~bpo11+1} date mar. 08 avril 2025 21:51:38
; FORMAT={-:-/ absolute / metric / decimal}
; #@! TF.CreationDate,2025-04-08T21:51:38+02:00
; #@! TF.GenerationSoftware,Kicad,Pcbnew,6.0.11+dfsg-1~bpo11+1
; #@! TF.FileFunction,Plated,1,2,PTH
FMAT,2
METRIC
; #@! TA.AperFunction,Plated,PTH,ViaDrill
T1C0.400
; #@! TA.AperFunction,Plated,PTH,ComponentDrill
T2C0.750
; #@! TA.AperFunction,Plated,PTH,ComponentDrill
T3C0.800
; #@! TA.AperFunction,Plated,PTH,ComponentDrill
T4C0.950
; #@! TA.AperFunction,Plated,PTH,ComponentDrill
T5C1.000
; #@! TA.AperFunction,Plated,PTH,ComponentDrill
T6C1.020
; #@! TA.AperFunction,Plated,PTH,ComponentDrill
T7C1.100
; #@! TA.AperFunction,Plated,PTH,ComponentDrill
T8C1.600
; #@! TA.AperFunction,Plated,PTH,ComponentDrill
T9C2.000
%
G90
G05
T1
X122.895Y-55.228
X125.784Y-54.896
T2
X109.474Y-92.71
X117.094Y-92.71
X160.02Y-66.04
X160.02Y-68.04
X160.02Y-70.04
X160.02Y-72.04
X160.02Y-89.25
X160.02Y-91.25
X160.02Y-93.25
X160.02Y-95.25
T3
X108.956Y-95.768
X108.956Y-103.388
X109.22Y-89.662
X109.728Y-107.188
X109.728Y-110.744
X109.728Y-114.3
X111.496Y-95.768
X111.496Y-103.388
X114.036Y-95.768
X114.036Y-103.388
X116.576Y-95.768
X116.576Y-103.388
X116.84Y-89.662
X117.348Y-107.188
X117.348Y-110.744
X117.348Y-114.3
X120.396Y-95.31
X120.396Y-102.81
X122.105Y-109.728
X124.605Y-109.728
X136.264Y-60.452
X143.764Y-60.452
T4
X138.744Y-75.484
X141.244Y-75.484
X143.744Y-75.484
X146.244Y-75.484
T5
X112.13Y-75.224
X112.13Y-77.724
X112.13Y-80.224
X116.606Y-119.871
X119.106Y-119.871
X125.75Y-119.871
X126.63Y-75.224
X126.63Y-80.224
X128.25Y-119.871
X135.3Y-118.364
X140.3Y-118.364
T6
X100.076Y-45.974
X100.076Y-63.754
X102.616Y-45.974
X102.616Y-63.754
X105.156Y-45.974
X105.156Y-63.754
X107.696Y-45.974
X107.696Y-63.754
X110.236Y-45.974
X110.236Y-63.754
X112.776Y-45.974
X112.776Y-63.754
X115.316Y-45.974
X115.316Y-63.754
X117.856Y-45.974
X117.856Y-63.754
X120.396Y-45.974
X120.396Y-63.754
X122.936Y-45.974
X122.936Y-63.754
X125.476Y-45.974
X125.476Y-63.754
X128.016Y-45.974
X128.016Y-63.754
X130.556Y-45.974
X130.556Y-63.754
X133.096Y-45.974
X133.096Y-63.754
X135.636Y-45.974
X135.636Y-63.754
X138.176Y-45.974
X138.176Y-63.754
X140.716Y-45.974
X140.716Y-63.754
X143.256Y-45.974
X143.256Y-63.754
X145.796Y-45.974
X145.796Y-63.754
X148.106Y-52.324
X148.106Y-54.864
X148.106Y-57.404
X148.336Y-45.974
X148.336Y-63.754
T7
X92.837Y-71.2
X92.837Y-81.2
X92.837Y-98.632
X92.837Y-108.632
X102.997Y-68.58
X102.997Y-76.2
X102.997Y-83.82
X102.997Y-96.012
X102.997Y-103.632
X102.997Y-111.252
X105.537Y-71.12
X105.537Y-81.28
X105.537Y-98.552
X105.537Y-108.712
T8
X158.696Y-112.51
X161.696Y-107.81
X164.696Y-112.51
T5
X95.42Y-115.248G85X95.42Y-115.448
G05
X95.533Y-87.758G85X95.533Y-87.959
G05
X97.42Y-119.248G85X97.42Y-119.448
G05
X97.533Y-91.758G85X97.533Y-91.959
G05
X102.42Y-115.248G85X102.42Y-115.448
G05
X102.533Y-87.758G85X102.533Y-87.959
G05
T9
X119.38Y-72.124G85X119.88Y-72.124
G05
X119.38Y-83.324G85X119.88Y-83.324
G05
T0
M30
